<svg width="34" height="33" viewBox="0 0 34 33" fill="none" xmlns="http://www.w3.org/2000/svg">
<path d="M27.2 26.4C28.1017 26.4 28.9665 26.7477 29.6042 27.3665C30.2418 27.9854 30.6 28.8248 30.6 29.7C30.6 30.5752 30.2418 31.4146 29.6042 32.0335C28.9665 32.6523 28.1017 33 27.2 33C26.2983 33 25.4335 32.6523 24.7958 32.0335C24.1582 31.4146 23.8 30.5752 23.8 29.7C23.8 27.8685 25.313 26.4 27.2 26.4ZM0 0H5.559L7.157 3.3H32.3C32.7509 3.3 33.1833 3.47384 33.5021 3.78327C33.8209 4.09271 34 4.51239 34 4.95C34 5.2305 33.915 5.511 33.796 5.775L27.71 16.4505C27.132 17.457 26.01 18.15 24.735 18.15H12.07L10.54 20.8395L10.489 21.0375C10.489 21.1469 10.5338 21.2518 10.6135 21.3292C10.6932 21.4065 10.8013 21.45 10.914 21.45H30.6V24.75H10.2C9.29826 24.75 8.43346 24.4023 7.79584 23.7835C7.15821 23.1646 6.8 22.3252 6.8 21.45C6.8 20.8725 6.953 20.328 7.208 19.866L9.52 15.8235L3.4 3.3H0V0ZM10.2 26.4C11.1017 26.4 11.9665 26.7477 12.6042 27.3665C13.2418 27.9854 13.6 28.8248 13.6 29.7C13.6 30.5752 13.2418 31.4146 12.6042 32.0335C11.9665 32.6523 11.1017 33 10.2 33C9.29826 33 8.43346 32.6523 7.79584 32.0335C7.15821 31.4146 6.8 30.5752 6.8 29.7C6.8 27.8685 8.313 26.4 10.2 26.4ZM25.5 14.85L30.226 6.6H8.738L12.75 14.85H25.5Z" fill="#253564"/>
</svg>
