<svg width="214" height="155" viewBox="0 0 214 155" fill="none" xmlns="http://www.w3.org/2000/svg">
<path fill-rule="evenodd" clip-rule="evenodd" d="M170.439 37.6077C162.892 15.722 142.114 0 117.664 0C100.584 0 85.2955 7.67292 75.058 19.76C69.0583 17.5556 62.575 16.3522 55.8106 16.3522C24.9873 16.3522 0 41.3394 0 72.1628C0 101.451 22.5598 125.469 51.25 127.79C60.9963 144.082 78.814 154.99 99.1794 154.99C112.5 154.99 124.731 150.323 134.326 142.536C141.561 145.963 149.651 147.88 158.189 147.88C189.013 147.88 214 122.893 214 92.0698C214 65.4547 195.37 43.191 170.439 37.6077Z" fill="white"/>
</svg>
