<svg width="261" height="136" viewBox="0 0 261 136" fill="none" xmlns="http://www.w3.org/2000/svg">
<path fill-rule="evenodd" clip-rule="evenodd" d="M87.0684 21.1636C96.7928 8.3071 112.215 0 129.578 0C148.983 0 165.965 10.3766 175.277 25.8838C184.207 19.1223 195.335 15.1111 207.4 15.1111C236.818 15.1111 260.667 38.9594 260.667 68.3778C260.667 97.7961 236.818 121.644 207.4 121.644C195.193 121.644 183.946 117.538 174.963 110.632C165.586 125.853 148.767 136 129.578 136C108.929 136 91.0251 124.251 82.1852 107.074C73.8571 112.468 63.9276 115.6 53.2667 115.6C23.8483 115.6 0 91.7517 0 62.3333C0 32.915 23.8483 9.06667 53.2667 9.06667C66.0996 9.06667 77.8726 13.6047 87.0684 21.1636Z" fill="white"/>
</svg>
