<svg width="42" height="28" viewBox="0 0 42 28" fill="none" xmlns="http://www.w3.org/2000/svg">
<path fill-rule="evenodd" clip-rule="evenodd" d="M38.1818 3.50193H3.81818C3.291 3.50193 2.86364 4.02456 2.86364 4.66925V22.7626C2.86364 23.4073 3.291 23.9299 3.81818 23.9299H38.1818C38.709 23.9299 39.1364 23.4073 39.1364 22.7626V4.66925C39.1364 4.02456 38.709 3.50193 38.1818 3.50193ZM3.81818 0C1.70946 0 0 2.09049 0 4.66925V22.7626C0 25.3413 1.70946 27.4318 3.81818 27.4318H38.1818C40.2905 27.4318 42 25.3413 42 22.7626V4.66925C42 2.09049 40.2905 0 38.1818 0H3.81818Z" fill="#253564"/>
<path d="M4.29529 0L22.4818 12.8404L21.05 15.8732L2.86347 3.03276L4.29529 0Z" fill="#253564"/>
<path d="M37.7546 0L19.5681 12.8404L20.9999 15.8732L39.1865 3.03276L37.7546 0Z" fill="#253564"/>
</svg>
