<svg width="1374" height="226" viewBox="0 0 1374 226" fill="none" xmlns="http://www.w3.org/2000/svg">
<path fill-rule="evenodd" clip-rule="evenodd" d="M1373.37 226H0C17.629 100.157 318.325 0 686.683 0C1055.04 0 1355.74 100.157 1373.37 226Z" fill="#94C667"/>
<path d="M373 101.698C373.83 92.9779 384.896 86.594 387.408 97.8964C387.505 98.3335 388.491 91.7455 395.81 90.2292C403.129 88.7129 405.938 95.0783 408.077 98.8228" stroke="#205F18" stroke-opacity="0.5" stroke-width="3" stroke-linecap="round"/>
<path d="M404.129 122.713C404.981 113.768 416.338 107.219 418.916 118.813C419.015 119.261 420.027 112.503 427.539 110.948C435.05 109.393 437.933 115.922 440.129 119.763" stroke="#205F18" stroke-opacity="0.5" stroke-width="3" stroke-linecap="round"/>
<path d="M555 142.016C554.431 136.041 546.848 131.666 545.127 139.411C545.06 139.711 544.385 135.196 539.37 134.157C534.354 133.118 532.43 137.48 530.963 140.046" stroke="#205F18" stroke-opacity="0.8" stroke-width="3" stroke-linecap="round"/>
<path d="M533.669 156.416C533.085 150.287 525.303 145.799 523.536 153.744C523.468 154.051 522.775 149.42 517.627 148.354C512.48 147.289 510.505 151.763 509 154.395" stroke="#205F18" stroke-opacity="0.8" stroke-width="3" stroke-linecap="round"/>
<path d="M641 178.698C641.83 169.978 652.896 163.594 655.408 174.896C655.505 175.333 656.491 168.746 663.81 167.229C671.129 165.713 673.938 172.078 676.077 175.823" stroke="#205F18" stroke-opacity="0.5" stroke-width="3" stroke-linecap="round"/>
<path d="M672.129 199.713C672.981 190.768 684.338 184.219 686.916 195.813C687.015 196.261 688.027 189.503 695.539 187.948C703.05 186.393 705.933 192.922 708.129 196.763" stroke="#205F18" stroke-opacity="0.5" stroke-width="3" stroke-linecap="round"/>
</svg>
