<svg width="928" height="162" viewBox="0 0 928 162" fill="none" xmlns="http://www.w3.org/2000/svg">
<path fill-rule="evenodd" clip-rule="evenodd" d="M927.727 162H0C2.87423 72.3564 209.452 0 463.864 0C718.275 0 924.853 72.3564 927.727 162Z" fill="#6B9F3B"/>
<path d="M549 90.698C549.83 81.9779 560.896 75.594 563.408 86.8964C563.505 87.3335 564.491 80.7455 571.81 79.2292C579.129 77.7129 581.938 84.0783 584.077 87.8228" stroke="#205F18" stroke-opacity="0.5" stroke-width="3" stroke-linecap="round"/>
<path d="M580.129 111.713C580.981 102.768 592.338 96.2189 594.916 107.813C595.015 108.261 596.027 101.503 603.539 99.948C611.05 98.3926 613.933 104.922 616.129 108.763" stroke="#205F18" stroke-opacity="0.5" stroke-width="3" stroke-linecap="round"/>
<path d="M368 112.365C368.594 106.129 376.506 101.565 378.302 109.646C378.372 109.959 379.077 105.248 384.31 104.164C389.543 103.08 391.552 107.631 393.082 110.309" stroke="#205F18" stroke-opacity="0.8" stroke-width="3" stroke-linecap="round"/>
<path d="M390.258 127.391C390.868 120.995 398.988 116.312 400.832 124.603C400.903 124.923 401.626 120.091 406.997 118.979C412.368 117.866 414.43 122.535 416 125.282" stroke="#205F18" stroke-opacity="0.8" stroke-width="3" stroke-linecap="round"/>
</svg>
