<svg width="24" height="24" viewBox="0 0 24 24" fill="none" xmlns="http://www.w3.org/2000/svg">
<path d="M22 22L15.3333 15.3333M2 9.77778C2 10.7992 2.20118 11.8106 2.59205 12.7542C2.98292 13.6978 3.55582 14.5553 4.27806 15.2775C5.00029 15.9997 5.85771 16.5726 6.80135 16.9635C7.74499 17.3544 8.75639 17.5556 9.77778 17.5556C10.7992 17.5556 11.8106 17.3544 12.7542 16.9635C13.6978 16.5726 14.5553 15.9997 15.2775 15.2775C15.9997 14.5553 16.5726 13.6978 16.9635 12.7542C17.3544 11.8106 17.5556 10.7992 17.5556 9.77778C17.5556 8.75639 17.3544 7.74499 16.9635 6.80135C16.5726 5.85771 15.9997 5.00029 15.2775 4.27806C14.5553 3.55582 13.6978 2.98292 12.7542 2.59205C11.8106 2.20118 10.7992 2 9.77778 2C8.75639 2 7.74499 2.20118 6.80135 2.59205C5.85771 2.98292 5.00029 3.55582 4.27806 4.27806C3.55582 5.00029 2.98292 5.85771 2.59205 6.80135C2.20118 7.74499 2 8.75639 2 9.77778Z" stroke="#333333" stroke-width="3" stroke-linecap="round" stroke-linejoin="round"/>
</svg>
