<svg width="25" height="25" viewBox="0 0 25 25" fill="none" xmlns="http://www.w3.org/2000/svg">
<mask id="mask0_1482_51" style="mask-type:alpha" maskUnits="userSpaceOnUse" x="0" y="0" width="25" height="25">
<rect x="0.242188" y="0.259766" width="24" height="24" fill="#D9D9D9"/>
</mask>
<g mask="url(#mask0_1482_51)">
<path d="M9.49238 22.2598L9.09238 19.0598C8.87572 18.9764 8.67155 18.8764 8.47988 18.7598C8.28822 18.6431 8.10072 18.5181 7.91738 18.3848L4.94238 19.6348L2.19238 14.8848L4.76738 12.9348C4.75072 12.8181 4.74238 12.7056 4.74238 12.5973V11.9223C4.74238 11.8139 4.75072 11.7014 4.76738 11.5848L2.19238 9.63477L4.94238 4.88477L7.91738 6.13477C8.10072 6.00143 8.29238 5.87643 8.49238 5.75977C8.69238 5.6431 8.89238 5.5431 9.09238 5.45977L9.49238 2.25977H14.9924L15.3924 5.45977C15.609 5.5431 15.8132 5.6431 16.0049 5.75977C16.1965 5.87643 16.384 6.00143 16.5674 6.13477L19.5424 4.88477L22.2924 9.63477L19.7174 11.5848C19.734 11.7014 19.7424 11.8139 19.7424 11.9223V12.5973C19.7424 12.7056 19.7257 12.8181 19.6924 12.9348L22.2674 14.8848L19.5174 19.6348L16.5674 18.3848C16.384 18.5181 16.1924 18.6431 15.9924 18.7598C15.7924 18.8764 15.5924 18.9764 15.3924 19.0598L14.9924 22.2598H9.49238ZM11.2424 20.2598H13.2174L13.5674 17.6098C14.084 17.4764 14.5632 17.2806 15.0049 17.0223C15.4465 16.7639 15.8507 16.4514 16.2174 16.0848L18.6924 17.1098L19.6674 15.4098L17.5174 13.7848C17.6007 13.5514 17.659 13.3056 17.6924 13.0473C17.7257 12.7889 17.7424 12.5264 17.7424 12.2598C17.7424 11.9931 17.7257 11.7306 17.6924 11.4723C17.659 11.2139 17.6007 10.9681 17.5174 10.7348L19.6674 9.10977L18.6924 7.40977L16.2174 8.45977C15.8507 8.07643 15.4465 7.7556 15.0049 7.49727C14.5632 7.23893 14.084 7.0431 13.5674 6.90977L13.2424 4.25977H11.2674L10.9174 6.90977C10.4007 7.0431 9.92155 7.23893 9.47988 7.49727C9.03822 7.7556 8.63405 8.0681 8.26738 8.43477L5.79238 7.40977L4.81738 9.10977L6.96738 10.7098C6.88405 10.9598 6.82572 11.2098 6.79238 11.4598C6.75905 11.7098 6.74238 11.9764 6.74238 12.2598C6.74238 12.5264 6.75905 12.7848 6.79238 13.0348C6.82572 13.2848 6.88405 13.5348 6.96738 13.7848L4.81738 15.4098L5.79238 17.1098L8.26738 16.0598C8.63405 16.4431 9.03822 16.7639 9.47988 17.0223C9.92155 17.2806 10.4007 17.4764 10.9174 17.6098L11.2424 20.2598ZM12.2924 15.7598C13.259 15.7598 14.084 15.4181 14.7674 14.7348C15.4507 14.0514 15.7924 13.2264 15.7924 12.2598C15.7924 11.2931 15.4507 10.4681 14.7674 9.78477C14.084 9.10143 13.259 8.75977 12.2924 8.75977C11.309 8.75977 10.4799 9.10143 9.80488 9.78477C9.12988 10.4681 8.79238 11.2931 8.79238 12.2598C8.79238 13.2264 9.12988 14.0514 9.80488 14.7348C10.4799 15.4181 11.309 15.7598 12.2924 15.7598Z" fill="#1C1B1F"/>
</g>
</svg>
