<svg width="120" height="183" viewBox="0 0 120 183" fill="none" xmlns="http://www.w3.org/2000/svg">
<path d="M57.451 75.3674C50.16 93.7927 50.728 119.082 47.968 138.667C45.869 153.569 44.119 168.234 42.588 182.857C50.537 182.874 64.291 179.183 71.508 182.084C72.42 163.973 67.855 145.662 66.913 127.589C66.106 112.097 71.78 87.4355 66.125 73.7842L57.451 75.3674Z" fill="#7E100E"/>
<path d="M104.658 98.8795C103.955 91.6414 98.363 81.5088 90.858 74.1995C99.97 75.0513 108.416 71.2607 119.387 64.2906C114.843 58.9297 104.997 53.9602 95.011 52.1041C101.774 46.2958 105.041 37.7454 107.908 25.3331C104.981 25.0753 101.437 25.5308 97.692 26.5602C100.683 21.3068 102.563 14.7219 104.211 6.44941C97.124 6.04406 86.586 9.85471 78.31 15.9449C78.036 11.2052 77.013 5.98789 75.48 0C69.365 2.53643 62.132 9.68417 57.276 18.0078C56.021 13.9905 53.912 9.74434 51.128 4.90827C46.56 8.4972 42.134 16.4657 40.237 24.681C34.113 23.7519 27.155 24.4844 18.618 26.1358C20.683 32.1659 26.917 39.4862 34.478 44.8179C25.047 43.2055 16.242 46.654 4.59698 53.4044C8.98098 59.0211 18.825 64.4551 28.87 66.6615C16.908 67.6026 9.343 74.6008 0 87.2368C7.567 91.3645 22.379 92.0488 33.714 88.0495C31.904 93.8017 31.448 100.616 31.566 109.022C41.486 107.473 56.401 96.2197 61.618 84.0232C63.979 97.1157 72.197 103.804 86.962 111.451C88.286 107.649 88.614 102.403 88.015 96.8196C92.756 98.0367 98.23 98.6005 104.658 98.8795Z" fill="#549F2F"/>
</svg>
