<svg width="126" height="202" viewBox="0 0 126 202" fill="none" xmlns="http://www.w3.org/2000/svg">
<path d="M0.452394 47.4363C-1.20161 54.1576 1.80639 60.9361 7.40839 64.3455C1.98939 68.0458 -0.662573 74.9728 1.33643 81.5978C3.33743 88.2238 9.37441 92.51 15.9284 92.5702C13.1534 98.528 14.4014 105.841 19.4944 110.512C24.5874 115.182 31.9594 115.772 37.6224 112.465C38.2714 119.009 43.0674 124.657 49.8234 126.062C54.3144 126.995 58.7424 125.849 62.1504 123.298C65.4974 125.928 69.8984 127.18 74.4104 126.354C81.1974 125.111 86.1254 119.577 86.9274 113.052C92.5114 116.495 99.8954 116.078 105.099 111.528C110.3 106.981 111.719 99.6999 109.085 93.6779C115.639 93.7752 121.774 89.6325 123.931 83.0556C126.088 76.4808 123.6 69.4916 118.27 65.6678C123.952 62.39 127.118 55.6847 125.624 48.9252C124.13 42.1668 118.432 37.4351 111.902 36.8792C115.119 31.1492 114.425 23.7606 109.699 18.7169C104.971 13.6731 97.6674 12.5263 91.7694 15.3958C91.6174 8.82198 87.2594 2.82606 80.6274 0.912706C73.9974 -1.00065 67.1314 1.75753 63.5234 7.24677C60.0444 1.67425 53.2464 -1.24546 46.5714 0.507368C39.8974 2.2622 35.3994 8.15278 35.0914 14.7206C29.2644 11.7126 21.9334 12.6878 17.0874 17.6172C12.2424 22.5466 11.3774 29.9141 14.4564 35.7194C7.91442 36.1187 2.10639 40.716 0.452394 47.4363Z" fill="#9CA348"/>
<path d="M54.3174 198.702C56.4494 202.263 64.9083 202.6 68.8733 200.53C73.0003 198.377 71.2443 189.643 70.8403 184.668C69.9563 173.751 67.0794 162.769 66.5674 151.927C66.1544 143.188 65.6034 135.135 65.0024 126.592C64.7314 122.756 63.1133 119.29 65.3553 115.85C67.4173 112.686 72.0333 110.075 74.8233 107.712C81.0303 102.453 94.8173 89.4263 90.6413 80.3823C83.5503 83.6361 80.0733 93.2028 74.8333 98.8335C70.4773 103.514 69.1483 101.766 70.9374 95.7644C72.7204 89.7795 74.7473 84.0424 75.6973 77.7254C76.0333 75.484 78.0893 63.5704 73.7143 64.3018C69.9223 64.9349 67.8604 75.9254 67.4424 78.817C66.7394 83.6852 68.4883 98.8767 62.6683 100.696C58.0023 95.8627 59.6923 86.3561 57.8373 80.2669C56.9023 77.2007 50.1803 62.3554 45.9193 68.6142C43.3103 72.4469 49.1733 81.8331 50.8093 85.2033C53.5683 90.8882 56.2483 96.6844 55.7023 103.13C49.6153 103.294 44.9284 93.3202 39.2914 93.9242C32.6054 94.6406 41.6783 103.292 44.2173 105.181C47.6963 107.768 52.9633 108.304 55.4093 111.855C57.2133 114.474 57.2313 120.458 57.2303 123.668C57.2273 132.836 56.7453 142.018 56.7463 151.451C56.7483 162.144 58.1773 172.094 56.1263 182.647C55.5863 185.424 54.5124 189.261 54.3174 191.39C54.1534 193.213 53.3794 197.135 54.3174 198.702Z" fill="#391E04"/>
</svg>
