<svg width="154" height="201" viewBox="0 0 154 201" fill="none" xmlns="http://www.w3.org/2000/svg">
<path d="M153.442 68.1163C153.283 63.7819 152.683 62.5879 150.967 58.7552C150.246 57.1448 148.946 55.7884 147.782 54.5001C146.903 53.5259 145.857 52.6539 144.731 51.9355C145.675 49.7904 146.192 47.4597 146.192 45.0858C146.192 40.6019 144.397 36.2514 141.238 33.0839L140.031 31.8719C136.872 28.7044 132.537 26.9014 128.069 26.9014C127.827 26.9014 127.588 26.9265 127.348 26.9375C125.238 19.9704 118.714 14.7791 111.154 14.7791C110.075 14.7791 109.019 14.8885 107.993 15.0932C108.023 7.55714 103.198 0 93.512 0C88.985 0 85.533 1.6605 83.13 4.1889C80.726 1.66151 77.275 0 72.749 0C67.97 0 64.386 1.84615 61.976 4.61635C59.561 1.84514 55.968 0 51.187 0C46.731 0 43.316 1.61037 40.917 4.07255C37.029 4.04345 33.131 5.48425 30.217 8.40696C27.764 10.8681 26.363 14.0346 25.997 17.3055C22.177 17.7178 18.562 19.4316 15.828 22.1747C12.671 25.3432 10.874 29.6927 10.874 34.1756V35.3876C10.874 36.9407 11.103 38.4749 11.516 39.9518C4.88 42.2554 0 48.6336 0 55.9951C0 61.6649 2.897 66.7497 7.256 69.845C4.991 72.7306 3.625 76.3476 3.625 80.2386C3.625 88.2823 9.442 95.1612 17.021 96.8237C16.179 98.8163 15.706 100.995 15.706 103.271C15.706 111.05 21.154 117.726 28.368 119.662C30.296 126.899 36.95 132.365 44.703 132.365C45.526 132.365 46.33 132.283 47.125 132.164C47.124 132.23 47.119 132.297 47.119 132.364C47.119 141.615 54.813 149.335 64.035 149.335C67.967 149.335 71.613 147.923 74.507 145.596C76.501 146.44 78.677 146.911 80.949 146.911C85.932 146.911 90.459 144.644 93.576 141.11C95.333 141.722 97.186 142.064 99.072 142.064C102.628 142.064 106.089 140.906 108.95 138.843C115.041 136.882 119.71 131.493 120.638 125.024C120.657 125.005 120.679 124.989 120.698 124.97C122.25 123.411 123.469 121.565 124.312 119.561C127.032 118.768 129.545 117.305 131.571 115.273C133.909 112.925 135.496 109.93 136.164 106.714C136.196 106.686 136.222 106.664 136.253 106.636C137.608 105.436 139.186 103.036 140.081 100.901C146.421 98.439 151.025 92.2355 151.025 85.0887C151.025 82.8392 150.562 80.6821 149.74 78.7015C152.092 75.7386 153.578 71.8848 153.442 68.1163Z" fill="#518F49"/>
<path d="M101.023 112.623C110.731 113.069 121.317 102.77 120.357 92.8568C120.177 90.9946 117.255 90.9775 117.438 92.8568C118.248 101.215 109.371 109.909 101.188 109.695C101.432 104.578 101.418 99.4336 101.17 94.3287C101.06 92.0511 101.293 87.0374 98.84 85.7371C97.178 84.8552 95.702 87.3836 97.367 88.2645C98.734 88.9909 98.322 95.8236 98.372 97.2243C98.459 99.8018 98.453 102.384 98.399 104.965C93.97 104.916 91.304 100.817 90.025 96.8601C89.448 95.0741 86.63 95.8356 87.212 97.6376C88.86 102.745 92.578 107.925 98.319 107.897C98.285 108.893 98.247 109.889 98.202 110.886C97.627 123.85 91.112 134.715 78.795 139.131C78.851 137.503 78.891 135.881 78.891 134.265C78.891 112.256 81.802 85.7712 73.974 65.3313C70.187 79.9429 70.659 97.8684 69.292 113.355C69.29 113.355 69.286 113.352 69.284 113.352C53.536 112.4 49.444 98.652 48.072 84.6966C48.071 84.6766 48.066 84.6575 48.065 84.6364C47.438 78.2241 47.383 71.7727 47.032 66.5032C46.908 64.63 43.988 64.6179 44.113 66.5032C44.438 71.3954 44.595 77.0372 45.098 82.7241C41.329 81.3195 37.945 79.1833 36.253 75.2814C35.504 73.5536 32.99 75.0456 33.734 76.7593C35.877 81.7007 40.536 84.3144 45.418 85.9278C46.344 93.9966 48.194 101.879 52.415 107.606C48.573 110.133 43.674 109.875 39.394 108.647C37.582 108.129 36.813 110.953 38.619 111.471C43.741 112.939 49.816 113.145 54.312 109.873C57.769 113.444 62.502 115.812 69.048 116.259C66.856 141.553 71.049 171.811 63.326 195.827C63.326 195.827 67.471 199.267 69.163 199.73C71.383 200.336 76.517 201.318 76.795 198.607C77.57 191.022 77.665 161.09 78.664 142.262C82.239 141.107 85.442 139.419 88.251 137.321C88.362 137.372 88.456 137.434 88.596 137.459C96.414 138.831 104.15 135.306 108.118 128.369C109.056 126.726 106.534 125.251 105.598 126.89C102.63 132.079 97.08 135.147 91.214 134.833C96.889 129.375 100.352 121.871 100.981 113.331C101 113.095 101.007 112.857 101.023 112.623Z" fill="#683B27"/>
</svg>
