<svg width="28" height="39" viewBox="0 0 28 39" fill="none" xmlns="http://www.w3.org/2000/svg">
<path fill-rule="evenodd" clip-rule="evenodd" d="M0 38.5723H27.4286V22.405C27.4309 20.6766 26.76 19.1956 25.416 17.9622C24.072 16.7288 22.4571 16.1121 20.5714 16.1121H6.85714C4.97371 16.1142 3.36 16.7309 2.016 17.9622C0.672001 19.1935 0 20.6745 0 22.405V38.5723ZM8.87315 11.1187C10.2149 12.35 11.8286 12.9657 13.7143 12.9657C15.6023 12.9678 17.2171 12.3521 18.5589 11.1187C19.9006 9.8853 20.5714 8.40333 20.5714 6.67278C20.5737 4.94433 19.9029 3.4634 18.5589 2.22999C17.2149 0.996587 15.6 0.379883 13.7143 0.379883C11.8309 0.38198 10.2171 0.998684 8.87315 2.22999C7.52915 3.4613 6.85714 4.94223 6.85714 6.67278C6.85943 8.40542 7.53143 9.8874 8.87315 11.1187Z" fill="#253564"/>
</svg>
