<svg width="460" height="240" viewBox="0 0 460 240" fill="none" xmlns="http://www.w3.org/2000/svg">
<path d="M434.738 51.1531H434.685V35.9036H429.134V23.3284H394.717V35.9036H389.443V66.6298H381.533V56.6151H360.162V66.6298H353.421V38.8623H349.535V33.9686H332.604V38.8623H321.965V58.2241H303.354V22.8604H299.485V15.2676H279.826V22.8604H275.957V44.3248H272.717V36.2164H257V44.3248H248.118V63.4433H236.276V51.1531H229.892V44.3248H234.749L234.333 43.0729L218.513 37.1268L202.692 43.0729L202.275 44.3248H207.133V51.1531H197.14V35.9036H191.59V23.3284H157.173V35.9036H151.899V66.6298H143.989V56.6151H122.617V66.6298H115.876V38.8623H111.99V33.9686H95.0595V38.8623H84.4201V58.2241H65.8096V22.8604H61.9409V15.2676H42.2808V22.8604H38.4121V114.806H56.6771H65.8096H84.4201H92.1916H114.707H115.876H151.899H197.14H229.892H236.276H248.118H263.476H275.957H277.724H294.222H303.354H321.965H329.736H352.252H353.421H389.443H434.685H434.738V51.1531Z" fill="#E6F3F9"/>
<path d="M434.738 115.081H38.4121V158.234H434.738V115.081Z" fill="#C7F4CA"/>
<path d="M140.438 55.958C140.438 55.958 133.679 56.299 132.428 64.1408C131.176 71.9831 126.545 70.8465 125.168 79.1429C123.792 87.4393 130.675 90.622 130.675 90.622C130.675 90.622 130.049 93.804 133.429 98.5774C136.808 103.351 144.495 103.468 144.495 103.468C144.495 103.468 156.882 105.059 161.005 94.3724C164.184 86.1347 158.445 77.0969 158.445 77.0969C158.445 77.0969 159.462 52.7759 140.438 55.958Z" fill="#C6F3C9"/>
<path d="M139.988 122.033H148.247C148.247 122.033 144.322 98.0824 145.891 82.2314C145.891 82.2314 151.711 78.3102 152.274 77.4009C152.837 76.4916 145.64 80.7538 145.64 80.7538C145.64 80.7538 145.839 76.094 146.146 75.2984C146.146 75.2984 149.332 72.23 149.895 70.8089C150.458 69.3884 145.014 74.673 145.014 74.673C145.014 74.673 140.133 71.3201 139.195 71.3201C138.256 71.3201 143.763 75.1842 144.076 75.6959C144.388 76.2077 143.476 80.3557 143.476 80.3557C143.476 80.3557 138.945 77.5711 137.13 77.6848C135.315 77.7985 142.386 80.8669 142.699 81.3786C143.012 81.8904 145.412 112.49 139.988 122.033Z" fill="#766A5A"/>
<path d="M38.1309 153.749H81.2288C81.2288 153.749 80.9523 144.214 72.9396 141.203C64.9263 138.192 60.8268 143.963 60.8268 143.963C60.8268 143.963 58.1708 136.937 48.5621 137.941C38.9533 138.945 38.1376 150.487 38.1309 153.749Z" fill="#79BA80"/>
<path d="M246.302 153.749H289.4C289.4 153.749 289.124 144.214 281.111 141.203C273.098 138.192 268.998 143.963 268.998 143.963C268.998 143.963 266.342 136.937 256.733 137.941C247.125 138.945 246.308 150.487 246.302 153.749Z" fill="#79BA80"/>
<path d="M376.173 153.749H419.271C419.271 153.749 418.994 144.214 410.982 141.203C402.969 138.192 398.869 143.963 398.869 143.963C398.869 143.963 396.212 136.937 386.604 137.941C376.995 138.945 376.179 150.487 376.173 153.749Z" fill="#79BA80"/>
<path d="M47.5047 24.918C43.528 28.3607 43.2306 30.6767 42.1352 44.128C41.0392 57.5793 32.2975 51.8018 29.0101 66.0154C25.7228 80.2291 30.928 84.3954 30.928 84.3954C30.928 84.3954 19.9705 105.471 46.5424 111.352C73.1144 117.234 84.078 101.066 83.9754 88.8061C83.8728 76.5464 74.5407 58.8739 75.6715 47.8806C76.881 36.1176 65.1401 9.65026 47.5047 24.918Z" fill="#AEE9B3"/>
<path d="M45.6285 72.0597C45.6285 72.0597 49.281 74.0203 52.3858 83.6597C55.4906 93.299 47.0896 153.748 47.0896 153.748H58.4122C58.4122 153.748 55.49 97.0566 56.2209 84.9671C56.9511 72.877 69.1872 70.1967 69.3698 67.7793C69.5523 65.3618 58.6571 71.8973 56.8907 75.3277C56.8907 75.3277 57.9861 64.0549 65.139 58.9899C72.292 53.9254 59.1449 57.2894 55.9479 67.7787C55.9479 67.7787 54.3946 61.2771 48.0024 59.8066C41.6102 58.3362 49.4635 61.6524 52.2026 66.4474C54.9423 71.243 54.0289 79.7385 54.0289 79.7385C54.0289 79.7385 50.2365 70.4263 45.5583 68.6287C40.88 66.8317 45.6285 72.0597 45.6285 72.0597Z" fill="#766A5A"/>
<path d="M415.533 24.918C411.556 28.3607 411.258 30.6767 410.163 44.128C409.067 57.5793 400.325 51.8018 397.038 66.0154C393.751 80.2291 398.956 84.3954 398.956 84.3954C398.956 84.3954 387.998 105.471 414.57 111.352C441.142 117.234 452.106 101.066 452.003 88.8061C451.901 76.5464 442.569 58.8739 443.699 47.8806C444.909 36.1176 433.168 9.65026 415.533 24.918Z" fill="#AEE9B3"/>
<path d="M413.657 72.0597C413.657 72.0597 417.31 74.0203 420.414 83.6597C423.519 93.299 415.118 153.748 415.118 153.748H426.441C426.441 153.748 423.519 97.0566 424.249 84.9671C424.98 72.877 437.216 70.1967 437.398 67.7793C437.581 65.3618 426.686 71.8973 424.919 75.3277C424.919 75.3277 426.015 64.0549 433.168 58.9899C440.321 53.9254 427.173 57.2894 423.976 67.7787C423.976 67.7787 422.423 61.2771 416.031 59.8066C409.639 58.3362 417.492 61.6524 420.231 66.4474C422.971 71.243 422.057 79.7385 422.057 79.7385C422.057 79.7385 418.265 70.4263 413.587 68.6287C408.909 66.8317 413.657 72.0597 413.657 72.0597Z" fill="#766A5A"/>
<path d="M226.24 0.574974C226.24 0.574974 212.705 1.25752 210.199 16.9627C207.692 32.6674 198.419 30.3913 195.661 47.0064C192.905 63.6214 206.69 69.9945 206.69 69.9945C206.69 69.9945 205.437 76.3675 212.204 85.927C218.971 95.4865 234.365 95.7199 234.365 95.7199C234.365 95.7199 259.171 98.9064 267.428 77.5058C273.793 61.0088 262.301 42.91 262.301 42.91C262.301 42.91 264.337 -5.79804 226.24 0.574974Z" fill="#AEE9B3"/>
<path d="M225.338 132.897H241.879C241.879 132.897 234.018 84.9324 237.159 53.1887C237.159 53.1887 248.813 45.3364 249.941 43.5156C251.069 41.6947 236.657 50.2296 236.657 50.2296C236.657 50.2296 237.056 40.8979 237.671 39.3044C237.671 39.3044 244.051 33.1593 245.179 30.3138C246.307 27.4688 235.404 38.0524 235.404 38.0524C235.404 38.0524 225.63 31.3379 223.75 31.3379C221.87 31.3379 232.898 39.0765 233.524 40.1006C234.151 41.1247 232.323 49.4322 232.323 49.4322C232.323 49.4322 223.248 43.856 219.614 44.0833C215.98 44.3107 230.141 50.4563 230.768 51.4804C231.393 52.5062 236.201 113.787 225.338 132.897Z" fill="#766A5A"/>
<path d="M38.5523 153.867C33.2977 161.655 30.2661 170.815 30.2661 180.618C30.2661 208.937 55.5473 231.895 86.7328 231.895H386.855C418.04 231.895 443.322 208.937 443.322 180.618C443.322 170.815 440.291 161.655 435.035 153.867H38.5523Z" fill="#AAE2B0"/>
<path d="M385.674 206.022H424.768C424.768 206.022 424.518 197.373 417.249 194.642C409.981 191.911 406.261 197.145 406.261 197.145C406.261 197.145 403.851 190.772 395.136 191.683C386.42 192.593 385.679 203.063 385.674 206.022Z" fill="#79BA80"/>
<path d="M413.041 240H452.135C452.135 240 451.885 231.351 444.616 228.619C437.347 225.888 433.628 231.123 433.628 231.123C433.628 231.123 431.218 224.75 422.503 225.66C413.787 226.571 413.046 237.041 413.041 240Z" fill="#79BA80"/>
<path d="M85.1797 224.995H114.812C114.812 224.995 114.622 218.44 109.113 216.369C103.603 214.299 100.785 218.267 100.785 218.267C100.785 218.267 98.9587 213.437 92.3522 214.127C85.7451 214.816 85.184 222.752 85.1797 224.995Z" fill="#79BA80"/>
<path d="M0 219.021H29.6322C29.6322 219.021 29.4423 212.465 23.933 210.395C18.4237 208.324 15.6053 212.293 15.6053 212.293C15.6053 212.293 13.779 207.462 7.17251 208.152C0.565396 208.842 0.00427408 216.778 0 219.021Z" fill="#79BA80"/>
<path d="M45.0078 181.142H62.1206C62.1206 181.142 62.0107 177.356 58.829 176.16C55.6472 174.965 54.0194 177.256 54.0194 177.256C54.0194 177.256 52.9643 174.467 49.1494 174.865C45.3345 175.264 45.0103 179.846 45.0078 181.142Z" fill="#79BA80"/>
<path d="M442.887 198.663H460C460 198.663 459.89 194.877 456.708 193.682C453.527 192.486 451.899 194.778 451.899 194.778C451.899 194.778 450.844 191.988 447.029 192.387C443.214 192.785 442.89 197.368 442.887 198.663Z" fill="#79BA80"/>
<path d="M184.844 175.915H201.957C201.957 175.915 201.847 172.129 198.665 170.934C195.484 169.738 193.856 172.03 193.856 172.03C193.856 172.03 192.801 169.24 188.986 169.638C185.171 170.037 184.847 174.62 184.844 175.915Z" fill="#79BA80"/>
<path d="M270.625 211.897H287.737C287.737 211.897 287.627 208.112 284.446 206.916C281.264 205.721 279.636 208.012 279.636 208.012C279.636 208.012 278.581 205.223 274.766 205.621C270.952 206.019 270.628 210.602 270.625 211.897Z" fill="#79BA80"/>
<path d="M281.829 80.3398H279.181V154.759H281.829V80.3398Z" fill="#9C897A"/>
<path d="M415.518 80.3398H412.869V154.759H415.518V80.3398Z" fill="#9C897A"/>
<path d="M423.973 66.3148V80.3372H270.869V66.3148C304.781 66.3148 346.765 49.9969 347.418 49.7419C347.424 49.7363 347.424 49.7363 347.424 49.7363C347.424 49.7363 389.792 66.3148 423.973 66.3148Z" fill="#FF973B"/>
<path d="M412.87 94.4961H281.83V96.317H412.87V94.4961Z" fill="#9C897A"/>
<path d="M311.973 110.699C311.973 118.315 308.779 133.189 308.779 133.189H300.527L299.118 97.9691L299.065 96.3174H310.908C310.908 96.3174 311.002 96.9173 311.137 97.9691C311.446 100.434 311.973 105.357 311.973 110.699Z" fill="#FF7F9A"/>
<path d="M311.137 97.9691H299.118L299.066 96.3174H310.909C310.909 96.3174 311.002 96.9179 311.137 97.9691Z" fill="#FF7F9A"/>
<path d="M303.232 94.5391H304.028C304.028 94.5391 303.983 94.0174 304.537 94.0174C305.089 94.0174 304.927 96.426 304.927 96.426H305.708C305.708 96.426 306.106 93.7962 305.089 93.3748C304.072 92.9534 303.365 93.7363 303.232 94.5391Z" fill="#5E4F45"/>
<path d="M352.728 110.699C352.728 118.315 349.535 143.09 349.535 143.09H341.283L339.874 97.9701L339.821 96.3184H351.664C351.664 96.3184 351.758 96.9183 351.892 97.9701C352.202 100.434 352.728 105.357 352.728 110.699Z" fill="#FF7F9A"/>
<path d="M351.892 97.9691H339.874L339.821 96.3174H351.664C351.664 96.3174 351.758 96.9179 351.892 97.9691Z" fill="#FF7F9A"/>
<path d="M343.988 94.5391H344.783C344.783 94.5391 344.739 94.0174 345.292 94.0174C345.845 94.0174 345.682 96.426 345.682 96.426H346.464C346.464 96.426 346.862 93.7962 345.845 93.3748C344.828 92.9534 344.121 93.7363 343.988 94.5391Z" fill="#5E4F45"/>
<path d="M300.405 110.699C300.405 118.315 297.212 143.09 297.212 143.09H288.96L287.551 97.9701L287.498 96.3184H299.341C299.341 96.3184 299.434 96.9183 299.569 97.9701C299.879 100.434 300.405 105.357 300.405 110.699Z" fill="#6A80EF"/>
<path d="M299.569 97.9691H287.551L287.498 96.3174H299.341C299.341 96.3174 299.434 96.9179 299.569 97.9691Z" fill="#5974D8"/>
<path d="M291.665 94.5391H292.461C292.461 94.5391 292.417 94.0174 292.969 94.0174C293.522 94.0174 293.359 96.426 293.359 96.426H294.141C294.141 96.426 294.539 93.7962 293.522 93.3748C292.505 92.9534 291.798 93.7363 291.665 94.5391Z" fill="#5E4F45"/>
<path d="M343.98 110.699C343.98 118.315 341.235 135.617 341.235 135.617H332.983L331.126 97.9691L331.073 96.3174H342.916C342.916 96.3174 343.01 96.9173 343.144 97.9691C343.454 100.434 343.98 105.357 343.98 110.699Z" fill="#6A80EF"/>
<path d="M343.144 97.9691H331.126L331.073 96.3174H342.916C342.916 96.3174 343.01 96.9179 343.144 97.9691Z" fill="#5974D8"/>
<path d="M335.24 94.5391H336.035C336.035 94.5391 335.991 94.0174 336.544 94.0174C337.097 94.0174 336.934 96.426 336.934 96.426H337.716C337.716 96.426 338.114 93.7962 337.097 93.3748C336.08 92.9534 335.373 93.7363 335.24 94.5391Z" fill="#5E4F45"/>
<path d="M333.626 110.699C333.626 118.315 330.433 143.09 330.433 143.09H322.18L320.771 97.9701L320.719 96.3184H332.562C332.562 96.3184 332.655 96.9183 332.79 97.9701C333.1 100.434 333.626 105.357 333.626 110.699Z" fill="white"/>
<path d="M332.79 97.9691H320.772L320.719 96.3174H332.562C332.562 96.3174 332.655 96.9179 332.79 97.9691Z" fill="#ECECEC"/>
<path d="M324.886 94.5391H325.682C325.682 94.5391 325.638 94.0174 326.19 94.0174C326.743 94.0174 326.581 96.426 326.581 96.426H327.362C327.362 96.426 327.76 93.7962 326.743 93.3748C325.726 92.9534 325.019 93.7363 324.886 94.5391Z" fill="#5E4F45"/>
<path d="M313.853 94.5391H314.649C314.649 94.5391 314.605 94.0174 315.157 94.0174C315.71 94.0174 315.547 96.426 315.547 96.426H316.329C316.329 96.426 316.727 93.7962 315.71 93.3748C314.693 92.9534 313.986 93.7363 313.853 94.5391Z" fill="#5E4F45"/>
<path d="M322.593 110.699C322.593 118.315 322.593 143.09 322.593 143.09H308.047L309.738 97.9701L309.686 96.3184H321.529C321.529 96.3184 321.622 96.9183 321.757 97.9701C322.066 100.434 322.593 105.357 322.593 110.699Z" fill="#C4AAFF"/>
<path d="M321.757 97.9691H309.739L309.687 96.3174H321.529C321.529 96.3174 321.622 96.9179 321.757 97.9691Z" fill="#AE9AEF"/>
<path d="M387.543 96.8865L391.553 99.5041L394.999 96.7656C394.999 96.7656 399.198 97.1144 401.328 99.7315C403.458 102.349 404.336 117.485 404.336 117.485H400.325V126.703H384.41V117.599H380.525C380.525 117.599 380.023 107.242 381.026 102.463C382.029 97.6827 387.543 96.8865 387.543 96.8865Z" fill="#C4AAFF"/>
<path d="M391.629 96.004C391.694 95.2433 391.725 93.6903 390.964 93.3748C389.947 92.9534 389.24 93.7363 389.107 94.5391H389.903C389.903 94.5391 389.859 94.0174 390.412 94.0174C390.816 94.0174 390.838 95.3015 390.82 95.9941L387.675 96.9727L388.473 97.4933L391.104 96.63L394.136 97.4517L394.715 96.9915L391.629 96.004Z" fill="#5E4F45"/>
<path d="M363.089 98.5141L355.617 119.847C355.617 119.847 355.617 120.701 357.497 120.815C359.377 120.928 359.001 122.294 361.757 122.408L359.94 144.941C359.94 144.941 364.515 146.875 368.274 145.737C372.033 144.6 374.916 146.227 378.926 146.096C382.937 145.965 386.07 145.055 386.07 145.055L382.31 122.636C382.31 122.636 384.064 122.689 385.568 121.695C387.072 120.701 388.2 120.587 388.2 120.587C388.2 120.587 382.216 98.3944 380.712 97.5688C379.208 96.7432 374.791 96.4609 374.791 96.4609L371.908 99.8748L369.652 96.4609C369.652 96.4609 363.715 96.8796 363.089 98.5141Z" fill="#FF7F9A"/>
<path d="M372.622 96.004C372.686 95.2433 372.718 93.6903 371.957 93.3748C370.94 92.9534 370.232 93.7363 370.1 94.5391H370.895C370.895 94.5391 370.851 94.0174 371.404 94.0174C371.808 94.0174 371.83 95.3015 371.812 95.9941L369.75 96.6095L370.1 97.1379L372.096 96.6306L374.22 97.1379L374.618 96.6666L372.622 96.004Z" fill="#5E4F45"/>
<path d="M347.418 49.7422C347.265 50.0028 337.123 66.9916 313.854 68.8767C290.402 70.7786 270.869 66.3151 270.869 66.3151C304.781 66.3151 346.765 49.9972 347.418 49.7422Z" fill="#FCB17E"/>
<path d="M347.079 49.7422C347.232 50.0028 357.374 66.9916 380.643 68.8767C404.095 70.7786 423.628 66.3151 423.628 66.3151C389.716 66.3151 347.732 49.9972 347.079 49.7422Z" fill="#DB813E"/>
<path d="M427.861 170.423C427.861 172.473 420.859 174.135 412.221 174.135C403.584 174.135 396.582 172.473 396.582 170.423C396.582 168.373 403.584 166.711 412.221 166.711C420.859 166.711 427.861 168.373 427.861 170.423Z" fill="#93CC97"/>
<path d="M417.487 114.426C417.487 114.426 417.539 114.55 417.627 114.773C418.165 116.149 420.048 121.291 419.333 124.178C418.503 127.532 415.335 128.354 415.335 128.354C415.335 128.354 413.558 116.847 417.54 114.55" fill="#FFD0BB"/>
<path d="M408.184 154.08H401.918L404.95 167.184L402.404 169.123C402.404 169.123 406.955 169.312 407.545 169.123C407.955 168.992 407.629 167.86 407.391 167.178C407.822 164.715 409.135 156.587 408.184 154.08Z" fill="#FFD0BB"/>
<path d="M402.648 168.651C402.648 168.651 400.39 169.723 400.077 170.07C399.765 170.417 401.745 170.796 403.377 170.796C405.01 170.796 405.947 170.196 405.947 170.196C405.947 170.196 407.719 170.732 408.101 170.575C408.483 170.417 407.922 167.864 407.578 167.768C407.233 167.673 405.739 168.651 404.732 168.808C403.724 168.966 402.648 168.651 402.648 168.651Z" fill="#FF8855"/>
<path d="M418.394 153.595L412.222 154.577L417.699 167.009L415.56 169.318C415.56 169.318 420.078 168.791 420.624 168.512C421.002 168.319 420.466 167.255 420.102 166.62C420.058 164.127 419.806 155.915 418.394 153.595Z" fill="#FFD0BB"/>
<path d="M415.709 168.813C415.709 168.813 413.689 170.223 413.447 170.614C413.205 171.004 415.227 171.067 416.835 170.811C418.443 170.555 419.253 169.818 419.253 169.818C419.253 169.818 421.1 170.069 421.446 169.853C421.792 169.638 420.755 167.211 420.397 167.171C420.04 167.131 418.754 168.329 417.792 168.641C416.83 168.955 415.709 168.813 415.709 168.813Z" fill="#FF8855"/>
<path d="M407.862 111.098C407.862 111.098 403.488 112.597 402.658 115.611C401.829 118.626 403.337 123.765 406.506 127.328L415.108 126.78C415.108 126.78 418.578 117.188 417.371 114.036C416.164 110.883 409.657 110.265 407.862 111.098Z" fill="#5974D8"/>
<path d="M404.247 104.481L410.928 104.759L410.669 109.905L411.372 112.304L408.191 112.566L407.862 111.098C407.862 111.098 405.817 111.481 404.615 109.436C403.414 107.39 404.247 104.481 404.247 104.481Z" fill="#FFD0BB"/>
<path d="M400.527 123.842C400.527 123.842 401.602 125.974 401.602 127.927L402.621 127.67C402.621 127.67 401.658 124.356 401.178 123.842C400.697 123.328 400.527 123.842 400.527 123.842Z" fill="#FF8855"/>
<path d="M404.247 104.481C404.247 104.481 404.827 106.601 406.299 107.166C407.77 107.732 408.756 108.194 407.668 110.814C406.581 113.435 407.6 114.514 409.863 115.028C412.127 115.542 414.899 113.744 414.39 111.123C413.881 108.502 411.9 107.217 411.731 105.624C411.561 104.031 409.467 103.157 406.92 103.157C404.375 103.158 404.247 104.481 404.247 104.481Z" fill="#493B33"/>
<path d="M414.188 104.001C414.188 105.477 411.05 106.327 407.45 106.327C403.849 106.327 401.15 105.477 401.15 104.001C401.15 103.157 403.208 102.387 406.809 102.387C410.409 102.387 414.188 102.526 414.188 104.001Z" fill="white"/>
<path d="M403.965 103.518C403.965 103.518 404.042 100.674 407.411 100.297C410.78 99.9202 411.523 103.518 411.523 103.518C411.523 103.518 407.31 105.437 403.965 103.518Z" fill="white"/>
<path d="M406.86 125.105C406.86 125.105 402.456 127.891 399.915 135.878C397.374 143.865 398.395 153.527 398.395 153.527C398.395 153.527 402.183 156.163 405.13 155.171C408.078 154.18 409.37 157.186 413.271 156.596C417.173 156.005 417.48 154.694 419.693 155.169C421.907 155.644 424.554 153.165 424.554 153.165C424.554 153.165 424.54 139.238 421.306 133.264C418.072 127.29 414.152 125.987 414.152 125.987L406.86 125.105Z" fill="#5974D8"/>
<path d="M407.583 116.345C406.989 114.292 403.951 113.87 402.545 115.567C401.049 117.374 399.003 119.627 397.773 120.065C395.661 120.818 388.719 117.461 388.719 117.461L388.115 118.763C388.115 118.763 392.416 124.038 398.377 124.175C404.337 124.312 407.431 119.257 407.657 117.126C407.686 116.86 407.656 116.599 407.583 116.345Z" fill="#FFD0BB"/>
<path d="M389.152 117.932C389.152 117.932 388.304 116.391 387.625 115.928C386.946 115.466 386.133 115.324 385.983 115.491C385.834 115.658 386.861 116.108 386.861 116.108C386.861 116.108 385.87 115.928 385.644 116.159C385.417 116.391 386.238 116.519 386.238 116.519C386.238 116.519 385.332 116.622 385.361 116.905C385.389 117.187 386.068 117.033 386.068 117.033C386.068 117.033 385.274 117.444 385.36 117.676C385.445 117.907 386.124 117.65 386.124 117.65C386.124 117.65 386.832 118.704 387.539 119.038C388.247 119.371 388.926 119.243 388.926 119.243L389.152 117.932Z" fill="#FFD0BB"/>
<path d="M395.943 128.011C395.943 128.011 402.96 126.915 405.45 127.737C407.94 128.56 408.468 134.658 408.468 134.658C408.468 134.658 409.134 135.549 407.745 136.234C406.356 136.919 396.17 136.987 394.359 136.507C392.548 136.028 393.68 134.52 393.68 134.52C393.68 134.52 392.925 129.039 395.943 128.011Z" fill="#FF8855"/>
<path d="M397.074 128.355C397.074 128.355 396.266 121.075 397.774 120.064C397.774 120.064 397.678 127.438 398.584 128.856L397.074 128.355Z" fill="#FF8855"/>
<path d="M273.293 167.64C281.93 167.64 288.932 165.978 288.932 163.928C288.932 161.878 281.93 160.216 273.293 160.216C264.655 160.216 257.653 161.878 257.653 163.928C257.653 165.978 264.655 167.64 273.293 167.64Z" fill="#93CC97"/>
<path d="M263.941 127.679C263.941 127.679 260.343 131.026 260.844 136.375C261.345 141.724 264.854 158.499 264.854 158.499H268.675L269.538 135.616L277.511 158.499H280.785C280.785 158.499 280.142 148.21 277.887 139.561C275.631 130.912 271.815 127.619 271.815 127.619L263.941 127.679Z" fill="#5974D8"/>
<path d="M272.921 124.141C273.854 120.93 274.93 116.395 274.192 114.577C272.993 111.63 267.985 110.477 267.985 110.477C267.985 110.477 265.66 110.438 262.812 112.464C261.316 113.528 262.473 120.581 263.298 124.7C262.496 126.435 260.069 131.844 259.34 135.294C259.34 135.294 260.071 136.489 263.559 135.294C267.048 134.1 266.901 127.68 266.901 127.68L266.88 127.658L270.368 127.631C270.368 127.631 270.368 132.677 273.314 134.327C276.258 135.977 277.637 135.522 277.637 135.522C277.637 135.522 273.218 126.873 272.921 124.141Z" fill="#FF7F9A"/>
<path d="M267.193 112.268C267.193 112.268 267.235 115.436 267.193 120.633C267.151 125.83 266.901 127.679 266.901 127.679L270.368 127.63C270.368 127.63 271.245 118.66 271.036 115.587C270.828 112.514 270.135 111.414 270.135 111.414C270.135 111.414 267.361 111.68 267.193 112.268Z" fill="white"/>
<path d="M273.47 105.054L267.507 105.302L267.568 106.499C267.262 106.515 266.597 106.657 266.549 107.578C266.506 108.398 267.226 108.734 267.687 108.866L267.739 109.894L267.111 112.035L269.95 112.268L270.244 110.959C270.244 110.959 272.069 111.3 273.142 109.475C274.214 107.649 273.47 105.054 273.47 105.054Z" fill="#FFD0BB"/>
<path d="M277.722 158.499L278.451 161.859L280.902 161.701L280.673 158.499H277.722Z" fill="#FFD0BB"/>
<path d="M278.45 161.86L278.786 164.137C278.786 164.137 281.495 164.547 283.886 164.604C286.277 164.661 280.901 161.702 280.901 161.702L278.45 161.86Z" fill="#493B33"/>
<path d="M267.851 158.499V161.859L265.4 161.701L265.199 158.499H267.851Z" fill="#FFD0BB"/>
<path d="M267.851 161.859L268.05 164.115C268.05 164.115 264.806 164.547 262.415 164.604C260.024 164.661 265.4 161.702 265.4 161.702L267.851 161.859Z" fill="#493B33"/>
<path d="M273.494 105.145C273.494 105.145 273.629 105.689 270.651 106.114C267.673 106.539 267.944 108.371 268.436 110.159C268.928 111.946 269.789 113.421 267.992 114.248C266.196 115.075 264.916 113.735 264.769 112.662C264.621 111.589 264.676 111.701 264.402 111.5C264.129 111.299 262.824 110.852 263.365 109.399C263.907 107.946 264.941 108.438 265.162 106.427C265.383 104.416 266.761 102.472 269.862 102.472C272.963 102.472 273.874 103.835 274.07 105.31C274.267 106.785 273.719 107.053 273.719 107.053L273.494 105.145Z" fill="#493B33"/>
<path d="M262.812 112.463C262.812 112.463 259.925 115.968 257.795 119.077C255.664 122.187 251.947 119.304 251.947 119.304L251.696 121.732C251.696 121.732 253.994 124.235 257.544 123.818C261.095 123.401 263.56 119.304 263.56 119.304C263.56 119.304 263.485 113.474 262.812 112.463Z" fill="#FF7F9A"/>
<path d="M251.695 121.732C251.695 121.732 252.176 121.524 252.343 120.708C252.51 119.893 251.946 119.305 251.946 119.305L250.108 117.598L249.815 119.096C249.815 119.096 250.851 121.012 251.695 121.732Z" fill="#FFD0BB"/>
<path d="M250.421 118.103C250.421 118.103 250.236 117.137 249.913 116.661C249.589 116.185 249.496 115.793 249.203 115.723C248.91 115.653 249.419 116.843 249.419 116.843C249.419 116.843 247.923 116.003 247.461 116.003C246.998 116.003 248.309 116.816 248.309 116.816L248.185 116.912C248.185 116.912 247.214 116.213 246.89 116.297C246.567 116.381 247.77 117.249 247.77 117.249C247.77 117.249 246.86 116.619 246.628 116.829C246.397 117.039 247.646 117.767 247.646 117.767C247.646 117.767 246.587 117.347 246.6 117.613C246.613 117.879 247.692 118.257 247.692 118.257C247.692 118.257 248.355 118.635 248.91 118.901C249.465 119.168 250.128 119.154 250.128 119.154L250.421 118.103Z" fill="#FFD0BB"/>
<path d="M273.885 113.985C273.885 113.985 275.819 117.37 277.637 120.272C279.454 123.174 284.467 123.151 284.467 123.151L283.965 124.938C283.965 124.938 280.456 126.23 276.759 124.938C273.062 123.645 272.248 120.386 272.248 120.386L273.885 113.985Z" fill="#FF7F9A"/>
<path d="M283.67 125.005C283.67 125.005 283.334 124.63 283.567 123.828C283.8 123.025 284.587 122.713 284.587 122.713L287.052 121.884L286.611 123.352C286.611 123.352 284.772 124.682 283.67 125.005Z" fill="#FFD0BB"/>
<path d="M286.531 122.218C286.531 122.218 287.153 121.417 287.671 121.112C288.188 120.808 288.456 120.489 288.754 120.539C289.052 120.59 288.031 121.468 288.031 121.468C288.031 121.468 289.779 121.29 290.197 121.469C290.615 121.649 289.048 121.874 289.048 121.874L289.114 122.009C289.114 122.009 290.321 121.755 290.574 121.957C290.828 122.159 289.331 122.476 289.331 122.476C289.331 122.476 290.451 122.26 290.561 122.539C290.671 122.819 289.199 122.992 289.199 122.992C289.199 122.992 290.355 123.024 290.218 123.26C290.081 123.495 288.927 123.418 288.927 123.418C288.927 123.418 288.15 123.502 287.522 123.527C286.895 123.552 286.302 123.282 286.302 123.282L286.531 122.218Z" fill="#FFD0BB"/>
<path d="M131.619 110.922H131.576C131.999 110.074 132.778 108.282 132.663 106.778C132.559 105.408 132.097 104.656 131.801 104.307C132.255 104.237 132.601 103.881 132.601 103.449V102.463H128.048V103.449C128.048 103.881 128.394 104.237 128.848 104.307C128.552 104.656 128.091 105.408 127.986 106.778C127.871 108.282 128.65 110.074 129.072 110.922H128.946C128.611 110.922 128.34 111.168 128.34 111.472C128.34 111.776 128.611 112.022 128.946 112.022H129.51V136.9H131.014V112.022H131.62C131.954 112.022 132.225 111.776 132.225 111.472C132.225 111.168 131.954 110.922 131.619 110.922Z" fill="#766A5A"/>
<path d="M135.325 89.8105C135.061 89.8105 133.858 89.8105 132.532 89.8105C132.532 89.8105 130.399 89.8105 128.511 89.8105C127.185 89.8105 125.981 89.8105 125.718 89.8105L120.237 103.031H128.511H132.532H140.807L135.325 89.8105Z" fill="#C4AAFF"/>
<path d="M125.717 89.8105L133.809 103.031H120.236L125.717 89.8105Z" fill="#AE9AEF"/>
<path d="M109.875 135.619H52.395C51.5646 135.619 50.8911 135.007 50.8911 134.253C50.8911 133.499 51.5646 132.888 52.395 132.888H109.875C110.706 132.888 111.379 133.499 111.379 134.253C111.379 135.007 110.706 135.619 109.875 135.619Z" fill="#493B33"/>
<path d="M58.41 136.949V135.619H53.5645V136.949C53.5645 137.731 54.0596 138.4 54.7759 138.734V139.944H54.6085C54.2623 139.944 53.9821 140.199 53.9821 140.513C53.9821 140.827 54.2623 141.082 54.6085 141.082H55.1935V160.333H56.8854V141.082H57.3238C57.67 141.082 57.9503 140.827 57.9503 140.513C57.9503 140.198 57.67 139.944 57.3238 139.944H57.1986V138.734C57.9149 138.4 58.41 137.731 58.41 136.949Z" fill="#F2DBAA"/>
<path d="M108.161 136.949V135.619H103.316V136.949C103.316 137.731 103.811 138.4 104.527 138.734V139.944H104.36C104.014 139.944 103.734 140.199 103.734 140.513C103.734 140.827 104.014 141.082 104.36 141.082H104.945V160.333H106.637V141.082H107.075C107.421 141.082 107.702 140.827 107.702 140.513C107.702 140.198 107.421 139.944 107.075 139.944H106.95V138.734C107.666 138.4 108.161 137.731 108.161 136.949Z" fill="#F2DBAA"/>
<path d="M74.1166 121.808C74.152 126.383 70.4689 132.888 70.4689 132.888H62.6706C62.6706 132.888 59.0284 126.456 59.0229 121.886C59.0229 121.602 59.0382 121.323 59.0681 121.058C59.2196 119.681 59.6427 118.528 60.1513 117.591C61.3401 115.413 63.0278 114.393 63.0278 114.393L61.0128 111.584H72.1261L70.1111 114.393C70.1111 114.393 71.8238 115.427 73.0077 117.637C73.5115 118.565 73.9193 119.704 74.0708 121.059C74.1013 121.3 74.1111 121.552 74.1166 121.808Z" fill="#9C897A"/>
<path d="M74.1166 121.808C71.0185 122.677 69.401 121.172 69.401 121.172C68.5041 122.343 66.7108 122.247 66.4086 122.219C66.1063 122.246 64.3075 122.343 63.4161 121.172C63.4161 121.172 61.9098 122.572 59.0229 121.886C59.0229 121.602 59.0382 121.323 59.0681 121.058C59.2196 119.68 59.6427 118.528 60.1513 117.59C60.398 117.572 60.6654 117.563 60.9622 117.581C62.7005 117.682 63.2848 118.349 63.2848 118.349C63.2848 118.349 64.7557 117.384 66.4079 117.461C68.0602 117.384 69.5317 118.349 69.5317 118.349C69.5317 118.349 70.116 117.681 71.8544 117.581C72.2927 117.558 72.6756 117.581 73.0077 117.636C73.5115 118.564 73.9193 119.703 74.0708 121.058C74.1013 121.3 74.1111 121.552 74.1166 121.808Z" fill="#C5BA9F"/>
<path d="M100.055 120.518C100.143 123.211 97.2596 132.887 97.2596 132.887H93.2474C93.2474 132.887 90.3642 123.211 90.4522 120.518C90.534 117.826 91.9145 116.195 91.9145 116.195H98.5931C98.5931 116.195 99.868 117.703 100.038 120.216C100.049 120.311 100.049 120.418 100.055 120.518Z" fill="#F2DBAA"/>
<path d="M100.038 120.216H91.2417C91.2771 118.304 92.0666 116.865 92.5227 116.195H98.5931C98.5931 116.195 99.868 117.703 100.038 120.216Z" fill="#FCE8C5"/>
<path d="M87.4867 124.964V132.888H76.2056V124.964C76.2056 124.772 76.2172 124.587 76.2404 124.406C76.5444 121.841 78.9422 119.844 81.8431 119.844C83.3988 119.844 84.8142 120.417 85.8314 121.347C86.6795 122.112 87.2583 123.126 87.4336 124.252C87.4696 124.486 87.4867 124.725 87.4867 124.964Z" fill="#C5BA9F"/>
<path d="M84.2054 116.195H82.0744H81.6153H79.485L77.3125 119.61L79.0252 123.024H81.6153H82.0744H84.6645L86.3772 119.61L84.2054 116.195Z" fill="#C5BA9F"/>
<path d="M87.4867 124.962V125.032H76.2056V124.962C76.2056 124.771 76.2172 124.585 76.2404 124.405C76.4449 124.299 76.7142 124.219 77.0531 124.219C77.7491 124.219 78.1118 124.548 78.2809 124.787C78.4684 124.548 78.8598 124.219 79.5558 124.219C80.2574 124.219 80.6146 124.548 80.7837 124.787C80.9767 124.548 81.3625 124.219 82.0647 124.219C82.7608 124.219 83.1235 124.548 83.2926 124.787C83.4855 124.548 83.8714 124.219 84.5675 124.219C85.2691 124.219 85.6263 124.548 85.8015 124.787C85.9889 124.548 86.3748 124.219 87.0764 124.219C87.2052 124.219 87.3279 124.229 87.433 124.25C87.4696 124.484 87.4867 124.723 87.4867 124.962Z" fill="#F2DBAA"/>
<path d="M87.4867 126.636V127.406H76.2056V126.795C76.4162 126.678 76.691 126.588 77.0537 126.588C77.7497 126.588 78.1124 126.917 78.2815 127.161C78.469 126.917 78.8604 126.588 79.5564 126.588C80.258 126.588 80.6152 126.917 80.7843 127.161C80.9773 126.917 81.3632 126.588 82.0653 126.588C82.7614 126.588 83.1241 126.917 83.2932 127.161C83.4862 126.917 83.872 126.588 84.5681 126.588C85.2697 126.588 85.6269 126.917 85.8021 127.161C85.9895 126.917 86.3754 126.588 87.077 126.588C87.2296 126.588 87.364 126.605 87.4867 126.636Z" fill="#F2DBAA"/>
<path d="M81.2285 116.195L82.1059 119.61H86.3769L84.2051 116.195H81.2285Z" fill="#D1C7B0"/>
<path d="M77.3125 119.61H86.3772L85.603 121.153H78.0867L77.3125 119.61Z" fill="#D1C7B0"/>
<path d="M87.9007 160.115H151.54L161.232 172.007H78.124L87.9007 160.115Z" fill="#5DAF8F"/>
<path d="M144.122 133.804C143.089 130.565 139.822 128.336 136.109 128.336H120.857H118.498H103.247C99.5332 128.336 96.2672 130.565 95.2341 133.804L91.5156 145.466H118.498H120.857H147.84L144.122 133.804Z" fill="#ED6D40"/>
<path d="M96.8516 135.593C97.8188 132.354 100.877 130.125 104.354 130.125H118.635H120.844H135.125C138.602 130.125 141.66 132.354 142.628 135.593L145.576 145.466H147.845L144.127 133.804C143.094 130.565 139.827 128.336 136.114 128.336H120.862H118.503H103.251C99.5376 128.336 96.2716 130.565 95.2385 133.804L91.52 145.466H93.9037L96.8516 135.593Z" fill="#FF8855"/>
<path d="M94.2772 158.152L92.9639 168.018H95.292L98.1581 158.423L94.2772 158.152Z" fill="#C5BA9F"/>
<path d="M144.93 158.152L146.243 168.018H143.915L141.049 158.423L144.93 158.152Z" fill="#C5BA9F"/>
<path d="M153.974 150.696C153.974 150.996 153.957 151.288 153.919 151.58C153.693 153.436 152.77 155.102 151.395 156.35C149.803 157.796 147.601 158.692 145.168 158.692H94.1866C89.6774 158.692 85.9626 155.618 85.4442 151.649C85.4027 151.338 85.3813 151.019 85.3813 150.696C85.3813 148.863 86.2008 147.205 87.5251 146.002C88.8501 144.8 90.6757 144.056 92.6943 144.056H146.659C150.701 144.055 153.974 147.03 153.974 150.696Z" fill="#FF8855"/>
<path d="M87.5299 147.71C88.8548 146.508 90.6805 145.763 92.6991 145.763H146.664C150.401 145.763 153.475 148.31 153.917 151.591C153.917 151.588 153.918 151.584 153.919 151.581C153.956 151.289 153.973 150.996 153.973 150.696C153.973 147.031 150.701 144.056 146.66 144.056H92.6948C90.6762 144.056 88.8506 144.799 87.5256 146.002C86.2012 147.206 85.3818 148.863 85.3818 150.696C85.3818 151.009 85.4026 151.317 85.4417 151.62C85.6395 150.101 86.3972 148.739 87.5299 147.71Z" fill="#FFA88A"/>
<path d="M153.92 151.581C153.694 153.437 152.771 155.102 151.396 156.351C149.803 157.797 147.602 158.693 145.169 158.693H94.1871C89.678 158.693 85.9632 155.619 85.4448 151.65C90.4467 152.568 100.225 153.646 118.692 153.706C138.032 153.771 148.563 152.567 153.92 151.581Z" fill="#ED6D40"/>
<path d="M106.873 137.931C106.873 138.499 106.365 138.961 105.739 138.961C105.112 138.961 104.604 138.499 104.604 137.931C104.604 137.362 105.112 136.9 105.739 136.9C106.365 136.901 106.873 137.362 106.873 137.931Z" fill="#C15C3D"/>
<path d="M120.812 137.931C120.812 138.499 120.304 138.961 119.677 138.961C119.051 138.961 118.543 138.499 118.543 137.931C118.543 137.362 119.051 136.9 119.677 136.9C120.304 136.901 120.812 137.362 120.812 137.931Z" fill="#C15C3D"/>
<path d="M134.75 137.931C134.75 138.499 134.242 138.961 133.616 138.961C132.989 138.961 132.481 138.499 132.481 137.931C132.481 137.362 132.989 136.9 133.616 136.9C134.243 136.901 134.75 137.362 134.75 137.931Z" fill="#C15C3D"/>
<path d="M227.569 158.501H165.201C162.576 158.501 160.447 156.568 160.447 154.184V89.1519C160.447 86.6147 162.713 84.5576 165.507 84.5576H227.264C230.058 84.5576 232.323 86.6147 232.323 89.1519V154.184C232.323 156.569 230.195 158.501 227.569 158.501Z" fill="#C15C3D"/>
<path d="M170.596 158.501H165.223V160.994H170.596V158.501Z" fill="#5E4F45"/>
<path d="M228.025 158.501H222.652V160.994H228.025V158.501Z" fill="#5E4F45"/>
<path d="M194.834 152.647H170.271C166.924 152.647 164.209 150.183 164.209 147.142V95.2673C164.209 91.6583 167.431 88.7324 171.405 88.7324H194.834V152.647Z" fill="#FF8855"/>
<path d="M197.52 152.647H221.963C225.311 152.647 228.025 150.183 228.025 147.142V95.2673C228.025 91.6583 224.803 88.7324 220.829 88.7324H197.52V152.647H197.52Z" fill="#FF8855"/>
<path d="M192.235 95.7235V120.731C192.235 122.371 190.773 123.698 188.968 123.698H171.057C169.252 123.698 167.79 122.371 167.79 120.731V95.7235C167.79 94.8092 168.295 94.0008 169.068 93.519C169.544 93.2151 170.121 93.041 170.744 93.041H189.281C190.915 93.041 192.235 94.2436 192.235 95.7235Z" fill="#FFEDBF"/>
<path d="M193.4 127.48C193.4 128.31 192.659 128.984 191.744 128.984C190.829 128.984 190.087 128.31 190.087 127.48C190.087 126.649 190.829 125.976 191.744 125.976C192.659 125.976 193.4 126.649 193.4 127.48Z" fill="#C15C3D"/>
<path d="M202.445 127.48C202.445 128.31 201.703 128.984 200.788 128.984C199.874 128.984 199.132 128.31 199.132 127.48C199.132 126.649 199.874 125.976 200.788 125.976C201.703 125.976 202.445 126.649 202.445 127.48Z" fill="#C15C3D"/>
<path d="M179.532 123.699H171.057C169.251 123.699 167.789 122.371 167.789 120.731V109.229L179.532 123.699Z" fill="#F2DBAA"/>
<path d="M192.236 106.14V120.7L169.068 93.518C169.545 93.2141 170.122 93.04 170.744 93.04H180.444L192.236 106.14Z" fill="#F2DBAA"/>
<path d="M95.222 108.956C95.1249 109.229 91.7515 118.333 91.7515 118.333L92.362 118.384L95.821 109.161L95.222 108.956Z" fill="#5F3E1B"/>
<path d="M109.56 124.215C109.56 124.215 105.471 123.64 100.426 121.097C95.3815 118.554 93.8062 114.938 93.8062 114.938L95.3491 114.011C95.3491 114.011 99.3441 117.836 101.792 118.388C104.24 118.939 111.275 119.506 111.275 119.506L109.56 124.215Z" fill="#FFD0BB"/>
<path d="M113.707 118.758C113.714 118.617 107.829 118.61 107.829 118.61L107.196 124.8L110.433 125.495C110.433 125.495 113.611 120.702 113.707 118.758Z" fill="#5974D8"/>
<path d="M95.3288 114.378C95.3288 114.378 95.6848 113.34 95.4955 112.727C95.3062 112.114 94.6559 112.372 94.6559 112.372C94.6559 112.372 93.6155 111.646 93.3627 111.849C93.1099 112.053 93.0281 112.233 93.0281 112.233C93.0281 112.233 92.619 112.358 92.5567 112.858C92.5567 112.858 92.3943 112.786 92.3687 113.245C92.3687 113.245 92.0854 113.427 92.3784 113.978C92.6715 114.53 93.8554 115.041 93.8554 115.041L95.3288 114.378Z" fill="#FFD0BB"/>
<path d="M117.174 117.393C117.174 117.393 120.708 118.414 123.458 120.773C126.207 123.132 125.657 139.104 125.657 139.104L107.996 138.26C107.996 138.26 108.714 124.081 110.275 121.117C111.837 118.154 117.174 117.393 117.174 117.393Z" fill="#6A80EF"/>
<path d="M127.372 168.299L127.316 170.663L125.089 170.732L124.987 168.427L127.372 168.299Z" fill="#FFD0BB"/>
<path d="M127.315 170.664L127.547 172.438C127.547 172.438 124.873 173.103 122.925 173.337C120.977 173.57 125.088 170.733 125.088 170.733L127.315 170.664Z" fill="#493B33"/>
<path d="M112.381 111.069L118.564 111.851L118.373 113.093C118.69 113.136 119.366 113.342 119.318 114.306C119.276 115.162 118.49 115.45 117.997 115.546L117.833 116.613L118.259 118.897L115.279 118.891L115.112 117.501C115.112 117.501 113.175 117.696 112.253 115.701C111.33 113.706 112.381 111.069 112.381 111.069Z" fill="#FFD0BB"/>
<path d="M115.858 111.509C115.858 111.509 115.748 112.788 117.063 113.346L117.015 114.221L117.908 114.334C117.908 114.334 119.97 112.794 119.651 111.502C119.332 110.209 118.577 110.332 118.577 110.332C118.577 110.332 118.61 109.315 117.45 108.874C116.289 108.434 115.037 108.566 114.146 108.653C112.346 108.83 111.225 110.894 111.25 111.483C111.287 112.355 111.943 112.816 111.943 112.816C111.943 112.816 112.213 111.874 112.293 111.492C112.293 111.492 113.883 112.158 115.858 111.509Z" fill="#5F3E1B"/>
<path d="M110.652 167.078L110.157 169.399L107.949 169.126L108.277 166.839L110.652 167.078Z" fill="#FFD0BB"/>
<path d="M110.157 169.399L110.055 171.183C110.055 171.183 107.296 171.429 105.332 171.36C103.369 171.292 107.948 169.126 107.948 169.126L110.157 169.399Z" fill="#493B33"/>
<path d="M123.172 124.844C123.172 124.844 121.208 129.098 117.228 132.891C113.248 136.684 108.997 137.158 108.997 137.158L108.398 135.568C108.398 135.568 113.481 133.021 114.686 131.009C115.89 128.996 118.626 123.095 118.626 123.095L123.172 124.844Z" fill="#FFD0BB"/>
<path d="M108.784 135.679C108.784 135.679 107.768 135.105 107.067 135.116C106.366 135.129 106.477 135.765 106.477 135.765C106.477 135.765 105.441 136.496 105.594 136.77C105.747 137.044 105.918 137.161 105.918 137.161C105.918 137.161 105.949 137.552 106.466 137.732C106.466 137.732 106.349 137.857 106.831 137.995C106.831 137.995 106.953 138.29 107.615 138.171C108.277 138.052 109.12 137.141 109.12 137.141L108.784 135.679Z" fill="#FFD0BB"/>
<path d="M109.674 110.119C109.674 110.119 111.259 111.236 113.622 111.435C115.986 111.635 117.244 111.12 117.244 111.12L111.688 109.73C111.688 109.73 109.216 109.511 109.674 110.119Z" fill="#3F2D1F"/>
<path d="M111.523 109.715C111.523 109.715 110.888 108.72 111.932 107.877C112.976 107.034 115.482 106.65 117.779 108.034C120.076 109.418 120.535 110.827 120.558 111.398C120.582 111.97 119.582 112.351 119.582 112.351L117.078 111.131C117.078 111.131 112.073 110.237 111.523 109.715Z" fill="#C5BA9F"/>
<path d="M117.661 111.001C117.639 111.219 117.433 111.379 117.202 111.36C116.971 111.341 116.802 111.148 116.824 110.93C116.846 110.712 117.052 110.552 117.283 110.571C117.514 110.59 117.683 110.783 117.661 111.001Z" fill="#9C897A"/>
<path d="M124.207 121.542C123.437 119.911 121.081 119.421 119.603 120.582C119.588 120.594 119.573 120.606 119.558 120.618C118.043 121.839 117.225 124.557 117.225 124.557L122.708 126.907C122.708 126.907 124.501 124.183 124.472 122.588C124.464 122.222 124.362 121.869 124.207 121.542Z" fill="#5974D8"/>
<path d="M107.996 138.26C107.996 138.26 107.199 143.575 106.898 148.994C106.596 154.414 107.755 167.337 107.755 167.337L110.932 167.605C110.932 167.605 115.3 146.136 117.092 144.784L124.255 169.077L128.356 169.075C128.356 169.075 127.128 153.798 126.634 149.532C126.14 145.266 125.746 138.221 125.746 138.221L107.996 138.26Z" fill="#5E4F45"/>
<path d="M89.8365 99.959L108.014 106.187L104.881 113.234L86.6328 107.356L89.8365 99.959Z" fill="#FF973B"/>
<path d="M244.053 61.9957V65.0397H43.5381V61.9957L143.795 36.9229L200.701 51.156L200.751 51.167L244.053 61.9957Z" fill="#FFB87C"/>
<path d="M43.5393 59.1855H40.6982V159.693H43.5393V59.1855Z" fill="#493B33"/>
<path d="M245.471 59.1855H242.631V159.693H245.471V59.1855Z" fill="#493B33"/>
<path d="M244.053 61.996V65.04H43.5381L200.701 51.1562L200.751 51.1673L244.053 61.996Z" fill="#EDA672"/>
<path d="M277.263 181.829H338.917L348.609 191.594H267.487L277.263 181.829Z" fill="#D2FFCC"/>
<path d="M304.361 168.846L309.874 186.902H308.705L303.191 168.846H304.361Z" fill="#ECECEC"/>
<path d="M297.061 170.59L292.131 186.902H293.301L298.23 170.59H297.061Z" fill="white"/>
<path d="M310.695 170.59L305.766 186.902H306.936L311.865 170.59H310.695Z" fill="white"/>
<path d="M317.211 168.846L322.725 186.902H321.555L316.041 168.846H317.211Z" fill="#ECECEC"/>
<path d="M323.92 158.111C323.756 160.06 323.247 161.792 322.557 163.311C320.34 168.202 314.978 171.314 309.153 171.314H293.59C289.508 171.314 287.537 169.184 287.502 167.225C287.49 166.656 287.643 166.104 287.952 165.621C289.332 163.464 301.111 165.738 301.655 152.078C302.035 142.593 307.877 138.875 314.702 139.694C317.077 139.98 319.006 141.234 320.474 143.125C323.241 146.656 324.411 152.402 323.92 158.111Z" fill="#6A80EF"/>
<path d="M320.837 146.932C320.837 159.046 310.024 168.866 296.69 168.866C293.438 168.866 290.333 168.281 287.503 167.225C287.491 166.656 287.643 166.104 287.953 165.621C289.332 163.464 301.111 165.738 301.655 152.078C302.036 142.593 307.878 138.875 314.703 139.694C317.077 139.98 319.007 141.234 320.475 143.125C320.715 144.362 320.837 145.637 320.837 146.932Z" fill="#5974D8"/>
<path d="M129.829 210.62C155.496 210.62 176.303 208.289 176.303 205.413C176.303 202.537 155.496 200.205 129.829 200.205C104.163 200.205 83.3555 202.537 83.3555 205.413C83.3555 208.289 104.163 210.62 129.829 210.62Z" fill="#93CC97"/>
<path d="M107.454 203.399L102.27 188.164H100.979L104.834 201.905C104.966 202.294 104.646 202.689 104.197 202.689H95.7953C95.341 202.689 95.0198 202.285 95.1627 201.893L99.2628 188.164H98.099L92.5451 203.381C92.3247 203.985 92.8199 204.607 93.5202 204.607H106.473C107.164 204.607 107.658 204 107.454 203.399Z" fill="#766A5A"/>
<path d="M152.482 203.399L157.665 188.164H158.956L155.102 201.905C154.969 202.294 155.29 202.689 155.739 202.689H164.14C164.594 202.689 164.916 202.285 164.773 201.893L160.673 188.164H161.836L167.391 203.381C167.611 203.985 167.116 204.607 166.416 204.607H153.463C152.772 204.607 152.277 204 152.482 203.399Z" fill="#766A5A"/>
<path d="M176.304 188.165H84.3433V191.86H176.304V188.165Z" fill="#C5BA9F"/>
<path d="M102.751 207.095L97.5674 191.86H96.2766L100.131 205.601C100.264 205.99 99.9432 206.384 99.4944 206.384H91.0922C90.6379 206.384 90.3167 205.98 90.4596 205.588L94.5597 191.859H93.3965L87.842 207.076C87.6216 207.68 88.1168 208.303 88.8171 208.303H101.769C102.462 208.303 102.956 207.695 102.751 207.095Z" fill="#9C897A"/>
<path d="M156.869 207.095L162.053 191.86H163.344L159.489 205.601C159.357 205.99 159.677 206.384 160.126 206.384H168.528C168.982 206.384 169.303 205.98 169.16 205.588L165.06 191.859H166.224L171.778 207.076C171.998 207.68 171.503 208.303 170.803 208.303H157.851C157.159 208.303 156.665 207.695 156.869 207.095Z" fill="#9C897A"/>
<path d="M84.3433 188.165L87.7894 184.626H171.831L176.304 188.165H84.3433Z" fill="#D3C7AE"/>
<path d="M161.575 171.084C158.771 169.887 153.915 170.657 151.346 168.608C151.346 168.608 151.127 170.769 152.975 171.595C152.975 171.595 152.035 172.051 151.91 173.388C152.035 174.725 152.975 175.181 152.975 175.181C151.127 176.007 151.346 178.167 151.346 178.167C152.991 176.855 158.39 175.032 161.207 175.998C164.379 177.086 161.965 181.24 161.965 181.24H163.752C163.752 181.24 167.443 173.587 161.575 171.084Z" fill="#FFEDBF"/>
<path d="M145.299 182.122V184.882C145.299 185.463 145.818 185.934 146.457 185.934H164.064C164.704 185.934 165.223 185.463 165.223 184.882V182.036C165.223 181.424 164.676 180.927 164.002 180.927H146.614C145.888 180.927 145.299 181.462 145.299 182.122Z" fill="#5E4F45"/>
<path d="M161.528 179.619H148.714V180.359H161.528V179.619Z" fill="#3F3E3E"/>
<path d="M155.596 179.373H154.761V180.928H155.596V179.373Z" fill="#585857"/>
<path d="M148.546 181.909H146.385V182.621H148.546V181.909Z" fill="#6D5C53"/>
<path d="M151.241 181.909H149.08V182.621H151.241V181.909Z" fill="#6D5C53"/>
<path d="M161.575 185.252C162.795 185.252 163.784 184.411 163.784 183.374C163.784 182.337 162.795 181.496 161.575 181.496C160.355 181.496 159.367 182.337 159.367 183.374C159.367 184.411 160.355 185.252 161.575 185.252Z" fill="#6D5C53"/>
<path d="M129.229 171.708L126.568 186.981H140.088L142.509 171.777L129.229 171.708Z" fill="#94C8FF"/>
<path d="M130.319 172.756L128.007 185.766H138.529L140.71 172.756H130.319Z" fill="#BFE2FF"/>
<path d="M141.411 178.677L143.229 186.716H140.158L141.411 178.677Z" fill="#749EC4"/>
<path d="M95.7207 182.924C95.634 184.47 96.9907 185.767 98.6949 185.767H114.083C115.728 185.767 117.061 184.556 117.061 183.063C117.061 181.569 115.727 180.358 114.083 180.358H98.6949C97.1092 180.358 95.8019 181.486 95.7207 182.924Z" fill="#AE9AEF"/>
<path d="M228.411 222.861C237.049 222.861 244.051 221.199 244.051 219.149C244.051 217.099 237.049 215.437 228.411 215.437C219.774 215.437 212.772 217.099 212.772 219.149C212.772 221.199 219.774 222.861 228.411 222.861Z" fill="#93CC97"/>
<path d="M215.182 191.275C215.182 191.275 214.548 187.572 215.899 186.591" stroke="#493B33" stroke-miterlimit="10" stroke-linecap="round"/>
<path d="M235.168 165.01C235.168 165.01 235.451 170.619 238.251 176.47C241.052 182.32 245.692 184.478 245.692 184.478L247.11 182.889C247.11 182.889 242.475 178.043 242.027 175.285C241.578 172.527 241.172 164.739 241.172 164.739L235.168 165.01Z" fill="#FFD0BB"/>
<path d="M246.62 182.868C246.62 182.868 248.046 182.598 248.842 182.878C249.637 183.159 249.216 183.844 249.216 183.844C249.216 183.844 250.063 185.075 249.762 185.329C249.46 185.583 249.211 185.652 249.211 185.652C249.211 185.652 248.995 186.088 248.321 186.097C248.321 186.097 248.397 186.285 247.782 186.258C247.782 186.258 247.506 186.549 246.805 186.162C246.103 185.774 245.559 184.412 245.559 184.412L246.62 182.868Z" fill="#FFD0BB"/>
<path d="M236.383 157.218C234.446 158.384 233.537 161.428 234.749 165.53L242.088 164.625C242.088 164.625 239.813 155.153 236.383 157.218Z" fill="#ECECEC"/>
<path d="M231.078 153.708C231.078 153.708 226.667 154.585 223.041 157.163C219.415 159.742 218.103 179.16 218.103 179.16L238.81 178.3C238.81 178.3 240.505 162.68 238.98 158.929C237.453 155.177 231.078 153.708 231.078 153.708Z" fill="white"/>
<path d="M220.723 208.69L218.431 210.679L220.193 212.553L222.556 210.742L220.723 208.69Z" fill="#E7B142"/>
<path d="M218.431 210.679L216.486 211.947C216.486 211.947 218.025 214.676 219.395 216.456C220.764 218.237 220.193 212.552 220.193 212.552L218.431 210.679Z" fill="#493B33"/>
<path d="M238.062 146.804L230.471 147.119L230.548 148.643C230.158 148.664 229.312 148.845 229.251 150.017C229.198 151.06 230.113 151.489 230.7 151.656L230.766 152.965L229.966 155.691L233.58 155.988L233.955 154.321C233.955 154.321 236.278 154.755 237.644 152.432C239.008 150.108 238.062 146.804 238.062 146.804Z" fill="#FFD0BB"/>
<path d="M233.792 146.981C233.792 146.981 233.766 148.542 232.103 149.084L232.053 150.149L230.956 150.194C230.956 150.194 228.647 148.117 229.194 146.583C229.741 145.048 230.845 145.286 230.845 145.286C230.845 145.286 231.088 143.906 232.549 143.491C234.011 143.076 234.514 143.764 234.514 143.764C234.514 143.764 234.915 142.968 235.991 143.136C237.065 143.304 237.104 144.058 237.104 144.058C237.104 144.058 238.332 143.652 238.976 144.57C239.621 145.488 239.303 146.404 239.303 146.404C239.303 146.404 240.042 146.628 239.864 147.722C239.685 148.816 238.376 148.964 238.376 148.964C238.376 148.964 238.105 147.417 238.056 146.946C238.056 146.946 236.105 147.969 233.792 146.981Z" fill="#5F3E1B"/>
<path d="M233.292 215.955L234.163 218.722L236.809 218.179L236.144 215.437L233.292 215.955Z" fill="#E7B142"/>
<path d="M234.163 218.722L234.495 220.875C234.495 220.875 237.87 220.908 240.243 220.636C242.617 220.364 236.809 218.178 236.809 218.178L234.163 218.722Z" fill="#493B33"/>
<path d="M238.81 178.299C238.81 178.299 240.119 190.383 238.273 196.702C236.427 203.021 222.163 212.053 222.163 212.053L219.604 208.966C219.604 208.966 229.018 197.202 229.998 194.04C230.978 190.878 228.372 186.535 228.372 186.535L231.124 178.618L238.81 178.299Z" fill="#005F75"/>
<path d="M218.102 179.159C218.102 179.159 216.876 184.499 218.726 191.532C220.576 198.564 228.105 203.974 229.631 207.725C231.157 211.477 232.544 216.275 232.544 216.275L237.074 215.219C237.074 215.219 236.04 206.072 232.453 197.421C228.866 188.769 229.6 186.138 229.6 186.138L231.124 178.618L218.102 179.159Z" fill="#007194"/>
<path d="M230.548 153.829L232.498 155.857L230.476 157.209L228.689 154.375L230.548 153.829Z" fill="#ECECEC"/>
<path d="M233.93 154.45L232.499 155.857L234.299 157.316L234.896 155.066L233.93 154.45Z" fill="#ECECEC"/>
<path d="M217.32 163.644C217.32 163.644 214.451 168.618 213.625 174.953C212.799 181.288 215.61 185.275 215.61 185.275L217.716 184.551C217.716 184.551 216.401 178.245 217.544 175.657C218.687 173.069 222.657 166.157 222.657 166.157L217.32 163.644Z" fill="#FFD0BB"/>
<path d="M212.812 191.343L223.447 191.118L224.303 202.588L212.401 203.083L212.812 191.343Z" fill="#FF973B"/>
<path d="M219.005 186.34C219.005 186.34 220.636 187.463 220.537 191.174" stroke="#493B33" stroke-miterlimit="10" stroke-linecap="round"/>
<path d="M217.304 184.309C217.304 184.309 218.685 184.728 219.217 185.334C219.749 185.941 219.005 186.34 219.005 186.34C219.005 186.34 219.055 187.791 218.653 187.872C218.251 187.954 217.998 187.899 217.998 187.899C217.998 187.899 217.57 188.177 216.982 187.877C216.982 187.877 216.944 188.073 216.427 187.77C216.427 187.77 216.028 187.894 215.637 187.239C215.245 186.583 215.532 185.157 215.532 185.157L217.304 184.309Z" fill="#FFD0BB"/>
<path d="M222.691 157.469C220.371 157.59 217.897 159.804 216.668 163.901L223.51 166.478C223.51 166.478 226.801 157.255 222.691 157.469Z" fill="#ECECEC"/>
<path d="M362.667 178.006C362.667 178.006 362.078 171.174 358.742 167.729C355.405 164.283 349.583 163.927 349.583 163.927C349.583 163.927 348.209 175.511 362.667 178.006Z" fill="#79BA80"/>
<path d="M362.34 166.244C362.34 166.244 358.481 164.996 355.733 161.847C352.985 158.698 354.359 152.164 354.359 152.164C354.359 152.164 364.957 156.025 362.34 166.244Z" fill="#79BA80"/>
<path d="M364.921 172.797C364.921 172.797 362.537 162.727 365.597 157.796C368.657 152.865 373.003 150.856 373.003 150.856C373.003 150.856 375.243 157.71 372.823 163.532C370.402 169.354 364.921 172.797 364.921 172.797Z" fill="#79BA80"/>
<path d="M365.953 177.689C365.953 177.689 366.57 173.838 370.321 171.61C374.072 169.382 380.352 170.966 380.352 170.966C380.352 170.966 376.739 179.669 365.953 177.689Z" fill="#79BA80"/>
<path d="M371.956 168.718C371.956 168.718 371.203 162.356 380.722 161.035C380.722 161.035 380.113 168.599 371.956 168.718Z" fill="#79BA80"/>
<path d="M361.555 164.877C361.555 164.877 364.498 172.6 365.218 181.036" stroke="#629B66" stroke-miterlimit="10"/>
<path d="M364.037 181.036C364.037 181.036 362.732 176.58 360.77 175.036" stroke="#629B66" stroke-miterlimit="10"/>
<path d="M365.953 169.807C365.953 169.807 363.845 174.203 364.63 181.035" stroke="#629B66" stroke-miterlimit="10"/>
<path d="M373.153 167.254C373.153 167.254 366.069 173.452 365.219 180.541" stroke="#629B66" stroke-miterlimit="10"/>
<path d="M365.385 180.244H359.897V190.468C359.897 192.18 360.848 193.689 362.296 194.587V195.453H368.708V194.43C370.022 193.519 370.874 192.086 370.874 190.469V180.245L365.385 180.244Z" fill="white"/>
<path d="M353.895 216.8C368.507 216.8 380.352 214.984 380.352 212.744C380.352 210.504 368.507 208.688 353.895 208.688C339.283 208.688 327.438 210.504 327.438 212.744C327.438 214.984 339.283 216.8 353.895 216.8Z" fill="#93CC97"/>
<path d="M336.957 203.136L335.649 213.591H337.393L338.789 203.136H336.957Z" fill="#766A5A"/>
<path d="M369.386 203.136L370.694 213.591H368.95L367.554 203.136H369.386Z" fill="#766A5A"/>
<path d="M373.154 197.527V202.883C373.154 204.031 372.134 204.957 370.877 204.957H335.243C333.979 204.957 332.959 204.031 332.959 202.883V197.527C332.959 196.379 333.979 195.453 335.243 195.453H370.877C372.135 195.453 373.154 196.379 373.154 197.527Z" fill="#C4AAFF"/>
<path d="M373.154 199.762V202.883C373.154 204.031 372.134 204.957 370.877 204.957H335.243C333.979 204.957 332.959 204.031 332.959 202.883V198.348C334.651 199.124 338.528 200.183 347.339 201.236C359.221 202.661 368.539 200.954 373.154 199.762Z" fill="#AE9AEF"/>
<path d="M352.172 178.106C351.459 178.09 350.846 178.543 350.695 179.176C350.461 180.152 349.936 181.46 348.801 181.731L349.134 176.842C349.26 174.994 347.644 173.433 345.605 173.433C343.544 173.433 341.919 175.028 342.08 176.894L342.293 179.364C341.314 178.983 340.846 177.787 340.628 176.879C340.477 176.246 339.864 175.794 339.151 175.809C338.315 175.828 337.666 176.473 337.719 177.231C337.796 178.329 338.13 179.811 339.279 180.646C340.522 181.549 341.744 181.638 342.484 181.579L343.083 188.519H348.338L348.656 183.857C349.365 183.944 350.692 183.924 352.044 182.942C353.194 182.107 353.527 180.625 353.604 179.527C353.657 178.769 353.008 178.124 352.172 178.106Z" fill="#629B66"/>
<path d="M353.854 191.989C353.854 192.942 353.256 193.813 352.285 194.439C351.314 195.066 349.977 195.454 348.499 195.454H342.925C339.963 195.454 337.57 193.901 337.57 191.989C337.57 191.928 337.57 191.867 337.576 191.806C337.649 190.918 338.229 190.12 339.139 189.532C340.104 188.906 341.441 188.518 342.925 188.518H348.499C351.369 188.518 353.714 189.981 353.848 191.822C353.854 191.878 353.854 191.933 353.854 191.989Z" fill="#FF8855"/>
<path d="M353.854 191.988C353.854 192.941 353.256 193.812 352.285 194.438C351.314 195.065 349.977 195.453 348.499 195.453H342.925C339.963 195.453 337.57 193.901 337.57 191.988C337.57 191.927 337.57 191.866 337.576 191.805C339.45 192.259 341.856 192.664 344.897 192.88C349.092 193.174 351.955 192.581 353.848 191.821C353.854 191.877 353.854 191.932 353.854 191.988Z" fill="#ED6D40"/>
</svg>
