<?xml version="1.0" encoding="utf-8"?>
<!-- Generator: Adobe Illustrator 27.5.0, SVG Export Plug-In . SVG Version: 6.00 Build 0)  -->
<svg version="1.1" xmlns="http://www.w3.org/2000/svg" xmlns:xlink="http://www.w3.org/1999/xlink" x="0px" y="0px"
	 viewBox="0 0 750 500" style="enable-background:new 0 0 750 500;" xml:space="preserve">
<g id="BACKGROUND">
	<rect y="-0.001" style="fill:#FFFFFF;" width="750" height="500.001"/>
</g>
<g id="OBJECTS">
	<g>
		<g>
			<g>
				<path style="fill:#E2C983;" d="M702.281,170.592c-15.521-59.326-99.811-65.604-129.815-14.725
					c-9.111,15.455-12.725,34.678-26.104,46.635c-17.911,16.012-46.206,12.396-67.888,2.047
					c-21.672-10.353-40.682-26.336-63.553-33.674c-39.983-12.822-77.854,18.816-93.371,53.921
					c-17.067,38.608-10.96,85.411,11.679,121.038c22.642,35.627,65.052,66.555,105.69,77.967
					c45.438,12.756,92.047,2.747,131.435-23.246c21.631-14.272,38.679-35.645,47.922-59.852
					c7.331-19.201,6.236-41.464,14.723-60.058c8.812-19.306,30.36-25.031,45.233-38.216c17.2-15.242,28.023-37.708,25.96-60.925
					C703.865,177.822,703.221,174.166,702.281,170.592z"/>
				<path style="fill:#81BC4D;" d="M668.976,92.83c-24.834-60.495-117.982-56.182-144.123,1.315
					c-7.941,17.467-9.36,38.187-22.437,52.522c-17.506,19.19-48.97,19.051-74.078,10.956c-25.108-8.099-48.034-22.476-74.051-27.24
					c-45.486-8.328-82.787,29.916-95.148,68.917c-13.596,42.892-0.727,91.409,28.77,126.011c29.496,34.604,73.981,55.764,120,62.518
					c51.441,7.548,107.218-3.112,146.925-35.601c21.807-17.846,37.656-42.574,44.588-69.272c5.493-21.185,1.358-44.502,8.194-65.194
					c7.104-21.48,29.951-30.306,44.502-46.126c16.824-18.29,25.713-43.362,20.39-67.556
					C671.662,100.242,670.474,96.476,668.976,92.83z"/>
				<path style="fill:#E2C983;" d="M261.69,123.65c-36.01-0.07-85.263,4.678-109.284-35.317
					c-17.717-29.498-34.565-73.672-66.744-35.157c-19.952,23.876-26.306,64.973-27.036,97.54
					c-2.016,90.32,52.506,176.201,125.198,215.95c70.889,38.758,162.355,38.371,210.026-35.976
					c17.19-26.813,33.197-58.483,27.963-92.664C409.619,158.328,323.592,123.772,261.69,123.65z"/>
				<path style="fill:#F9D33A;" d="M231.676,131.376c15.236,9.293,31.601,16.738,46.325,26.819
					c22.206,15.197,40.285,36.313,51.825,60.54c6.317,13.255,13.539,29.682,28.211,31.122c20.286,1.983,28.282-22.795,29.759-38.67
					c2.184-23.495,3.352-62.708-14.19-78.048c-20.988-18.351-51.322-14.323-85.063-13.377c-10.336,0.29-20.289-3.648-29.878-7.583
					c-9.538-3.91-18.44-9.343-26.254-16.045c-9.514-8.171-16.908-18.204-25.846-26.924c-3.834-3.74-10.957-7.919-16.136-4.237
					c-6.368,4.523-3.065,15.349-0.852,21.095C196.862,104.976,214.661,120.996,231.676,131.376z"/>
			</g>
			<path style="opacity:0.4;fill:#F4654E;" d="M291.77,131.261c-0.456-0.561-0.468-1.318-0.026-1.698
				c0.445-0.378,1.179-0.229,1.637,0.329c0.453,0.558,0.467,1.316,0.022,1.693C292.959,131.964,292.225,131.817,291.77,131.261"/>
			<g>
				<g>
					<path style="fill:#81BC4D;" d="M417.927,85.668c-0.748,4.782-5.232,8.051-10.013,7.303c-4.779-0.747-8.048-5.23-7.3-10.012
						c0.749-4.778,5.229-8.049,10.008-7.3C415.404,76.406,418.674,80.89,417.927,85.668z"/>
					<g>
						<path style="fill:#FDF3D3;" d="M412.432,81.466c-3.333-3.046-3.46-4.157-3.646-5.846c-0.002-0.014-0.009-0.032-0.008-0.05
							c-0.306,0.017-0.6,0.085-0.902,0.131c0.004,0.007,0.006,0.015,0.004,0.022c0.207,1.826,0.358,3.14,3.937,6.412
							c3.383,3.096,4.153,4.936,3.639,8.353c0.384-0.385,0.726-0.806,1.034-1.252C416.624,86.348,415.585,84.354,412.432,81.466z"/>
						<path style="fill:#FDF3D3;" d="M407.136,92.77c-1.813-2.06-1.418-4.659-0.972-7.398c0.486-2.998,0.967-6.081-1.612-8.399
							c-0.268,0.169-0.521,0.354-0.768,0.552c2.375,2.015,1.957,4.779,1.483,7.705c-0.378,2.322-0.763,4.86,0.42,7.039
							C406.149,92.48,406.635,92.641,407.136,92.77z"/>
					</g>
				</g>
				<g>
					<g>
						<g>
							<path style="fill:#E67032;" d="M248.326,280.622c-2.514,4.752-9.061,20.498-11.516,24.23
								c-4.392,6.68-19.645,7.676-33.43,17.362c-9.93,6.974-26.316,34.462-26.316,34.462l10.023,5.319
								c0,0,42.61-21.168,56.259-30.881c8.384-5.964,21.669-23.666,30.328-29.884C271.284,299.839,254.459,288.956,248.326,280.622z
								"/>
							<g>
								<path style="fill:#FDF3D3;" d="M191.883,334.594l-17.569,20.688c0,0-9.204,6.083-5.047,11.486
									c4.156,5.406,9.981,19.117,9.981,19.117s4.794,3.912,2.535-6.81c-2.255-10.721-0.069-11.38-0.069-11.38l24.228-15.32
									L191.883,334.594z"/>
								<g>
									<g>
										<path style="fill:#282B4D;" d="M163.113,361.319c0,0-0.254-2.118,4.042-3.865c4.297-1.746,5.604-1.45,5.604-1.45
											s1.531,4.025,3.78,6.861c2.25,2.837,4.263,4.414,5.175,4.831c0.918,0.42-1.778,7.562,2.066,12.464
											c3.799,4.843,1.58,6.602,0.111,8.091C182.426,389.741,163.113,361.319,163.113,361.319z"/>
										<path style="fill:#4E5267;" d="M160.964,362.783c0.444,2.317,2.761,5.05,4.019,6.398c2.074,2.22,4.189,4.536,5.607,7.378
											c2.277,4.54,9.855,13.703,13.302,11.691c1.951-1.135-2.669-3.754-3.753-5.178c-2.03-2.666-4.041-5.362-6.203-7.902
											c-1.541-1.813-8.054-17.344-9.953-15.717C163.982,359.454,160.411,359.876,160.964,362.783z"/>
									</g>
									<path style="fill:#F3C552;" d="M178.59,370.984c0.211,0.602,4.814,0.73,3.381-0.794
										C181.971,370.19,177.868,368.942,178.59,370.984z"/>
									<path style="fill:#F3C552;" d="M178.747,373.368c0.214,0.598,4.814,0.725,3.386-0.799
										C182.133,372.569,178.026,371.317,178.747,373.368z"/>
									<path style="fill:#F3C552;" d="M178.949,375.86c0.212,0.598,4.813,0.725,3.383-0.798
										C182.332,375.063,178.227,373.815,178.949,375.86z"/>
									<path style="fill:#F3C552;" d="M179.577,378.178c0.215,0.598,4.813,0.726,3.384-0.794
										C182.961,377.384,178.855,376.13,179.577,378.178z"/>
								</g>
								<line style="fill:none;stroke:#E2C983;stroke-miterlimit:10;" x1="175.796" y1="359.094" x2="194.279" y2="340.299"/>
								<line style="fill:none;stroke:#E2C983;stroke-miterlimit:10;" x1="178.137" y1="359.823" x2="196.414" y2="344.849"/>
								<line style="fill:none;stroke:#E2C983;stroke-miterlimit:10;" x1="179.231" y1="362.695" x2="198.922" y2="348.154"/>
								<line style="fill:none;stroke:#E2C983;stroke-miterlimit:10;" x1="181.713" y1="364.973" x2="200.943" y2="351.178"/>
							</g>
						</g>
						<path style="fill:#282B4D;" d="M262.321,307.915c2.364,1.582,4.793,3.084,7.265,4.51c5.168-3.795,10.527-8.475,16.225-14.984
							c32.477-37.09,32.221-74.515,32.221-74.515l-46.465-13.186c0,0-15.933,46.177-32.036,76.907
							C245.643,295.089,253.719,302.157,262.321,307.915z"/>
					</g>
					<g>
						<path style="fill:#E67032;" d="M342.675,160.957c24.327-1.771,41.941-13.016,45.689-16.214
							c8.098-6.912,20.912-22.017,20.912-22.017l-8.164-3.962c0,0-18.322,11.385-24.44,15.37
							c-12.659,8.253-45.582,4.621-45.582,4.621S341.584,158.681,342.675,160.957z"/>
						<path style="fill:#E67032;" d="M414.046,117.42c1.922-3.307,9.855-9.246,7.219-9.792c-1.734-0.359-3.409,2.901-5.258,3.484
							c1.285-2.984,7.645-4.476,8.202-7.672c-2.669-1.102-6.808,3.649-8.89,4.718c0.676-1.649,4.541-3.506,5.934-4.818
							c2.318-2.194,3.443-3.125,2.693-4.208c-1.463-2.119-3.293,1.04-5.467,2.789c-1.79,1.441-3.168,3.5-5.188,4.591
							c0.916-2.191,5.127-5.867,6.365-7.943c1.797-3.016-0.936-1.941-3.16-0.498c-3.314,2.155-5.682,7.832-8.51,10.009
							c-1.061-1.532,2.302-4.408,0.637-5.86c-2.037-1.769-8.375,14.552-8.695,15.693c-0.754,2.707-20.728,14.866-23.256,16.22
							c0.788,2.311,9.422,9.433,10.277,11.706C390.915,144.162,414.046,117.42,414.046,117.42z"/>
						<path style="fill:#81BC4D;" d="M318.13,134.497c0,0-10.51,11.926-4.174,19.395c6.331,7.469,11.874,14.287,18.354,16.267
							c6.477,1.982,23.791-3.471,23.791-3.471l0.596-30.132L318.13,134.497z"/>
					</g>
					<g>
						<path style="fill:#E67032;" d="M295.186,111.229c-0.078,10.33-1.092,12.185-0.391,22.118
							c0.329,4.677,13.892,11.294,13.892,11.294s7.616-7.491,7.435-10.974c-0.463-8.834-1.097-15.622-2.147-24.539
							C308.854,110.626,300.77,112.095,295.186,111.229"/>
						<path style="opacity:0.4;fill:#F4654E;" d="M295.075,117.397c1.764,3.538,2.127,5.604,6.166,11.625
							c4.033,6.007,9.152,5.525,11.68,1.963c4.133-5.83,1.799-8.214,1.799-8.214c-6.673-0.471-14.322-1.937-19.975-5.674
							C294.589,117.334,294.774,117.724,295.075,117.397"/>
						<path style="fill:#E67032;" d="M289.412,115.965c-1.864-2.451-2.2-5.363-0.752-6.509c1.45-1.149,4.135-0.095,5.997,2.352
							c1.863,2.451,2.199,5.364,0.754,6.512C293.96,119.469,291.276,118.415,289.412,115.965"/>
						<path style="fill:#E67032;" d="M299.302,99.861c-2.761,1.571-4.361,4.799-4.697,8.054c-0.339,3.253,0.428,6.547,1.465,9.666
							c0.834,2.523,1.868,5.018,3.478,7.117c3.016,3.935,8.654,6.524,14.047,2.082c2.127-1.75,2.668-3.465,3.546-6.127
							c1.866-5.662,1.857-15.841-2.119-20.313C311.044,95.865,303.985,97.199,299.302,99.861"/>
						<path style="fill:#282B4D;" d="M291.853,94.087c-3.504,0.22-5.392,3.573-5.593,6.701c-0.179,2.675,1.015,5.703,2.987,7.504
							c1.238,1.131,3.067,1.75,3.68,3.326c0.241,0.625,0.247,1.319,0.461,1.959c0.213,0.638,0.76,1.262,1.408,1.189
							c0.636-0.07,1.017-0.748,1.209-1.371c0.951-3.086-0.111-6.511,0.589-9.666c0.105-0.488,0.268-0.985,0.625-1.327
							c0.358-0.335,0.954-0.453,1.336-0.136c0.43,0.357,0.401,1.042,0.724,1.504c0.59,0.839,1.917,0.452,2.627-0.27
							c0.911-0.919,1.406-2.184,2.138-3.257c0.741-1.072,1.936-2.019,3.206-1.771c0.672,0.131,1.278,0.58,1.954,0.598
							c0.443,0.011,0.866-0.163,1.298-0.258c2.199-0.494,2.592,1.899,4.954,3.218c2.233,1.246,2.735,8.338,2.827,8.211
							c1.424-1.94,3.117-5.077,3.729-7.424c0.61-2.347,0.203-5.159-1.629-6.75c-1.313-1.143-3.288-1.663-3.928-3.298
							c-0.181-0.467-0.228-0.979-0.348-1.467c-0.562-2.228-0.776-4.887-4.41-5.959c-4.021-1.188-6.502,1.533-8.682,0.976
							c-6.888-1.761-11.016,4.215-11.028,8.026C291.985,94.449,292.315,94.061,291.853,94.087"/>
						<path style="fill:none;stroke:#551616;stroke-width:0.5;stroke-linecap:round;stroke-miterlimit:10;" d="M309.786,108.967
							c0.451,2.077,1.16,4.116,2.106,6.069c0.162,0.343,0.339,0.726,0.176,1.057c-0.076,0.158-0.22,0.276-0.37,0.379
							c-0.726,0.494-1.712,0.676-2.628,0.479"/>
						<path style="fill:none;stroke:#551616;stroke-width:0.75;stroke-linecap:round;stroke-miterlimit:10;" d="M301.729,108.218
							c1.061-1.019,4.172-1.383,5.395-0.543"/>
						<path style="fill:none;stroke:#551616;stroke-width:0.75;stroke-linecap:round;stroke-miterlimit:10;" d="M313.202,107.504
							c0.854-0.384,2.699-0.382,3.436,0.234"/>
						<path style="fill:none;stroke:#551616;stroke-width:0.75;stroke-linecap:round;stroke-miterlimit:10;" d="M305.089,117.668
							c1.941,4.071,5.143,2.99,6.34,1.836"/>
						<g>
							<path style="fill:#282B4D;" d="M305.722,110.961c-0.141,0.56-0.707,0.903-1.263,0.762c-0.564-0.135-0.912-0.701-0.771-1.26
								c0.138-0.563,0.706-0.905,1.266-0.769C305.516,109.829,305.859,110.396,305.722,110.961z"/>
							<path style="fill:#282B4D;" d="M315.642,110.067c-0.133,0.561-0.696,0.902-1.263,0.766c-0.564-0.137-0.905-0.704-0.765-1.268
								c0.133-0.56,0.705-0.903,1.262-0.765C315.438,108.937,315.781,109.504,315.642,110.067z"/>
						</g>
						<g>
							<path style="fill:#F89E1C;" d="M304.757,115.437c-0.313,0.848-1.252,1.286-2.102,0.975c-0.847-0.312-1.285-1.253-0.971-2.105
								c0.303-0.846,1.246-1.282,2.1-0.971C304.635,113.645,305.07,114.585,304.757,115.437z"/>
							<path style="fill:#F89E1C;" d="M316.782,115.538c-0.314,0.85-1.253,1.287-2.103,0.974c-0.848-0.311-1.29-1.252-0.974-2.102
								c0.311-0.849,1.251-1.287,2.099-0.973C316.655,113.748,317.095,114.688,316.782,115.538z"/>
						</g>
					</g>
					<g>
						<g>
							<path style="fill:#E67032;" d="M353.063,381.247c0,0-8.678-18.262-7.557-36.254c0.838-13.459,10.815-23.183,10.65-31.245
								c-0.185-9.454-29.435-26.061-29.435-26.061s28.848-19.91,35.036-14.801c30.036,24.815,19.509,40.492,16.247,59.722
								c-2.442,14.403-10.299,47.263-10.299,47.263L353.063,381.247z"/>
							<g>
								<path style="fill:#FDF3D3;" d="M347.832,367.479l4.788,26.718c0,0-1.159,10.973,5.653,11.202
									c6.815,0.231,21.101,4.458,21.101,4.458s6.064-1.214-3.643-6.291c-9.706-5.078-8.825-7.184-8.825-7.184l3.591-28.44
									L347.832,367.479z"/>
								<g>
									<g>
										<path style="fill:#282B4D;" d="M350.154,406.677c0,0-1.795-1.15-0.411-5.577c1.384-4.425,2.446-5.245,2.446-5.245
											s4.081,1.381,7.699,1.447c3.619,0.071,6.115-0.48,7.018-0.92c0.906-0.439,4.705,6.185,10.934,6.333
											c6.148,0.149,6.1,2.983,6.313,5.064C384.368,409.854,350.154,406.677,350.154,406.677z"/>
										<path style="fill:#4E5267;" d="M349.917,409.267c2.069,1.131,5.652,1.084,7.493,0.969
											c3.034-0.188,6.166-0.346,9.261,0.367c4.953,1.133,16.841,1.113,17.482-2.824c0.365-2.229-4.599-0.328-6.386-0.4
											c-3.346-0.127-6.702-0.291-10.041-0.24c-2.379,0.036-18.507-4.816-18.459-2.318
											C349.267,404.819,347.323,407.847,349.917,409.267z"/>
									</g>
									<path style="fill:#F3C552;" d="M367.459,400.883c0.599,0.222,3.623-3.25,1.534-3.114
										C368.993,397.769,365.421,400.142,367.459,400.883z"/>
									<path style="fill:#F3C552;" d="M369.395,402.277c0.598,0.219,3.623-3.251,1.539-3.118
										C370.934,399.159,367.353,401.532,369.395,402.277z"/>
									<path style="fill:#F3C552;" d="M371.446,403.708c0.597,0.218,3.624-3.252,1.536-3.119
										C372.982,400.589,369.409,402.965,371.446,403.708z"/>
									<path style="fill:#F3C552;" d="M373.636,404.698c0.599,0.215,3.623-3.253,1.536-3.119
										C375.172,401.579,371.596,403.952,373.636,404.698z"/>
								</g>
								<line style="fill:none;stroke:#E2C983;stroke-miterlimit:10;" x1="356.508" y1="395.478" x2="353.762" y2="369.26"/>
								<line style="fill:none;stroke:#E2C983;stroke-miterlimit:10;" x1="358.557" y1="394.135" x2="358.629" y2="370.507"/>
								<line style="fill:none;stroke:#E2C983;stroke-miterlimit:10;" x1="361.47" y1="395.116" x2="362.773" y2="370.671"/>
								<line style="fill:none;stroke:#E2C983;stroke-miterlimit:10;" x1="364.805" y1="394.651" x2="366.392" y2="371.038"/>
							</g>
						</g>
						<path style="fill:#4E5267;" d="M273.051,201.728c0,0-13.776,23.359-14.606,31.304c-0.833,7.939,0.239,24.398,16.885,33.164
							c16.645,8.77,55.622,43.861,55.622,43.861l45.587-25.177c0,0-45.27-44.938-50.548-52.014
							c-5.282-7.076-2.282-21.314-2.282-21.314L273.051,201.728z"/>
						<path style="fill:none;stroke:#FFFFFF;stroke-miterlimit:10;" d="M284.358,245.935c1.057,13.404,18.693,24.879,29.611,31.093
							c10.708,6.092,24.683,16.015,32.777,24.307"/>
					</g>
					<g>
						<path style="fill:#E67032;" d="M213.402,152.232c3.297,9.826,6.735,21.579,14.587,22.884
							c7.855,1.303,46.389-17.287,46.389-17.287s-1.645-19.047-4.179-21.665c-2.53-2.62-31.119,14.394-38.774,14.397
							c-4.196,0.001-2.238-2.593-10.666-16.605c-8.289-13.783-7.926-17.82-7.926-17.82L206,123.281
							C206,123.281,210.109,142.407,213.402,152.232z"/>
						<path style="fill:#81BC4D;" d="M250.097,172.645l25.371-6.756c0,0-0.446-12.134,5.289-24.609
							c5.135-11.175,5.135-11.175,5.135-11.175s-11.645-0.111-22.826,3.72c-11.186,3.83-22.143,7.7-22.143,7.7L250.097,172.645z"/>
						<g>
							<g>
								<g>
									
										<line style="fill:none;stroke:#E2C983;stroke-width:0.5;stroke-miterlimit:10;" x1="235.571" y1="75.213" x2="262.718" y2="44.67"/>
									
										<line style="fill:none;stroke:#E2C983;stroke-width:0.5;stroke-miterlimit:10;" x1="234.365" y1="70.698" x2="257.015" y2="44.549"/>
									
										<line style="fill:none;stroke:#E2C983;stroke-width:0.5;stroke-miterlimit:10;" x1="250.157" y1="88.335" x2="277.81" y2="57.685"/>
									
										<line style="fill:none;stroke:#E2C983;stroke-width:0.5;stroke-miterlimit:10;" x1="255.26" y1="88.383" x2="277.961" y2="63.765"/>
									
										<line style="fill:none;stroke:#E2C983;stroke-width:0.5;stroke-miterlimit:10;" x1="237.017" y1="80.155" x2="266.804" y2="45.46"/>
									
										<line style="fill:none;stroke:#E2C983;stroke-width:0.5;stroke-miterlimit:10;" x1="240.612" y1="84.784" x2="272.318" y2="48.554"/>
									
										<line style="fill:none;stroke:#E2C983;stroke-width:0.5;stroke-miterlimit:10;" x1="244.849" y1="87.415" x2="275.61" y2="52.631"/>
									
										<line style="fill:none;stroke:#E2C983;stroke-width:0.5;stroke-miterlimit:10;" x1="263.938" y1="44.784" x2="270.813" y2="79.227"/>
									
										<line style="fill:none;stroke:#E2C983;stroke-width:0.5;stroke-miterlimit:10;" x1="268.232" y1="45.182" x2="274.295" y2="75.807"/>
									
										<line style="fill:none;stroke:#E2C983;stroke-width:0.5;stroke-miterlimit:10;" x1="272.816" y1="47.987" x2="276.336" y2="68.517"/>
									
										<line style="fill:none;stroke:#E2C983;stroke-width:0.5;stroke-miterlimit:10;" x1="258.974" y1="44.322" x2="267.291" y2="82.65"/>
									
										<line style="fill:none;stroke:#E2C983;stroke-width:0.5;stroke-miterlimit:10;" x1="254.59" y1="44.952" x2="263.876" y2="84.187"/>
									
										<line style="fill:none;stroke:#E2C983;stroke-width:0.5;stroke-miterlimit:10;" x1="251.534" y1="47.771" x2="260.839" y2="85.827"/>
									
										<line style="fill:none;stroke:#E2C983;stroke-width:0.5;stroke-miterlimit:10;" x1="248.911" y1="47.478" x2="257.13" y2="87.184"/>
									
										<line style="fill:none;stroke:#E2C983;stroke-width:0.5;stroke-miterlimit:10;" x1="246.37" y1="49.166" x2="253.378" y2="88.633"/>
									
										<line style="fill:none;stroke:#E2C983;stroke-width:0.5;stroke-miterlimit:10;" x1="243.77" y1="52.362" x2="250.352" y2="89.424"/>
									
										<line style="fill:none;stroke:#E2C983;stroke-width:0.5;stroke-miterlimit:10;" x1="240.979" y1="55.129" x2="248.063" y2="88.377"/>
									
										<line style="fill:none;stroke:#E2C983;stroke-width:0.5;stroke-miterlimit:10;" x1="238.931" y1="57.489" x2="244.849" y2="87.415"/>
									
										<line style="fill:none;stroke:#E2C983;stroke-width:0.5;stroke-miterlimit:10;" x1="236.697" y1="63.091" x2="241.411" y2="85.438"/>
								</g>
								<g>
									<path style="fill:#282B4D;" d="M241.551,53.613c9.014-10.301,23.038-12.825,31.266-5.626
										c8.223,7.2,7.577,21.437-1.437,31.737c-9.016,10.301-23.04,12.825-31.266,5.624
										C231.889,78.152,232.537,63.914,241.551,53.613z M242.681,54.604c-8.468,9.677-9.178,22.962-1.577,29.612
										c7.602,6.653,20.678,4.193,29.144-5.482c8.47-9.677,9.177-22.961,1.574-29.612
										C264.224,42.468,251.151,44.93,242.681,54.604z"/>
								</g>
								<g>
									<path style="fill:#282B4D;" d="M231.154,95.355l1.134,0.995c5.671-6.48,17.1-6.998,17.213-7.007l-0.056-1.501
										C248.95,87.861,237.255,88.387,231.154,95.355z"/>
								</g>
								<g>
									<path style="fill:#282B4D;" d="M230.245,94.562l1.135,0.991c6.1-6.968,5.071-18.633,5.028-19.124l-1.503,0.139
										C234.917,76.684,235.92,88.085,230.245,94.562z"/>
								</g>
							</g>
							<g>
								<g>
									<path style="fill:#282B4D;" d="M195.163,133.212l3.366,2.941c0.591,0.515,1.485,0.454,2.003-0.134l36.569-41.787
										c0.52-0.594,0.458-1.489-0.128-2.001l-3.363-2.943c-0.592-0.516-1.49-0.461-2.001,0.131l-36.577,41.787
										C194.516,131.794,194.575,132.691,195.163,133.212z"/>
								</g>
								<g>
									
										<rect x="202.265" y="123.464" transform="matrix(-0.7523 -0.6588 0.6588 -0.7523 278.918 353.505)" style="fill:#FFFFFF;" width="7.304" height="1.705"/>
								</g>
							</g>
						</g>
						<path style="fill:#E67032;" d="M206.861,108.546c-3.675,2.581-6.979,5.158-5.319,10.014c0.47,1.379,1.298,3.559,2.732,4.356
							c2.715,1.507,2.911-0.298,4.642-2.03c2.97-2.974,7.882-3.697,6.017-9.71C214.933,111.175,211.38,105.372,206.861,108.546z"/>
					</g>
					<g>
						<path style="fill:#81BC4D;" d="M255.379,230.151l11.513-73.572c0,0,9.963-6.095,11.133-15.775
							c1.171-9.681,1.171-9.681,1.171-9.681s6.548-3.226,14.169-0.279c2.821,1.092,8.396,12.497,14.684,13.479
							c5.862,0.915,4.625-11.82,10.082-9.827c4.492,1.643,16.008,7.031,18.183,10.103c4.483,6.335,1.775,91.188,1.775,91.188
							C310.27,254.858,255.379,230.151,255.379,230.151z"/>
						<g>
							<path style="fill:#ADDB82;" d="M286.647,129.874c0,0,0.619,3.527,2.611,7.568c1.996,4.041,4.445,6.897,4.445,6.897
								l7.777-7.249c0,0-1.885-1.566-4.351-3.756c-2.47-2.189-2.575-5.402-2.575-5.402L286.647,129.874z"/>
							<polygon style="fill:#ADDB82;" points="308.968,144.362 301.481,137.09 298.813,139.575 308.429,145.708 							"/>
							<polygon style="fill:#ADDB82;" points="308.048,144.323 316.122,133.667 318.13,134.497 308.429,145.708 							"/>
							<path style="fill:#ADDB82;" d="M315.964,130.811c0,0-0.957,4.56-1.905,5.581c-0.946,1.02,4.709,2.478,4.709,2.478
								l3.808-4.951c0,0-2.492-0.451-3.282-0.71C318.294,132.882,315.964,130.811,315.964,130.811z"/>
						</g>
						<path style="fill:#FFFFFF;" d="M264.02,173.013c0,0,28.351,6.122,44.351,5.05c15.999-1.071,30.278-4.495,30.278-4.495
							l-0.173,20.454c0,0-16.75,4.889-36.945,3.763c-20.197-1.126-40.286-5.537-40.286-5.537L264.02,173.013z"/>
						<g>
							<path style="fill:none;stroke:#5A892E;stroke-miterlimit:10;" d="M281.574,229.103c4.077-7.374,13.676-8.033,20.505-11.382
								c6.556-3.219,17.196-6.968,20.645-12.935"/>
							<path style="fill:none;stroke:#5A892E;stroke-miterlimit:10;" d="M303.058,234.682c3.161-5.602,10.295-6.455,15.653-8.764
								c5.689-2.45,8.649-7.222,12.343-11.66"/>
							<path style="fill:none;stroke:#5A892E;stroke-miterlimit:10;" d="M310.616,169.89c3.974-2.313,7.361-4.851,10.357-8.361
								c1.529-1.793,2.912-3.607,4.121-5.643c1.054-1.778,3.41-5.034,2.119-4.92"/>
						</g>
					</g>
				</g>
			</g>
			<g>
				<g>
					<path style="fill:#FD9A6E;" d="M269.473,350.637c5.653,5.686,19.561,28.923,25.926,36.733c4.551,5.58,5.873,6.59,14.691,10.795
						c6.924,3.303,6.652,2.352,5.473,3.984c-1.176,1.621-5.045,2.809-15.501,0.529c-10.46-2.289-14.475,1.553-17.36-0.221
						c-2.886-1.776-1.088-9.574-2.566-12.199c-1.48-2.619-24.16-23.295-27.928-28.591L269.473,350.637z"/>
					<path style="fill:#FD9A6E;" d="M81.474,343.983c0.499,5.078-2.624,19.488-2.423,29.727c0.18,8.979,0.088,9.964,0.179,12.903
						c0.11,3.668-5.282,2.268-14.295,3.373c-8.832,1.09-16.757,2.178-17.862,0.462c-0.656-1.019,5.575-4.514,9.254-6.335
						c11.806-5.831,9.258-9.72,8.266-14.19c-1.731-7.823-5.665-32.388-5.665-32.388L81.474,343.983z"/>
					<path style="fill:#FDF3D3;" d="M284.236,365.868c-7.266-13.354-16.509-30.115-21.366-38.041
						c-8.744-14.285-19.104-20.303-35.794-37.082c-34.766-34.957-62.359-44.036-62.359-44.036l-8.243,50.737
						c0,0,50.396,20.133,76.936,40.339c6.362,4.842,5.51,16.218,14.226,30.64c2.232,3.696,6.263,8.778,10.534,13.791
						C267.167,377.27,275.909,371.869,284.236,365.868z"/>
					<path style="fill:#FDF3D3;" d="M168.564,246.886c0,0,7.731,22.939,6.997,30.034c-0.737,7.089-6.422,17.298-22.572,21.892
						c-16.156,4.593-48.839,18.144-60.688,22.574c-6.844,2.56-10.56,2.487-10.56,2.487s-24.513,4.694-24.326-1.281
						c0.645-20.851,11.556-30.467,23.25-39.554c11.692-9.093,33.63-14.955,39.546-20.166c5.917-5.208,7.854-17.841,7.854-17.841
						L168.564,246.886z"/>
					<path style="fill:#FDF3D3;" d="M56.057,347.229c8.702,0.416,17.441,0.054,26.17-0.134c-0.197-5.46-0.284-8.914,0.72-13.242
						c1.901-8.225,25.529-18.781,25.529-18.781s-42.128-17.729-46.394-11.969C50.472,318.765,56.181,345.484,56.057,347.229z"/>
					<path style="fill:#FDF3D3;" d="M137.753,158.182c-11.32,7.663-16.431,24.099-16.846,40.007
						c-0.309,11.814,0.269,22.961,2.468,39.88c1.679,12.883-0.586,9.457,8.869,12.099c23.622,6.603,46.649,4.339,47.879-1.436
						c1.227-5.776,10.005-47.945,10.613-55.905c0.589-7.721-1.036-17.649-9.478-20.715
						C169.139,167.71,150.847,149.32,137.753,158.182z"/>
					<path style="fill:#FD9A6E;" d="M156.347,107.67c-0.448-3.002-5.603-5.631-6.055-8.641c-14.511,0.413-46.519,4.677-51.8,11.558
						c-5.304,6.909-0.398,30.264,14.727,47.346l17.497-12.395l-13.574-27.451c0,0,6.909-3.287,24.801-7.493
						C144.489,109.996,154.501,107.894,156.347,107.67z"/>
					<path style="fill:#FD9A6E;" d="M291.806,207.241c-5.993,0.089-7.998-1.699-9.293-3.583c1.167-0.199,2.365-0.063,3.568-0.11
						c1.416-0.053,2.373-0.619,2.221-2.083c-0.155-1.501-1.889-1.644-3.028-1.718c-1.423-0.09-2.863-0.231-4.28-0.023
						c-11.552,1.697-69.148-15.564-86.12-21.078l-7.751,22.607c0,0,82.41,8.134,86.338,8.268c2.161,0.069,6.561,4.864,12.839,5.895
						c5.127,0.85,6.58,1.139,11.271-1.778C307.494,207.464,303.359,207.062,291.806,207.241z"/>
					<g>
						<path style="fill:#282B4D;" d="M164.6,128.841c-0.965-3.275-5.808-5.828-10.056-5.301c-3.472,0.432-5.979,2.53-7.715,4.764
							c-1.959,2.524-3.275,5.469-2.824,8.514c0.457,3.044,2.963,6.162,6.774,7.423c1.189,0.393,2.566,0.593,3.673,0.214
							c1.39-0.473,1.962-1.693,2.363-2.816c1.443-4.051,2.547-8.688,7.194-10.867c0.37-0.173,0.763-0.332,1.019-0.595
							C165.565,129.626,165.225,128.681,164.6,128.841"/>
						<path style="opacity:0.5;fill:#282B4D;" d="M164.6,128.841c-0.353-1.203-1.234-2.307-2.411-3.198
							c-0.291,0.354-0.563,0.716-0.803,1.101c-1.041,1.654-2.027,3.357-3.193,4.93c-1.68,2.268-3.532,5.153-6.32,6.157
							c-2.24,0.806-4.947,0.328-6.213-1.854c-0.71-1.224-1.006-2.607-0.993-4.002c-0.627,1.552-0.908,3.181-0.661,4.843
							c0.457,3.044,2.963,6.162,6.774,7.423c1.189,0.393,2.566,0.593,3.673,0.214c1.39-0.473,1.962-1.693,2.363-2.816
							c1.443-4.051,2.547-8.688,7.194-10.867c0.37-0.173,0.763-0.332,1.019-0.595C165.565,129.626,165.225,128.681,164.6,128.841z"
							/>
						<g>
							<path style="fill:#FD9A6E;" d="M158.4,147.639c-2.446,8.322-7.034,16.292-5.743,21.821
								c0.932,3.97,11.051,14.758,11.051,14.758s3.12-2.495,5.557-7.034c1.602-2.987,0.905-5.999,1.471-9.423
								c1.012-6.132,2.152-11.204,3.561-16.389C169.584,150.592,163.271,149.289,158.4,147.639z"/>
							<path style="opacity:0.3;fill:#E38566;" d="M158.747,162.29c3.83,6.852,10.297,8.024,11.808,8.251
								c0.892-7.383,2.116-13.193,3.742-19.169c-4.713-0.78-11.025-2.083-15.896-3.733c-0.683,2.32-1.326,4.534-1.972,6.718
								C157.463,156.916,157.401,159.874,158.747,162.29z"/>
						</g>
						<path style="fill:#FD9A6E;" d="M169.886,133.414c-2.548-0.822-5.436-0.02-7.514,1.622c-2.086,1.641-3.455,4.02-4.367,6.489
							c-1.459,3.954-1.857,8.287-1.146,12.442c0.513,2.98,1.638,5.951,3.773,8.132c5.185,5.298,11.299,4.885,15.188,0.944
							c2.957-3.002,4.786-8.525,6.307-12.435c1.518-3.907,1.492-8.622-1.02-12.018C178.11,134.541,172.53,133.354,169.886,133.414"
							/>
						<path style="opacity:0.3;fill:#E38566;" d="M159.153,145.549c2.08-2.781,3.942-6.127,7.023-7.907
							c3.436-1.987,8.188-1.282,11.575,0.524c1.837,0.974,3.575,2.383,5.036,4.034c-0.325-1.293-0.874-2.52-1.68-3.611
							c-2.998-4.049-8.578-5.235-11.223-5.176c-2.548-0.822-5.436-0.02-7.514,1.622c-2.027,1.594-3.372,3.887-4.285,6.281
							C158.395,142.744,158.547,144.217,159.153,145.549z"/>
						<g>
							<path style="fill:#282B4D;" d="M173.325,127.499c-1.07-1.006-3.493-1.394-4.963-1.31c-1.477,0.082-2.886,0.622-4.172,1.323
								c-4.307,2.344-6.99,6.737-8.418,11.371c-0.287,0.923-0.383,3.53-0.131,3.84c0.686,0.834,2.76,1.13,3.184,2.119
								c1.494-2.449,2.26-5.384,4.46-7.243c2.201-1.861,6.314-2.611,9.137-1.906C173.017,133.862,173.325,127.499,173.325,127.499"
								/>
							<path style="fill:#282B4D;" d="M173.089,127.305c-0.119,2.8-0.17,5.629-0.667,8.388c3.883,0.147,7.657,2.874,9.567,6.206
								c2.303,4.021,0.855,5.991-0.593,10.521c3.723-2.74,8.249-12.26,1.632-20.547c-2.099-2.627-6.217-4.921-9.68-4.538
								L173.089,127.305z"/>
						</g>
						<path style="fill:#FD9A6E;" d="M159.251,143.98c-0.58-1.37-1.565-2.987-3.287-2.907c-1.118,0.049-2.053,0.884-2.422,1.799
							c-0.369,0.915-0.291,1.897-0.198,2.848c0.123,1.249,0.272,2.509,0.785,3.673c0.511,1.16,1.433,2.227,2.748,2.739
							c0.716,0.28,1.652,0.355,2.257-0.112c0.322-0.252,0.492-0.613,0.624-0.965C160.747,148.449,159.991,145.739,159.251,143.98z"
							/>
						<g>
							<g>
								<path style="fill:none;stroke:#551616;stroke-width:0.75;stroke-linecap:round;stroke-miterlimit:10;" d="M165.346,143.487
									c1.339-0.337,3.452-0.249,5.448,0.234"/>
								<path style="fill:none;stroke:#551616;stroke-width:0.75;stroke-linecap:round;stroke-miterlimit:10;" d="M176.359,145.157
									c2.466,0.264,3.74,0.758,4.648,2.221"/>
								<path style="fill:none;stroke:#551616;stroke-width:0.5;stroke-linecap:round;stroke-miterlimit:10;" d="M174.155,146.472
									c-1.788,3.087,0.949,8.245-2.102,7.798"/>
								<path style="fill:none;stroke:#551616;stroke-width:0.5;stroke-linecap:round;stroke-miterlimit:10;" d="M169.822,152.914
									c0.218,0.267,0.499,0.516,0.843,0.732"/>
								<path style="fill:none;stroke:#551616;stroke-width:0.75;stroke-linecap:round;stroke-miterlimit:10;" d="M174.325,157.67
									c-2.037,0.898-5.089,1.909-7.311-2.029"/>
							</g>
							<g>
								<path style="fill:#282B4D;" d="M169.928,146.725c-0.336,0.471-0.989,0.583-1.456,0.247
									c-0.474-0.332-0.586-0.985-0.252-1.454c0.334-0.475,0.986-0.585,1.458-0.252
									C170.148,145.598,170.263,146.251,169.928,146.725z"/>
								<path style="fill:#282B4D;" d="M179.488,149.524c-0.329,0.473-0.98,0.585-1.456,0.251c-0.478-0.334-0.587-0.987-0.251-1.459
									c0.333-0.472,0.988-0.583,1.461-0.251C179.71,148.398,179.822,149.051,179.488,149.524z"/>
							</g>
							<g>
								<path style="fill:#E67032;" d="M167.876,151.259c-0.484,0.683-1.43,0.846-2.113,0.363c-0.684-0.483-0.848-1.431-0.36-2.117
									c0.476-0.683,1.423-0.844,2.112-0.36C168.196,149.628,168.362,150.573,167.876,151.259z"/>
								<path style="fill:#E67032;" d="M178.599,154.254c-0.485,0.684-1.432,0.847-2.114,0.362
									c-0.684-0.482-0.849-1.429-0.364-2.113c0.481-0.684,1.432-0.848,2.113-0.364
									C178.92,152.624,179.081,153.569,178.599,154.254z"/>
							</g>
						</g>
					</g>
					<path style="fill:#FDF3D3;" d="M147.91,155.941l-18.801-26.744c0,0-7.746,5.925-13.364,10.263
						c-6.503,5.021-16.22,5.664-16.22,5.664s20.215,36.152,21.963,40.689c1.746,4.537,5.979-0.237,10.652-5.009
						C136.813,176.03,147.91,155.941,147.91,155.941z"/>
					<path style="fill:#FDF3D3;" d="M182.892,212.244l36.193,3.514c0,0,1.539-9.075,2.691-16.081c1.333-8.106,7.8-15.206,7.8-15.206
						s-48.319-12.357-52.688-14.486c-4.371-2.126,0.753,6.64,0.588,13.319C177.311,189.982,182.892,212.244,182.892,212.244z"/>
					<path style="fill:#E67032;" d="M124.679,247.597c0,0-0.843,8.292-0.483,9.195c0.359,0.906,15.81,4.145,23.202,4.353
						c7.392,0.207,14.95,0.79,25.958-0.437c4.686-0.52,8.924-2.32,8.924-2.32l-2.157-9.656c0,0-1.702,2.073-15.464,3.116
						C150.899,252.894,124.679,247.597,124.679,247.597z"/>
					<path style="fill:#F9D33A;" d="M147.453,164.652c2.365,14.982,36.255,66.58,36.255,66.58l2.447-12.141
						c0,0-27.041-42.232-30.109-48.414c-3.072-6.181-1.748-13.055-1.748-13.055l-3.751-1.192
						C150.547,156.429,147.11,162.483,147.453,164.652z"/>
					<path style="fill:#F9D33A;" d="M109.165,301.956c-10.354,2.851-25.871,10.358-30.447,18.062
						c-4.938,8.315-1.985,18.132-4.027,27.26c2.512-0.058,5.024-0.129,7.536-0.182c-0.197-5.46-0.284-8.914,0.72-13.242
						c1.901-8.225,25.529-18.781,25.529-18.781c14.328-5.647,39.106-15.07,50.255-18.307
						C153.813,296.374,120.262,298.9,109.165,301.956z"/>
					<path style="fill:none;stroke:#E2C983;stroke-miterlimit:10;" d="M137.383,196.865c3.734,5.335,3.896,14.655,7.395,21.174
						c3.03,5.645,12.469,18.93,17.883,19.516"/>
					<path style="fill:none;stroke:#E2C983;stroke-miterlimit:10;" d="M133.995,219.239c1.57,3.214,3.713,6.273,5.823,9.042
						c2.019,2.654,5.695,4.25,7.035,7.114"/>
					<path style="fill:none;stroke:#E2C983;stroke-miterlimit:10;" d="M168.716,231.681c-2.29-2.013-4.176-5.416-5.314-8.24"/>
					<path style="fill:none;stroke:#E2C983;stroke-miterlimit:10;" d="M236.698,334.761c-0.253-3.064,0.762-6.622,2.251-9.168"/>
					<path style="fill:none;stroke:#E2C983;stroke-miterlimit:10;" d="M239.554,339.332c0.848-3.192,4.059-9.208,7.592-9.771"/>
					<path style="fill:none;stroke:#E2C983;stroke-miterlimit:10;" d="M188.025,209.26c0.181-2.776-0.52-5.373-0.903-8.007"/>
					<g>
						<path style="fill:#E67032;" d="M150.819,253.844c0,0-3.993-2.454-14.832,19.516c-10.836,21.975-12.718,25.49-19.66,39.101
							c-6.938,13.607-12.229,21.041-12.229,21.041s7.465,6.38,8.681,6.972c1.211,0.593,4.098,2.617,4.098,2.617
							s4.844-10.697,11.195-26.897c6.352-16.208,6.384-20.429,14.762-39.742C151.216,257.132,150.819,253.844,150.819,253.844z"/>
						<path style="fill:#E67032;" d="M151.043,256.78c0,0-5.829-0.5-7.487,20.743c-1.656,21.236-2.093,24.694-3.383,37.933
							c-1.289,13.236-3.728,21.006-3.728,21.006s11.793,2.35,13.487,2.376c1.697,0.027,6.037,0.591,6.037,0.591
							s0.31-10.188-0.368-25.263c-0.675-15.073-2.73-18.415-2.602-36.677C153.132,259.229,151.043,256.78,151.043,256.78z"/>
					</g>
				</g>
				<path style="fill:#FD9A6E;" d="M178.319,98.047c-1.825-0.305-11.537,1.823-12.137,1.539c-0.225-0.106-0.28-0.323-0.265-0.553
					c0.03-0.45,0.362-0.825,0.797-0.943c5.433-1.476,10.05-4.251,9.364-5.687c-0.709-1.482-2.573-0.014-6.803,1.803
					c-4.23,1.817-9.117,1.735-10.059,1.115c-0.939-0.622,2.511-2.279,3.639-5.359c1.129-3.079-1.25-5.44-1.66-4.134
					c-0.407,1.304-2.108,4.908-6.383,7.819c-4.273,2.911-5.636,6.174-6.416,6.334l-5.797,0.884c1.342,2.724,2.854,5.399,4.161,8.136
					c2.414-0.616,3.966-0.956,3.966-0.956c2.407,3.168,13.399-0.08,13.992,0.25c1.068,0.595,7.895,2.856,8.195,1.031
					c0.224-1.349-7.448-2.676-7.271-3.12c0.18-0.443,9.127-0.38,11.258-0.546c2.132-0.167,2.461-1.86,0.819-2.608
					c-1.189-0.543-10.503,0.933-11.417-0.235c-0.915-1.169,11.133-1.508,12.467-2.559C179.936,99.341,179.243,98.202,178.319,98.047
					z"/>
			</g>
			<g>
				<g>
					<g>
						<path style="fill:#FDF3D3;" d="M534.779,368.626c-2.325-13.248,6.497-25.9,19.657-28.207
							c13.168-2.309,25.767,6.584,28.088,19.836c2.322,13.244-6.496,25.895-19.662,28.203
							C549.698,390.769,537.1,381.868,534.779,368.626z"/>
					</g>
					<g>
						<path style="fill:#282B4D;" d="M556.722,382.819l-4.801-7.279c-0.289-0.133-0.583-0.258-0.879-0.369l-9.822,0.412
							c-0.068,0.225-0.506,5.172-0.506,5.172c2.934,3.248,6.698,5.672,10.888,6.971l0.617,0.002l4.656-4.336
							C556.817,383.216,556.759,383.021,556.722,382.819z"/>
						<path style="fill:#282B4D;" d="M560.855,346.396l4.803,7.277c0.291,0.133,0.583,0.258,0.881,0.367l9.823-0.41
							c0.065-0.225,0.505-5.172,0.505-5.172c-2.936-3.248-6.7-5.67-10.888-6.969l-0.619-0.004l-4.658,4.336
							C560.761,345.993,560.819,346.192,560.855,346.396z"/>
						<path style="fill:#282B4D;" d="M551.344,371.308c0.149,0.066,11.241-1.668,11.732-2.24l2.413-10.664
							c0.001-0.022-11.081-4.182-11.081-4.182c-0.237,0.059-0.466,0.102-0.703,0.135l-8.036,6.828l-0.06,0.012l0.017,0.059
							c0.047,0.111,0.083,0.227,0.125,0.338l5.624,9.691L551.344,371.308z"/>
						<path style="fill:#282B4D;" d="M580.397,370.13l-5.823,1.885c-0.336,0.455-4.834,8.648-4.834,8.648
							c-0.107,0.268-0.155,0.547-0.201,0.824l2.229,3.248l0.446-0.08c4.092-2.781,7.225-6.77,9.006-11.363L580.397,370.13z"/>
						<path style="fill:#282B4D;" d="M537.699,363.562l3.406-7.279c0,0,0.267-0.561,0.24-0.701l-1.677-6.285
							c-3.478,4.422-5.423,10.025-5.22,15.932l2.825-1.242C537.41,363.841,537.556,363.702,537.699,363.562z"/>
					</g>
				</g>
				<g>
					<g>
						<path style="fill:#E67032;" d="M638.575,281.819c-3.699-10.141-8.331-18.781-12.494-28.751
							c-1.18-2.363-2.287-4.775-3.32-7.235c-1.929-3.94-3.789-7.932-5.584-11.96c-1.732-3.641-3.473-7.283-5.128-10.979
							c-0.837-1.876-1.67-3.776-2.399-5.713c-0.726-1.943-1.391-3.91-2.021-5.885c-0.876-2.737-1.672-5.492-2.472-8.247
							c-0.412-1.223-0.823-2.45-1.223-3.678c-0.45,0.007-0.906,0.025-1.343,0.021c-1.44-0.014-2.884-0.031-4.323-0.046
							c-5.49-0.06-10.98-0.119-16.473-0.179c-0.215-0.749-1.044-1.265-1.282-0.467c-2.896,9.633-7.764,21.177-4.004,32.222
							c2.193,6.43,18.104,32.502,21.409,38.248c3.378,5.875,16.621,22.42,19.497,28.256c6.016,12.205,2.666,13.967,7.655,26.49
							c1.4,3.525,8.7,22.215,10.381,25.564c1.751,3.488,3.503,6.979,5.258,10.467c0.748,1.496,1.447,3.172,2.355,4.537
							c0.914,1.379,2.004,1.82,3.157,1.844c2.639,0.047,5.117-0.631,7.369-1.863c0.251-0.137,0.387-0.564,0.347-0.957
							c-1.368-13.66-2.746-27.355-5.188-41.103c-1.185-6.676-1.93-14.58-3.715-21.201
							C643.273,294.685,638.575,281.819,638.575,281.819z"/>
						<path style="fill:#282B4D;" d="M633.729,254.184c-1.134-2.451-2.275-4.902-3.411-7.351c-1.367-2.301-2.62-4.665-3.759-7.086
							c-2.222-3.843-4.331-7.751-6.344-11.708c-1.982-3.556-3.976-7.111-5.831-10.74c-0.94-1.845-1.87-3.711-2.634-5.635
							c-0.764-1.932-1.435-3.898-2.048-5.878c-0.857-2.743-1.59-5.52-2.325-8.296c-0.415-1.223-0.824-2.45-1.222-3.679
							c-0.671,0.082-1.347,0.175-1.996,0.242c-2.141,0.22-4.282,0.439-6.422,0.656c-8.157,0.837-25.813,1.341-26.298,2.222
							c-5.88,10.634-5.584,23.409-1.795,34.445c2.21,6.425,5.406,12.454,8.945,18.265c3.539,5.794,7.342,11.439,11.315,16.96
							c1.636,2.27,3.308,4.508,5.008,6.73C607.227,266.427,621.208,261.241,633.729,254.184z"/>
						<g>
							<path style="fill:#F9D33A;" d="M654.771,369.374c-2.815-31.215-8.25-62.475-8.25-62.475s-7.517-1.328-16.383,2.885
								c-5.714,2.709-7.958,5.154-7.958,5.154s3.274,25.295,9.509,37.775c6.234,12.486,14.952,26.772,14.952,26.772l9.227-4.578
								C655.868,374.907,654.896,370.776,654.771,369.374z"/>
							<path style="fill:#81BC4D;" d="M650.732,334.505c0,0-8.435-1.051-13.829,0.906c-5.398,1.955-9.989,4.205-9.989,4.205
								l-1.526-6.746c0,0,1.806-2.09,11.615-4.441c6.259-1.5,12.815-0.168,12.815-0.168L650.732,334.505z"/>
							<path style="fill:#4E5267;" d="M649.157,324.079c0,0-8.831-1.102-14.483,0.949c-5.652,2.047-10.191,3.555-10.191,3.555
								l-1.308-7.129c0,0,1.333-1.275,11.606-3.736c6.552-1.576,13.337-1,13.337-1L649.157,324.079z"/>
							<g>
								<g>
									<path style="fill:#E67032;" d="M638.156,381.454c0,0-2.134-1.039-1.18-6.111c0.956-5.078,2.019-6.121,2.019-6.121
										s4.688,0.994,8.699,0.598c4.011-0.395,6.699-1.33,7.639-1.936c0.947-0.603,6.192,3.695,12.418,6.752
										c5.992,2.934,6.869,3.816,7.381,6.086C675.638,382.989,638.156,381.454,638.156,381.454z"/>
									<path style="fill:#E67032;" d="M639.133,380.788c0.17,1.399-0.218,2.596-0.87,2.678c-0.653,0.08-1.316-0.992-1.487-2.387
										c-0.175-1.396,0.219-2.594,0.871-2.672C638.296,378.325,638.966,379.396,639.133,380.788z"/>
									<path style="fill:#E67032;" d="M641.969,380.452c0.171,1.396-0.221,2.594-0.873,2.672
										c-0.652,0.082-1.317-0.988-1.488-2.383c-0.172-1.396,0.218-2.594,0.872-2.674
										C641.13,377.987,641.798,379.056,641.969,380.452z"/>
									<path style="fill:#E67032;" d="M645.037,380.642c0.172,1.398-0.219,2.596-0.87,2.672c-0.652,0.082-1.317-0.988-1.489-2.383
										c-0.171-1.395,0.222-2.598,0.87-2.674C644.2,378.179,644.867,379.245,645.037,380.642z"/>
									<path style="fill:#E67032;" d="M647.945,380.47c0.173,1.396-0.22,2.594-0.87,2.672c-0.653,0.084-1.319-0.988-1.49-2.383
										c-0.169-1.395,0.222-2.596,0.872-2.674C647.109,378.007,647.778,379.075,647.945,380.47z"/>
								</g>
								<g>
									<path style="fill:#282B4D;" d="M657.654,372.853c0.673,0.221,3.897-3.76,1.583-3.533
										C659.237,369.319,655.354,372.11,657.654,372.853z"/>
									<path style="fill:#282B4D;" d="M659.863,374.323c0.669,0.219,3.898-3.76,1.581-3.531
										C661.444,370.792,657.567,373.575,659.863,374.323z"/>
									<path style="fill:#282B4D;" d="M662.203,375.835c0.669,0.221,3.899-3.764,1.587-3.533
										C663.79,372.302,659.902,375.087,662.203,375.835z"/>
									<path style="fill:#282B4D;" d="M664.677,376.849c0.672,0.215,3.898-3.768,1.586-3.531
										C666.263,373.317,662.381,376.101,664.677,376.849z"/>
								</g>
							</g>
						</g>
					</g>
					<g>
						<path style="fill:#E67032;" d="M582.714,193.162c-0.439,0.125-0.882,0.256-1.318,0.382c-0.36,0.101-0.72,0.198-1.082,0.299
							c-4.752,1.309-9.504,2.623-14.257,3.934c-2.379,0.656-4.757,1.313-7.131,1.967c-1.231,0.341-2.461,0.681-3.69,1.023
							c-1.051,0.29-2.321,0.463-3.272,1.03c-0.617,0.368-0.972,0.971-1.235,1.602c-0.017,0.026-0.043,0.04-0.054,0.063
							c-1.556,2.514,4.167,14.811,3.883,17.712c-0.56,5.798,18.996,71.131,19.277,72.079c-0.541-0.186-20.776-12.121-31.084-19.369
							c-7.791-5.48-41.908-13.5-42.551-12.697c-1.127,1.408-4.409,10.158,0.15,11.514c6.163,1.834,49.305,37.217,55.955,41.332
							c12.928,6.225,37.943,15.629,42.367-14.797c1.45-9.988,1.554-65.278,1.565-65.365c0.037-0.195,0.087-0.393,0.125-0.59
							c0.052-8.499-0.604-16.98-1.977-25.345c-1.032-6.289-2.464-12.51-4.265-18.613L582.714,193.162z"/>
						<g>
							<path style="fill:#4E5267;" d="M584.63,189.927c-0.44,0.126-0.879,0.253-1.318,0.381c-0.357,0.099-0.718,0.197-1.078,0.299
								c-4.755,1.308-9.506,2.623-14.261,3.935c-2.376,0.657-4.756,1.313-7.131,1.967c-1.229,0.339-2.461,0.68-3.688,1.022
								c-1.051,0.29-2.319,0.461-3.276,1.032c-0.615,0.367-0.971,0.971-1.232,1.6c-0.017,0.028-0.041,0.038-0.057,0.066
								c-1.557,2.513-2.247,5.303-2.696,8.08c-0.473,2.896-0.836,5.806-1.123,8.708c-0.56,5.798-0.726,11.614-0.083,17.299
								c0.467,4.114,3.852,22.306,5.482,32.274c3.733,1.9,24.486,4.721,25.515,4.768c8.167,0.369,16.3-0.096,24.438-0.57
								c0.604-10.773-1.565-32.417-1.838-40.741c-0.284-8.496-0.61-16.979-1.981-25.345c-1.031-6.291-2.463-12.51-4.267-18.613
								L584.63,189.927z"/>
							<polygon style="fill:#F9D33A;" points="555.521,196.249 559.15,268.032 563.882,268.972 560.842,196.509 							"/>
							<polygon style="fill:#F9D33A;" points="566.472,192.173 569.955,269.991 574.425,270.665 571.84,190.857 							"/>
						</g>
						<g>
							<path style="fill:#F9D33A;" d="M503.598,274.362c25.38,20.797,52.707,39.67,52.707,39.67s6.51-4.639,9.87-14.348
								c2.165-6.26,1.981-9.727,1.981-9.727s-21.288-16.107-35.186-20.613c-13.893-4.502-30.96-8.469-30.96-8.469l-3.349,10.246
								C498.661,271.122,502.455,273.425,503.598,274.362z"/>
							<path style="fill:#282B4D;" d="M532.601,296.927c0,0,6.97-5.527,9.47-10.992c2.496-5.465,4.185-10.549,4.185-10.549
								l6.159,3.814c0,0,0.236,2.879-5.207,11.93c-3.468,5.775-9.273,9.697-9.273,9.697L532.601,296.927z"/>
							<path style="fill:#4E5267;" d="M541.543,303.4c0,0,7.299-5.787,9.916-11.512c2.615-5.725,4.821-10.219,4.821-10.219
								l6.282,4.252c0,0-0.021,1.93-5.719,11.412c-3.637,6.047-9.045,10.691-9.045,10.691L541.543,303.4z"/>
							<g>
								<g>
									<path style="fill:#E67032;" d="M496.494,255.52c0,0,1.753-1.759,6.451,0.904c4.7,2.672,5.373,4.08,5.373,4.08
										s-2.576,4.307-3.546,8.414c-0.972,4.107-0.961,7.084-0.681,8.217c0.28,1.146-5.759,4.879-10.897,10.01
										c-4.944,4.93-6.113,5.502-8.535,5.236C482.24,292.11,496.494,255.52,496.494,255.52z"/>
									<path style="fill:#E67032;" d="M496.817,256.714c-1.443-0.305-2.495-1.098-2.35-1.771c0.142-0.671,1.422-0.968,2.867-0.665
										c1.439,0.309,2.491,1.099,2.349,1.771C499.54,256.722,498.256,257.019,496.817,256.714z"/>
									<path style="fill:#E67032;" d="M496.189,259.634c-1.443-0.305-2.492-1.098-2.353-1.77c0.143-0.674,1.427-0.971,2.867-0.666
										c1.443,0.307,2.496,1.1,2.354,1.771C498.913,259.642,497.63,259.94,496.189,259.634z"/>
									<path style="fill:#E67032;" d="M494.957,262.61c-1.44-0.305-2.493-1.098-2.351-1.772c0.144-0.674,1.429-0.971,2.867-0.664
										c1.442,0.305,2.493,1.098,2.353,1.771C497.683,262.618,496.398,262.917,494.957,262.61z"/>
									<path style="fill:#E67032;" d="M494.141,265.55c-1.442-0.305-2.493-1.1-2.351-1.771c0.141-0.674,1.423-0.971,2.864-0.664
										c1.445,0.303,2.497,1.098,2.352,1.77C496.863,265.556,495.58,265.854,494.141,265.55z"/>
								</g>
								<g>
									<path style="fill:#282B4D;" d="M498.389,277.747c-0.446,0.592,2.399,5.141,2.955,2.768
										C501.344,280.515,499.903,275.726,498.389,277.747z"/>
									<path style="fill:#282B4D;" d="M496.176,279.437c-0.439,0.594,2.404,5.139,2.962,2.767
										C499.138,282.204,497.699,277.413,496.176,279.437z"/>
									<path style="fill:#282B4D;" d="M493.891,281.237c-0.446,0.59,2.4,5.143,2.955,2.773
										C496.846,284.011,495.407,279.216,493.891,281.237z"/>
									<path style="fill:#282B4D;" d="M492.043,283.345c-0.441,0.594,2.406,5.143,2.96,2.773
										C495.003,286.118,493.566,281.325,492.043,283.345z"/>
								</g>
							</g>
						</g>
					</g>
					<g>
						<path style="fill:#E67032;" d="M554.172,151.489c-5.216,10.326-24.463,28.271-38.891,35.395
							c-14.329,7.076-19.085,4.647-27.715,6.848c-3.204,0.818-11.862,5.016-13.728,3.962c-1.751-0.984,3.528-2.468,5.297-4.024
							c-3.201,1.578-10.559,1.337-10.508,0.465c0.101-1.605,8.391-2.86,10.342-3.387c-2.664,0.93-11.081,1.457-11.589-0.053
							c-0.372-1.119,8.28-2.157,10.757-3.122c-2.74,0.974-10.618,1.717-10.839,0.36c-0.304-1.92,8.655-1.714,11.244-3.839
							c-2.249-0.762-5.442-4.005-3.738-5.087c1.474-0.938,8.222,3.641,13.681,3.36c8.367-0.433,12.617-1.762,17.5-4.603
							c8.17-4.756,14.594-10.627,17.314-14.016c5.246-6.544,15.132-17.855,18.102-22.241
							C544.713,143.227,554.172,151.489,554.172,151.489z"/>
						<path style="fill:#E67032;" d="M608.599,143.906c11.417,1.842,37.247-3.186,51.493-10.681
							c14.14-7.436,14.97-12.712,21.816-18.399c2.546-2.115,11.032-6.657,11.276-8.784c0.232-1.991-4.068,1.406-6.369,1.924
							c3.158-1.665,7.283-7.758,6.546-8.228c-1.353-0.864-7.239,5.106-8.812,6.374c2.316-1.606,7.689-8.107,6.762-9.407
							c-0.68-0.958-6.607,5.434-8.843,6.871c2.399-1.647,7.624-7.583,6.659-8.558c-1.372-1.378-6.473,5.995-9.711,6.838
							c0.701-2.263-0.047-6.755-1.921-6.011c-1.624,0.642-1.884,8.793-5.32,13.043c-5.264,6.519-8.837,9.176-14.007,11.459
							c-8.644,3.819-17.168,5.566-21.512,5.775c-8.379,0.402-23.341,1.753-28.633,1.581
							C607.471,131.396,608.599,143.906,608.599,143.906z"/>
					</g>
					<path style="fill:#FFFFFF;" d="M613.585,127.425c-1.854-0.246-3.709-0.467-5.565-0.696c-0.786-0.095-1.575-0.203-2.359-0.306
						c-0.536-0.119-1.07-0.237-1.609-0.354c-1.783-0.386-3.569-0.761-5.363-1.114c-3.581-0.709-7.18-1.335-10.808-1.794
						c-7.202-0.914-14.533-1.184-21.767-0.192c-5.274,0.723-10.462,2.132-15.278,4.378c-1.197,0.527-2.365,1.133-3.483,1.818
						c-0.215,0.127-0.441,0.242-0.658,0.372c-2.545,1.533-4.913,3.339-7.054,5.375c-2.559,2.108-4.845,4.545-6.58,7.357
						c-0.484,0.786-0.923,1.602-1.309,2.439c-0.401,0.86-0.748,1.728-0.268,2.621c0.297,0.556,0.781,1.029,1.283,1.47
						c0,0-0.002,0.001-0.004,0.002c-0.019,0.259,0.199,0.363,0.413,0.349c0.226,0.19,0.448,0.378,0.654,0.563
						c0.827,0.752,1.658,1.502,2.491,2.25c3.901,3.502,7.846,6.96,11.83,10.372c0.229,0.196,0.664,0.201,0.854-0.063
						c0.883-1.2,1.761-2.42,2.612-3.658c1.656,3.182,2.898,6.564,3.646,10.139c0.565,2.698,0.88,5.483,0.859,8.245
						c-0.015,2.563-8.263,32.831-8.263,32.831s21.648,10.261,52.981,1.843c4.94-1.328,10.912-9.703,10.912-9.703
						s-7.027-23.249-7.529-25.723c-0.494-2.473-0.413-4.88-0.029-7.324c1.082-4.724,3.359-9.251,3.374-14.166
						c0.005-0.991-0.111-1.954-0.298-2.899c1.047-0.013,2.094-0.124,3.125-0.297c2.707-0.459,5.388-1.267,7.935-2.282
						c0.066-0.026,0.123-0.064,0.175-0.107c0.201-0.026,0.378-0.197,0.307-0.455c-0.428-1.602-1.015-3.164-1.459-4.766
						c-0.44-1.6-0.818-3.221-1.134-4.853C615.599,135.885,614.213,127.509,613.585,127.425"/>
					<polygon style="fill:#4E5267;" points="559.55,124.076 588.565,158.307 600.146,125.25 593.041,123.921 586.922,148.941 
						568.317,122.539 					"/>
					<polygon style="fill:#F9D33A;" points="553.479,126.218 589.509,166.645 604.051,126.069 608.019,126.729 591.786,176.677 
						548.409,128.552 					"/>
					<path style="fill:none;stroke:#E2C983;stroke-miterlimit:10;" d="M562.266,203.006c2.144-4.582,6.897-7.041,8.945-11.915
						c2.242-5.33,1.07-10.904,2.653-16.327"/>
					<path style="fill:none;stroke:#E2C983;stroke-miterlimit:10;" d="M577.654,200.308c1.477-3.652,3.667-6.932,5.048-10.54"/>
					<path style="fill:none;stroke:#E2C983;stroke-miterlimit:10;" d="M587.49,201.343c3.2-8.788,8.321-16.09,9.943-25.884"/>
					<g>
						<path style="fill:#F9D33A;" d="M596.961,86.756c2.54,3.708,3.387,9.133,2.24,13.377c-0.307,1.131-0.742,2.277-0.629,3.415
							c0.256,2.515,2.998,4.11,5.078,5.843c2.081,1.735,3.58,4.792,1.414,6.663c-1.393,1.202-3.752,1.32-5.023,2.614
							c-0.513,0.517-0.774,1.163-1.195,1.736c-1.826,2.51-6.084,2.97-9.207,1.969c-1.056-0.34-2.153-0.815-3.286-0.575
							c-0.743,0.157-1.361,0.597-1.973,0.998c-2.897,1.916-7.238,3.205-9.856,1.276c-0.804-0.589-1.667-1.498-2.708-1.154
							c-0.588,0.194-0.909,0.725-1.308,1.148c-1.761,1.883-5.543,1.551-7.18-0.253c-1.636-1.803-1.468-4.455-0.396-6.659
							c-1.128,0.143-2.351,0.918-3.377,0.436c-1.801-0.839-0.463-3.788,0.172-5.688c1.664-5.026,3.332-10.055,4.998-15.084
							c0.771-2.321-2.469-7.21-0.777-9.194c4.111-4.822,6.373-7.42,18.217-7.873C590.969,79.414,594.767,83.559,596.961,86.756z"/>
						<path style="fill:#E67032;" d="M585.169,104.587l5.19,18.48c0,0,0.689,2.14-4.545,6.533c-2.016,1.691-6.446,2.029-7.93,1.079
							c-1.882-1.206-3.104-2.873-3.6-5.454c-1.419-7.458-2.094-17.283-2.094-17.283L585.169,104.587z"/>
						<path style="opacity:0.2;fill:#71090C;" d="M578.635,117.948c-5.18,2.362-6.138-6.802-6.138-6.802l3.506-2.661l7.79,0.201
							C583.793,108.686,583.956,115.52,578.635,117.948z"/>
						<path style="fill:#E67032;" d="M586.007,103.079c0.407-6.59-4.465-11.254-10.103-11.9c-5.638-0.647-9.324,1.574-11.024,9.096
							c-1.752,7.748,0.302,17.056,6.447,17.211C578.563,117.668,585.61,109.663,586.007,103.079"/>
						<path style="fill:#F9D33A;" d="M587.049,107.14c2.36-1.692,2.599-3.698,3.81-6.595c1.214-2.901,1.416-6.507,0.094-9.441
							c-0.903-1.996-2.842-3.691-4.663-3.065c-0.896,0.309-1.727,1.15-2.647,0.889c-1.442-0.407-1.465-2.791-2.318-4.217
							c-0.979-1.637-3.15-1.786-4.56-0.747c-0.516,0.38-0.975,0.899-1.558,1.136c-1.474,0.609-3.012-0.715-4.465-1.497
							c-1.984-1.072-4.327-1.15-6.308-0.208c-1.979,0.939-3.563,2.88-4.262,5.227c-0.595,1.982-0.564,4.19-0.143,6.27
							c0.503,2.506,2.467,4.073,4.858,3.873c1.992-0.164,0.427-5.576,5.362-5.996c1.895-0.16,4.252,0.856,4.841,2.957
							c1.025,3.66,4.91,2.367,5.562,1.808c1.931-1.658,3.275,1.148,3.31,2.142c0.02,0.496,0.21,4.241,1.621,3.237
							C585.188,103.848,587.049,107.14,587.049,107.14z"/>
						<g>
							<path style="fill:#E67032;" d="M589.337,102.665c-1.09-1.389-3.13-1.282-4.556,0.238c-1.425,1.518-1.697,3.875-0.607,5.266
								c1.093,1.389,3.134,1.284,4.56-0.238C590.157,106.413,590.43,104.055,589.337,102.665"/>
							<path style="fill:none;stroke:#551616;stroke-width:0.5;stroke-linecap:round;stroke-miterlimit:10;" d="M586.196,103.671
								c2.69-0.613,1.818,4.119,0.65,3.469"/>
						</g>
						<g>
							<g>
								<path style="fill:none;stroke:#551616;stroke-width:0.5;stroke-linecap:round;stroke-miterlimit:10;" d="M581.524,100.697
									c-0.989-0.84-2.818-1.643-4.705-2.062"/>
								<path style="fill:none;stroke:#551616;stroke-width:0.5;stroke-linecap:round;stroke-miterlimit:10;" d="M571.51,97.537
									c-2.197-0.797-3.479-0.911-4.855-0.045"/>
								<path style="fill:none;stroke:#551616;stroke-width:0.5;stroke-linecap:round;stroke-miterlimit:10;" d="M572.833,99.568
									c0.229,3.356-4.229,6.584-1.462,7.473"/>
								<path style="fill:none;stroke:#551616;stroke-width:0.5;stroke-linecap:round;stroke-miterlimit:10;" d="M573.825,106.817
									c-0.296,0.139-0.641,0.231-1.021,0.272"/>
								<path style="fill:none;stroke:#551616;stroke-width:0.75;stroke-linecap:round;stroke-miterlimit:10;" d="M568.037,108.977
									c1.35,1.606,3.516,3.728,7.029,1.318"/>
							</g>
							<g>
								<path style="fill:#282B4D;" d="M576.304,101.536c0.088,0.537,0.594,0.902,1.131,0.816c0.536-0.086,0.901-0.591,0.815-1.128
									c-0.083-0.54-0.593-0.904-1.126-0.82C576.585,100.489,576.218,100.997,576.304,101.536z"/>
								<path style="fill:#282B4D;" d="M567.049,99.938c0.081,0.537,0.589,0.903,1.127,0.816c0.54-0.086,0.907-0.593,0.821-1.131
									c-0.09-0.538-0.597-0.903-1.135-0.816C567.327,98.891,566.958,99.395,567.049,99.938z"/>
							</g>
							<g>
								<path style="fill:#E67032;" d="M576.158,106.227c0.124,0.78,0.857,1.311,1.64,1.187c0.776-0.127,1.31-0.861,1.183-1.643
									c-0.121-0.776-0.856-1.308-1.641-1.183C576.563,104.712,576.03,105.447,576.158,106.227z"/>
								<path style="fill:#E67032;" d="M565.837,104.312c0.126,0.777,0.86,1.31,1.639,1.184c0.779-0.124,1.313-0.858,1.186-1.639
									c-0.122-0.78-0.857-1.312-1.638-1.186C566.246,102.797,565.712,103.528,565.837,104.312z"/>
							</g>
						</g>
					</g>
				</g>
			</g>
			<g>
				<g>
					<g>
						<path style="fill:#282B4D;" d="M510.749,247.095c0,0-12.017,18.171-8.927,22.921c5.321,8.192,10.399,6.664,15.635,4.852
							c5.231-1.813,10.626-6.471,10.852-10.382C528.528,260.575,519.404,248.601,510.749,247.095z"/>
						<g>
							<path style="fill:#FDF3D3;" d="M482.126,163.623c3.019,4.481,15.712,12.722,16.062,25.952
								c0.216,8.09-4.759,31.564-3.168,35.055c1.6,3.499,21.924,20.974,23.602,24.452c1.679,3.477-17.357,21.082-20.177,23.601
								c-2.824,2.51-29.807-27.396-31.01-29.532c-0.395-0.702-3.659-5.286-5.292-11.417c-3.363-12.602-6.026-31.068-6.026-31.068
								l0.8-31.574L482.126,163.623z"/>
						</g>
					</g>
					<g>
						<g>
							<path style="fill:#F9D33A;" d="M488.58,287.544c-9.145-8.395-15.438-15.041-24.205-24.087
								c-7.186-7.426-10.125-9.581-16.626-17.916c-2.828-3.632-5.49-20.301-10.346-19.331c-4.304,0.875-15.445,5.914-19.432,7.841
								c-4.438,2.151-8.63,4.527-12.981,6.948c-2.893,1.624-6.132,2.52-9.178,3.661c-1.644,0.623-3.884,1.091-5.221,2.543
								c-0.816,0.873,0.285,2.29,1.136,1.669c1.145,16.171,11.016,27.782,21.619,36.389c13.166,10.711,27.047,16.854,41.488,28.049
								c15.897,12.324,6.081,9.694,2.021,39.017c-1.621,11.676-0.219,16.147,0.177,28.467c7.232,2.818,21.729,6.943,21.078,9.453
								c1.299-6.491,14.759-43.08,16.513-51.234c1.186-5.502,5.627-17.992,5.724-23.892
								C500.504,304.638,494.718,293.164,488.58,287.544z"/>
							<g>
								<path style="fill:#FFFFFF;" d="M453.916,401.785c0.141,1.958-1.324,5.624-1.324,5.624l-4.419-1.951
									c0,0-2.174,2.735,0.844,5.779c3.015,3.044,13.076,7.871,21.965,9.966c8.88,2.092,24.528,2.356,27.449-0.138
									c2.924-2.496,0.376-6.271,0.693-8.532c0.319-2.258-13.748-2.573-13.748-2.573s1.25,8.835-4.426,7.71
									c-5.677-1.124-18.784-5.878-18.784-5.878l1.682-8.939L453.916,401.785z"/>
								<path style="fill:#282B4D;" d="M457.032,380.792c-0.87,5.092-6.002,18.555-5.394,20.165
									c0.607,1.609,4.005,5.498,12.945,6.133c8.945,0.634,13.195,5.128,18.742,6.517c5.547,1.393,14.42,4.334,16.206,0.909
									c1.781-3.414,0.995-8.651-7.436-11.711c-8.429-3.056-10.586-9.852-12.306-14.65
									C478.074,383.354,457.032,380.792,457.032,380.792z"/>
							</g>
							<path style="fill:#282B4D;" d="M461.75,300.405c4.674-2.328,9.369-4.747,14.15-6.842c4.598-2.018,9.296-3.799,13.877-5.86
								c0.532-0.238,1.08-0.481,1.638-0.73c-0.004-0.002-0.005-0.003-0.007-0.005c-9.38-8.35-14.508-18.392-23.488-27.398
								c-7.364-7.387-23.891-34.692-28.901-33.688c-4.444,0.904-15.967,6.02-20.091,7.977c-4.586,2.18-8.93,4.585-13.432,7.036
								c-2.993,1.645-6.34,2.563-9.489,3.725c-1.698,0.632-4.013,1.118-5.4,2.581c-0.849,0.879,0.278,2.29,1.159,1.663
								c1.079,16.183,11.186,27.746,22.066,36.298c11.422,8.999,18.303,18.574,30.688,26.85
								C448.096,308.79,457.463,302.542,461.75,300.405z"/>
							<path style="fill:#4E5267;" d="M456.661,370.407c0,0-1.5-10.504-0.237-16.061c0.73-3.236,32.602,2.587,32.602,2.587
								l-6.58,19.36l-25.641-4.173"/>
						</g>
						<g>
							<g>
								<path style="fill:#F9D33A;" d="M371.845,208.683c0,0-9.624,16.024-8.498,38.38c1.118,22.358,20.473,82.953,20.473,82.953
									s-13.911-5.41-32.436-4.342c-9.815,0.567-22.677,1.481-22.677,1.481l0.422,20.496c0,0,37.893,15.013,49.091,19.46
									c11.201,4.445,28.928,3.804,35.261-4.993c6.326-8.788,7.292-17.508,6.109-37.225c-1.184-19.712-7.256-56.611-5.898-63.144
									c1.362-6.531,5.888-22.607,6.658-27.624c0.769-5.019-2.599-25.472-2.599-25.472L371.845,208.683z"/>
								<path style="fill:#282B4D;" d="M417.752,208.654l-45.907,0.028c0,0-16.22,17.802-15.097,40.157
									c1.119,22.359,6.94,40.714,10.898,53.47c1.031,3.324,2.305,6.764,3.619,10.038c8.299,3.051,17.143,4.869,25.936,5.316
									c7.708,0.396,24.55-2.681,31.833-5.475c-2.798-20.978-14.533-47.958-13.475-53.045c1.362-6.532,4.02-20.001,4.791-25.019
									C421.119,229.107,417.752,208.654,417.752,208.654z"/>
								<g>
									<path style="fill:#FFFFFF;" d="M309.232,329.027c-1.792,0.8-5.74,0.674-5.74,0.674l0.33-4.82c0,0-3.314-1.108-5.147,2.765
										c-1.834,3.875-2.938,14.978-1.875,24.049c1.061,9.061,6.154,23.858,9.495,25.759c3.342,1.891,6.023-1.793,8.258-2.263
										c2.229-0.47-2.273-13.801-2.273-13.801s-7.879,4.188-8.759-1.531c-0.879-5.719-0.884-19.663-0.884-19.663l8.978-1.468
										L309.232,329.027z"/>
									<path style="fill:#282B4D;" d="M330.391,325.841c-5.079,0.919-19.852-0.36-21.16,0.761
										c-1.302,1.122-3.8,5.644-1.346,14.265c2.455,8.623-0.319,14.152,0.272,19.84c0.58,5.688,0.843,15.034,4.67,15.545
										c3.818,0.509,8.47-2.018,8.472-10.985c-0.002-8.964,5.651-13.315,9.573-16.566
										C334.797,345.448,330.391,325.841,330.391,325.841z"/>
								</g>
								<path style="fill:#4E5267;" d="M345.837,354.273c0,0,2.166-9.58,0.692-18.739c-0.437-2.71-1.254-9.602-1.254-9.602
									s7.197-0.66,9.577-0.686c4.759-0.056,12.288,0.884,12.288,0.884s3.829,13.252-0.125,24.111
									c-3.956,10.858-3.956,10.858-3.956,10.858L345.837,354.273z"/>
							</g>
							<g>
								<path style="fill:#E67032;" d="M483.477,164.523c-7.625-7.637-30.736-11.862-30.736-11.862s-27.004,5.768-45.277,17.593
									c-10.214,6.609-30.975,29.254-39.267,40.805c-1.569,1.292-3.174,3.567-3.397,5.693c-0.166,0.517-0.19,0.899-0.019,1.088
									c0.014,0.009,0.033,0.02,0.045,0.032c0.104,0.669,0.382,1.299,0.895,1.85c1.127,1.207,3.378,1.249,4.884,1.366
									c3.107,0.24,6.063,0.345,9.126,1.043c12.968,2.96,23.238,11.741,34.938,17.465c9.729,4.759,23.019,7.203,32.107-0.14
									c2.338-1.887,1.217-7.647,7.426-10.434c4.602-2.065,27.017-15.075,32.817-23.146
									C493.832,196.394,495.021,176.085,483.477,164.523z"/>
								<path style="fill:#4E5267;" d="M377.283,198.688c0,0,35.262,12.084,54.246,24.195
									c15.982,10.193,18.274,12.317,18.274,12.317l13.309-11.094c0,0-15.109-15.54-28.485-24.432
									c-13.377-8.894-41.665-16.873-41.665-16.873L377.283,198.688z"/>
								<polygon style="fill:#F9D33A;" points="477.391,199.128 465.002,209.047 450.216,203.276 447.819,187.588 460.211,177.668 
									474.994,183.437 								"/>
							</g>
							<g>
								<g>
									<path style="fill:#FD9A6E;" d="M474.892,145.637c-4.371,9.14-6.045,10.366-9.557,19.477
										c-1.657,4.294,5.278,11.501,9.5,12.701c3.128,0.891,8.014-0.363,9.305-3.532c3.268-8.04,5.53-14.33,8.311-22.686
										C487.281,150.791,479.493,148.732,474.892,145.637"/>
									<path style="opacity:0.4;fill:#FFBAC0;" d="M472.224,151.067c0.093,3.876-0.444,5.864,0.634,12.892
										c1.081,7.014,5.829,8.718,9.558,6.606c6.097-3.455,5.019-6.545,5.019-6.545c-5.732-3.196-11.914-7.684-15.379-13.357
										C471.82,150.808,471.824,151.232,472.224,151.067"/>
									<path style="fill:#FD9A6E;" d="M467.792,147.438c-0.633-2.954,0.28-5.678,2.043-6.094c1.766-0.417,3.713,1.638,4.35,4.587
										c0.629,2.952-0.282,5.68-2.044,6.097C470.369,152.441,468.429,150.387,467.792,147.438"/>
									<path style="fill:#FD9A6E;" d="M483.212,137.745c-3.107,0.245-5.87,2.446-7.524,5.197
										c-1.657,2.749-2.348,5.992-2.725,9.193c-0.311,2.588-0.43,5.235,0.124,7.77c1.039,4.751,4.967,9.396,11.606,7.699
										c2.62-0.669,3.813-1.966,5.701-3.965c4.016-4.251,8.246-13.293,6.579-18.921
										C495.305,139.087,488.481,137.332,483.212,137.745"/>
									<path style="fill:#F9D33A;" d="M479.088,129.016c-3.203-1.269-6.281,0.919-7.767,3.611
										c-1.274,2.301-1.479,5.485-0.481,7.907c0.629,1.522,1.996,2.836,1.877,4.489c-0.047,0.656-0.328,1.277-0.408,1.93
										c-0.078,0.658,0.148,1.439,0.754,1.645c0.594,0.205,1.216-0.237,1.646-0.711c2.133-2.34,2.62-5.824,4.558-8.332
										c0.298-0.39,0.649-0.762,1.111-0.916c0.455-0.147,1.032-0.005,1.241,0.438c0.232,0.494-0.082,1.09,0.014,1.635
										c0.172,0.991,1.513,1.202,2.443,0.858c1.192-0.434,2.162-1.353,3.259-1.998c1.103-0.642,2.56-0.984,3.585-0.232
										c0.541,0.395,0.89,1.048,1.486,1.345c0.387,0.195,0.834,0.215,1.258,0.313c2.156,0.479,1.508,2.767,3.052,4.923
										c1.46,2.04-1.053,8.544-0.917,8.469c2.071-1.129,4.884-3.206,6.409-5.034c1.524-1.829,2.333-4.493,1.373-6.669
										c-0.69-1.563-2.225-2.85-2.111-4.567c0.035-0.493,0.207-0.964,0.305-1.448c0.434-2.211,1.351-4.662-1.428-7.131
										c-3.072-2.732-6.411-1.354-8.113-2.76c-5.378-4.437-11.534-0.855-13.137,2.52
										C479.051,129.391,479.506,129.186,479.088,129.016"/>
									<path style="fill:none;stroke:#551616;stroke-width:0.5;stroke-linecap:round;stroke-miterlimit:10;" d="M487.663,149.299
										c0.128,2.082,0.514,4.165,1.144,6.198c0.107,0.356,0.219,0.753,0.012,1.05c-0.097,0.141-0.254,0.234-0.413,0.312
										c-0.781,0.372-1.762,0.401-2.621,0.077"/>
									<path style="fill:none;stroke:#551616;stroke-width:0.75;stroke-linecap:round;stroke-miterlimit:10;" d="M480.713,145.866
										c1.366-0.463,4.279,0.507,5.016,1.763"/>
									<path style="fill:none;stroke:#551616;stroke-width:0.75;stroke-linecap:round;stroke-miterlimit:10;" d="M492.442,149.831
										c0.92,0.013,2.558,0.784,2.952,1.639"/>
									<path style="fill:none;stroke:#551616;stroke-width:0.75;stroke-linecap:round;stroke-miterlimit:10;" d="M481.333,156.511
										c0.671,4.036,5.083,3.976,7.044,3.309"/>
									<g>
										<path style="fill:#282B4D;" d="M484.362,149.785c-0.361,0.439-1.006,0.508-1.442,0.151
											c-0.443-0.354-0.514-1.001-0.156-1.439c0.354-0.443,1.002-0.511,1.442-0.155
											C484.649,148.694,484.719,149.342,484.362,149.785z"/>
										<path style="fill:#282B4D;" d="M493.543,153.123c-0.353,0.443-0.996,0.512-1.444,0.155
											c-0.441-0.356-0.509-1.002-0.149-1.444c0.354-0.442,1.006-0.507,1.441-0.154
											C493.833,152.035,493.9,152.682,493.543,153.123z"/>
									</g>
									<g>
										<path style="fill:#F4654E;" d="M492.275,158.457c-0.634,0.624-1.648,0.621-2.274-0.013
											c-0.622-0.627-0.622-1.646,0.012-2.272c0.628-0.623,1.647-0.621,2.271,0.012
											C492.91,156.815,492.906,157.831,492.275,158.457z"/>
									</g>
									<g>
										<path style="fill:#F4654E;" d="M481.648,153.712c-0.636,0.625-1.654,0.621-2.277-0.013
											c-0.624-0.626-0.62-1.647,0.01-2.272c0.63-0.623,1.652-0.619,2.272,0.012
											C482.279,152.071,482.278,153.087,481.648,153.712z"/>
									</g>
								</g>
								<g>
									<path style="fill:#282B4D;" d="M467.243,137.955c1.542,3.218,9.747,3.544,24.24,6.037
										c14.498,2.492,14.381,3.651,14.886-1.213c0.504-4.867,0.798-15.627-12.824-21.916
										C479.918,114.575,463.27,129.66,467.243,137.955z"/>
								</g>
							</g>
							<g>
								<path style="fill:#4E5267;" d="M570.61,288.266c-10.448-2.551-30.516,24.614-37.534,27.843
									c-0.869,0.383-1.74,0.756-2.576,1.078c-0.27,0.094-0.553,0.199-0.813,0.293l-0.331-0.277l-2.437-2.02
									c-3.254-2.709-6.563-5.463-9.871-8.217c-13.237-11.006-26.478-22.012-36.398-30.273
									c-9.851-8.343-16.414-13.906-16.414-13.906l-0.102-0.092h-0.011c-1.051-0.889-2.428-1.116-3.649-0.739l-107.947-91.09
									c-1.038-0.878-2.579-0.734-3.446,0.292c-0.869,1.029-0.736,2.572,0.292,3.449l108.393,91.469
									c0.102,0.96,0.554,1.883,1.351,2.555c0,0,6.581,5.547,16.451,13.871c9.787,8.413,22.843,19.629,35.897,30.844
									c3.262,2.813,6.524,5.615,9.736,8.377l2.394,2.056l1.194,1.021l0.593,0.514c-0.212-0.13,1.979,1.299,1.073,0.702
									l0.047,0.015l0.091,0.036l0.175,0.078c0.532,0.202,1.277,0.378,1.954,0.409c0.341,0.022,0.702,0.009,0.994-0.016l0.32-0.052
									l0.646-0.109c0.475-0.078,0.701-0.168,1.057-0.249c0.688-0.171,1.188-0.362,1.773-0.545c1.09-0.375,2.106-0.766,3.096-1.164
									c7.772-3.23,14.453-6.677,20.335-9.516c11.621-5.842,19.365-9.736,19.365-9.736c0.134-0.066,0.281-0.138,0.407-0.226
									C582.115,301.199,578.378,290.163,570.61,288.266z"/>
								<path style="fill:#F9D33A;" d="M419.003,238.279c-4.526,4.111-9.883,11.535-6.129,15.012
									c3.755,3.479,12.103,8.932,19.188,6.296c7.087-2.64,12.335-9.699,11.772-14.479c-0.56-4.776-13.017-10.492-16.709-10.93
									C423.433,233.741,419.003,238.279,419.003,238.279z"/>
								<g>
									<path style="fill:#FDF3D3;" d="M456.049,154.057c-9.661-7.252-29.81-12.948-64.129,15.7
										c-22.49,18.773-28.013,23.161-17.934,39.588c13.217,21.552,28.392,40.194,35.106,42.82
										c6.716,2.622,21.974-10.505,24.52-15.096c2.546-4.59-14.001-22.215-20.199-30.645
										c-7.698-10.459,18.788-15.467,34.165-30.077C462.96,161.734,456.049,154.057,456.049,154.057z"/>
								</g>
							</g>
						</g>
					</g>
				</g>
				<path style="fill:none;stroke:#E2C983;stroke-miterlimit:10;" d="M396.68,192.147c4.875,0.397,8.142,4.552,12.029,6.88"/>
				<path style="fill:none;stroke:#E2C983;stroke-miterlimit:10;" d="M396.033,201.119c3.163-0.208,6.257-0.053,9.505,0.184"/>
				<path style="fill:none;stroke:#E2C983;stroke-miterlimit:10;" d="M397.523,208.24c2.632-1.444,6.047-1.621,8.263-3.412"/>
				<path style="fill:none;stroke:#E2C983;stroke-miterlimit:10;" d="M482.391,226.391c2.401-1.28,4.606-2.227,7.191-2.488"/>
				<path style="fill:none;stroke:#E2C983;stroke-miterlimit:10;" d="M483.951,232.517c0.966-1.63,3.129-4.489,5.037-4.981"/>
				<path style="fill:none;stroke:#E2C983;stroke-miterlimit:10;" d="M489.289,237.245c-0.115-2.344,0.797-4.975,1.833-6.882"/>
			</g>
		</g>
		<text transform="matrix(1 0 0 1 189.2855 465.0237)"><tspan x="0" y="0" style="fill:#282B4D; font-family:'Montserrat-SemiBold'; font-size:24px; letter-spacing:1;">Happy National </tspan><tspan x="216.597" y="0" style="fill:#E67032; font-family:'Montserrat-SemiBold'; font-size:24px; letter-spacing:1;">Sports</tspan><tspan x="303.452" y="0" style="fill:#282B4D; font-family:'Montserrat-SemiBold'; font-size:24px; letter-spacing:1;"> Day </tspan></text>
	</g>
</g>
</svg>
