<svg width="301" height="218" viewBox="0 0 301 218" fill="none" xmlns="http://www.w3.org/2000/svg">
<path fill-rule="evenodd" clip-rule="evenodd" d="M239.73 52.8968C229.114 22.1136 199.89 0 165.5 0C141.476 0 119.972 10.7923 105.572 27.7932C97.1333 24.6926 88.0143 23 78.5 23C35.1456 23 0 58.1456 0 101.5C0 142.695 31.7313 176.478 72.0853 179.742C85.7938 202.657 110.855 218 139.5 218C158.236 218 175.439 211.436 188.935 200.482C199.112 205.303 210.491 208 222.5 208C265.854 208 301 172.854 301 129.5C301 92.0648 274.796 60.7499 239.73 52.8968Z" fill="white"/>
</svg>
