<svg width="25" height="25" viewBox="0 0 25 25" fill="none" xmlns="http://www.w3.org/2000/svg">
<mask id="mask0_117_44" style="mask-type:alpha" maskUnits="userSpaceOnUse" x="0" y="0" width="25" height="25">
<rect x="0.484375" y="0.833008" width="24" height="24" fill="#D9D9D9"/>
</mask>
<g mask="url(#mask0_117_44)">
<path d="M16.5844 14.1328L15.1344 12.6828C15.2844 11.8995 15.0594 11.1661 14.4594 10.4828C13.8594 9.79948 13.0844 9.53281 12.1344 9.68281L10.6844 8.23281C10.9677 8.09948 11.2552 7.99948 11.5469 7.93281C11.8385 7.86615 12.151 7.83281 12.4844 7.83281C13.7344 7.83281 14.7969 8.27031 15.6719 9.14531C16.5469 10.0203 16.9844 11.0828 16.9844 12.3328C16.9844 12.6661 16.951 12.9786 16.8844 13.2703C16.8177 13.562 16.7177 13.8495 16.5844 14.1328ZM19.7844 17.2828L18.3344 15.8828C18.9677 15.3995 19.5302 14.8703 20.0219 14.2953C20.5135 13.7203 20.9344 13.0661 21.2844 12.3328C20.451 10.6495 19.2552 9.31198 17.6969 8.32031C16.1385 7.32865 14.401 6.83281 12.4844 6.83281C12.001 6.83281 11.526 6.86615 11.0594 6.93281C10.5927 6.99948 10.1344 7.09948 9.68437 7.23281L8.13438 5.68281C8.81771 5.39948 9.51771 5.18698 10.2344 5.04531C10.951 4.90365 11.701 4.83281 12.4844 4.83281C15.001 4.83281 17.2427 5.52865 19.2094 6.92031C21.176 8.31198 22.601 10.1161 23.4844 12.3328C23.101 13.3161 22.5969 14.2286 21.9719 15.0703C21.3469 15.912 20.6177 16.6495 19.7844 17.2828ZM20.2844 23.4328L16.0844 19.2828C15.501 19.4661 14.9135 19.6036 14.3219 19.6953C13.7302 19.787 13.1177 19.8328 12.4844 19.8328C9.96771 19.8328 7.72604 19.137 5.75938 17.7453C3.79271 16.3536 2.36771 14.5495 1.48438 12.3328C1.83437 11.4495 2.27604 10.6286 2.80938 9.87031C3.34271 9.11198 3.95104 8.43281 4.63438 7.83281L1.88438 5.03281L3.28438 3.63281L21.6844 22.0328L20.2844 23.4328ZM6.03438 9.23281C5.55104 9.66615 5.10938 10.1411 4.70938 10.6578C4.30938 11.1745 3.96771 11.7328 3.68438 12.3328C4.51771 14.0161 5.71354 15.3536 7.27187 16.3453C8.83021 17.337 10.5677 17.8328 12.4844 17.8328C12.8177 17.8328 13.1427 17.812 13.4594 17.7703C13.776 17.7286 14.101 17.6828 14.4344 17.6328L13.5344 16.6828C13.351 16.7328 13.176 16.7703 13.0094 16.7953C12.8427 16.8203 12.6677 16.8328 12.4844 16.8328C11.2344 16.8328 10.1719 16.3953 9.29688 15.5203C8.42188 14.6453 7.98438 13.5828 7.98438 12.3328C7.98438 12.1495 7.99687 11.9745 8.02187 11.8078C8.04687 11.6411 8.08438 11.4661 8.13438 11.2828L6.03438 9.23281Z" fill="#1C1B1F"/>
</g>
</svg>
