<svg width="600" height="600" viewBox="0 0 600 600" fill="none" xmlns="http://www.w3.org/2000/svg">
<rect width="600" height="600" fill="white"/>
<path d="M78 126.688C78 113.032 89.0238 102 102.669 102H158.867C180.067 102 198.954 115.578 205.66 135.791L276.66 348.875C299.864 349.261 320.447 360.37 333.706 377.42L489.505 325.422C502.456 321.102 516.409 328.122 520.726 341.006C525.043 353.89 518.028 367.931 505.154 372.251L349.356 424.249C348.662 464.521 315.822 497 275.35 497C234.492 497 201.343 463.826 201.343 422.938C201.343 399.176 212.521 378.037 229.867 364.459L158.867 151.375H102.669C89.0238 151.375 78 140.343 78 126.688ZM266.715 205.765C262.476 192.804 269.568 178.84 282.519 174.674L317.749 163.256L333.013 210.239L379.96 194.964L364.619 147.98L399.849 136.562C412.8 132.319 426.754 139.417 430.916 152.378L468.999 269.798C473.239 282.759 466.146 296.723 453.195 300.889L335.865 339C322.914 343.243 308.961 336.146 304.798 323.185L266.715 205.765Z" fill="#666666"/>
</svg>
