<svg width="260" height="70" viewBox="0 0 260 70" fill="none" xmlns="http://www.w3.org/2000/svg">
<path d="M70 35C70 54.33 54.33 70 35 70C15.67 70 0 54.33 0 35C0 15.67 15.67 0 35 0C54.33 0 70 15.67 70 35Z" fill="#1E326D"/>
<path d="M66.7471 35.5C66.7471 52.897 52.644 67 35.2471 67C17.8501 67 3.74707 52.897 3.74707 35.5C3.74707 18.103 17.8501 4 35.2471 4C52.644 4 66.7471 18.103 66.7471 35.5Z" fill="#18D5FF"/>
<path fill-rule="evenodd" clip-rule="evenodd" d="M35.2471 5.5C18.6785 5.5 5.24707 18.9315 5.24707 35.5C5.24707 52.0685 18.6785 65.5 35.2471 65.5C51.8156 65.5 65.2471 52.0685 65.2471 35.5C65.2471 18.9315 51.8156 5.5 35.2471 5.5ZM2.24707 35.5C2.24707 17.2746 17.0217 2.5 35.2471 2.5C53.4725 2.5 68.2471 17.2746 68.2471 35.5C68.2471 53.7254 53.4725 68.5 35.2471 68.5C17.0217 68.5 2.24707 53.7254 2.24707 35.5Z" fill="white"/>
<path d="M29.2648 20.9679C29.2648 23.4208 27.2763 25.4093 24.8233 25.4093C22.3704 25.4093 20.3818 23.4208 20.3818 20.9679C20.3818 18.5149 22.3704 16.5264 24.8233 16.5264C27.2763 16.5264 29.2648 18.5149 29.2648 20.9679Z" fill="#1E326D"/>
<path fill-rule="evenodd" clip-rule="evenodd" d="M27.2866 30.9165C32.2049 29.2101 36.5694 24.5282 37.786 18.3391C28.3599 32.9326 15.8513 29.035 10.0493 10C10.0497 22.5784 14.2649 28.9354 19.4284 30.9201C23.7505 43.5817 15.7588 52.6335 10.4309 58.6683C9.80568 59.3765 9.21712 60.0431 8.68945 60.6692C11.167 60.1253 17.6449 56.4633 23.7361 46.1663C24.0685 47.4051 24.6788 51.8587 24.4613 59.7627C26.899 54.8003 29.4203 45.9077 27.2866 30.9165Z" fill="#1E326D"/>
<path d="M37.786 18.3391L38.2766 18.4356C38.3229 18.2003 38.1956 17.9653 37.9732 17.8755C37.7509 17.7857 37.4961 17.8664 37.366 18.0678L37.786 18.3391ZM27.2866 30.9165L27.1227 30.4441C26.8967 30.5226 26.7579 30.7501 26.7916 30.987L27.2866 30.9165ZM10.0493 10L10.5276 9.85422C10.4554 9.6173 10.2206 9.46895 9.97563 9.50546C9.73065 9.54197 9.54933 9.75233 9.54933 10L10.0493 10ZM19.4284 30.9201L19.9016 30.7585C19.8537 30.6183 19.7461 30.5065 19.6078 30.4534L19.4284 30.9201ZM10.4309 58.6683L10.0561 58.3374L10.0561 58.3374L10.4309 58.6683ZM8.68945 60.6692L8.30714 60.3469C8.16908 60.5107 8.15071 60.7443 8.26144 60.9276C8.37218 61.111 8.58742 61.2035 8.79666 61.1575L8.68945 60.6692ZM23.7361 46.1663L24.2191 46.0368C24.1669 45.8424 24.0033 45.6982 23.8039 45.671C23.6046 45.6437 23.4083 45.7386 23.3058 45.9118L23.7361 46.1663ZM24.4613 59.7627L23.9615 59.749C23.955 59.984 24.1132 60.1918 24.3414 60.2482C24.5697 60.3045 24.8064 60.1942 24.9101 59.9832L24.4613 59.7627ZM37.2954 18.2427C36.1124 24.2607 31.8698 28.7972 27.1227 30.4441L27.4505 31.3889C32.5401 29.6231 37.0263 24.7957 38.2766 18.4356L37.2954 18.2427ZM9.57106 10.1458C12.4868 19.7117 17.1373 25.6545 22.4132 27.2586C27.7595 28.8842 33.4417 25.9865 38.206 18.6104L37.366 18.0678C32.7042 25.2853 27.4191 27.7355 22.7041 26.3018C17.9186 24.8468 13.4138 19.3233 10.5276 9.85422L9.57106 10.1458ZM19.6078 30.4534C14.7317 28.5792 10.5497 22.4954 10.5493 9.99999L9.54933 10C9.54966 22.6613 13.798 29.2916 19.249 31.3868L19.6078 30.4534ZM10.8057 58.9992C16.1093 52.9921 24.3279 43.7255 19.9016 30.7585L18.9552 31.0816C23.173 43.4378 15.4084 52.275 10.0561 58.3374L10.8057 58.9992ZM9.07177 60.9914C9.59503 60.3706 10.1796 59.7084 10.8057 58.9992L10.0561 58.3374C9.43178 59.0445 8.83921 59.7157 8.30714 60.3469L9.07177 60.9914ZM23.3058 45.9118C20.2865 51.0158 17.1797 54.4614 14.5352 56.6931C11.8801 58.9337 9.71358 59.9325 8.58225 60.1808L8.79666 61.1575C10.1429 60.862 12.4541 59.7579 15.1802 57.4573C17.9168 55.1478 21.0946 51.6139 24.1665 46.4209L23.3058 45.9118ZM24.9611 59.7765C25.179 51.8577 24.5704 47.3463 24.2191 46.0368L23.2532 46.2959C23.5666 47.4639 24.1786 51.8597 23.9615 59.749L24.9611 59.7765ZM26.7916 30.987C28.9128 45.8907 26.4009 54.6802 24.0125 59.5423L24.9101 59.9832C27.3971 54.9203 29.9277 45.9247 27.7816 30.8461L26.7916 30.987Z" fill="#1E326D"/>
<path d="M41.2293 20.9679C41.2293 23.4208 43.2178 25.4093 45.6708 25.4093C48.1238 25.4093 50.1123 23.4208 50.1123 20.9679C50.1123 18.5149 48.1238 16.5264 45.6708 16.5264C43.2178 16.5264 41.2293 18.5149 41.2293 20.9679Z" fill="#1E326D" stroke="#1E326D" stroke-linejoin="round"/>
<path fill-rule="evenodd" clip-rule="evenodd" d="M43.2075 30.9165C38.2892 29.2101 33.9248 24.5282 32.7081 18.3391C42.1342 32.9326 54.6429 29.035 60.4448 10C60.4445 22.5784 56.2293 28.9354 51.0657 30.9201C46.7437 43.5817 54.7353 52.6335 60.0632 58.6683C60.6885 59.3765 61.277 60.0431 61.8047 60.6692C59.3271 60.1253 52.8492 56.4633 46.758 46.1663C46.4256 47.4051 45.8153 51.8587 46.0329 59.7627C43.5952 54.8003 41.0739 45.9077 43.2075 30.9165Z" fill="#1E326D"/>
<path d="M32.7081 18.3391L32.2175 18.4356C32.1713 18.2003 32.2986 17.9653 32.5209 17.8755C32.7433 17.7857 32.9981 17.8664 33.1282 18.0678L32.7081 18.3391ZM43.2075 30.9165L43.3714 30.4441C43.5974 30.5226 43.7362 30.7501 43.7025 30.987L43.2075 30.9165ZM60.4448 10L59.9665 9.85422C60.0387 9.6173 60.2735 9.46895 60.5185 9.50546C60.7635 9.54197 60.9448 9.75233 60.9448 10L60.4448 10ZM51.0657 30.9201L50.5926 30.7585C50.6404 30.6183 50.748 30.5065 50.8864 30.4534L51.0657 30.9201ZM60.0632 58.6683L60.438 58.3374L60.438 58.3374L60.0632 58.6683ZM61.8047 60.6692L62.187 60.3469C62.3251 60.5107 62.3434 60.7443 62.2327 60.9276C62.122 61.111 61.9067 61.2035 61.6975 61.1575L61.8047 60.6692ZM46.758 46.1663L46.2751 46.0368C46.3272 45.8424 46.4908 45.6982 46.6902 45.671C46.8896 45.6437 47.0859 45.7386 47.1883 45.9118L46.758 46.1663ZM46.0329 59.7627L46.5327 59.749C46.5391 59.984 46.381 60.1918 46.1527 60.2482C45.9244 60.3045 45.6878 60.1942 45.5841 59.9832L46.0329 59.7627ZM33.1988 18.2427C34.3818 24.2607 38.6244 28.7972 43.3714 30.4441L43.0436 31.3889C37.954 29.6231 33.4678 24.7957 32.2175 18.4356L33.1988 18.2427ZM60.9231 10.1458C58.0074 19.7117 53.3568 25.6545 48.081 27.2586C42.7346 28.8842 37.0524 25.9865 32.2881 18.6104L33.1282 18.0678C37.7899 25.2853 43.0751 27.7355 47.7901 26.3018C52.5755 24.8468 57.0803 19.3233 59.9665 9.85422L60.9231 10.1458ZM50.8864 30.4534C55.7624 28.5792 59.9445 22.4954 59.9448 9.99999L60.9448 10C60.9445 22.6613 56.6962 29.2916 51.2451 31.3868L50.8864 30.4534ZM59.6884 58.9992C54.3849 52.9921 46.1662 43.7255 50.5926 30.7585L51.5389 31.0816C47.3211 43.4378 55.0858 52.275 60.438 58.3374L59.6884 58.9992ZM61.4224 60.9914C60.8991 60.3706 60.3146 59.7084 59.6884 58.9992L60.438 58.3374C61.0624 59.0445 61.6549 59.7157 62.187 60.3469L61.4224 60.9914ZM47.1883 45.9118C50.2076 51.0158 53.3144 54.4614 55.9589 56.6931C58.614 58.9337 60.7806 59.9325 61.9119 60.1808L61.6975 61.1575C60.3512 60.862 58.0401 59.7579 55.314 57.4573C52.5773 55.1478 49.3996 51.6139 46.3277 46.4209L47.1883 45.9118ZM45.5331 59.7765C45.3151 51.8577 45.9237 47.3463 46.2751 46.0368L47.2409 46.2959C46.9276 47.4639 46.3155 51.8597 46.5327 59.749L45.5331 59.7765ZM43.7025 30.987C41.5813 45.8907 44.0933 54.6802 46.4816 59.5423L45.5841 59.9832C43.0971 54.9203 40.5664 45.9247 42.7125 30.8461L43.7025 30.987Z" fill="#1E326D"/>
<path d="M36.682 48.9902C29.6066 45.7917 24.8574 57.3256 34.2589 58.8763C23.985 58.8764 27.4743 44.4348 36.682 48.9902Z" fill="#1E326D"/>
<path d="M35.0759 57.8908C25.2865 57.3092 30.4233 46.9384 35.6572 49.5554L35.6573 51.9785C33.5638 54.072 34.3974 56.7923 35.0759 57.8908Z" fill="#1E326D"/>
<path d="M33.0526 45.0268C30.9533 45.1565 28.5941 45.2207 29.951 49.6792L30.6295 48.9037C29.951 45.8991 31.7926 46.093 33.2464 46.093C34.7003 46.093 35.9477 45.9692 35.7539 48.5862L36.5418 48.9038C37.3172 45.0268 34.9901 44.9071 33.0526 45.0268Z" fill="#1E326D"/>
<path d="M42.7324 55.2739C42.7324 57.0939 41.257 58.5693 39.437 58.5693C37.617 58.5693 36.1416 57.0939 36.1416 55.2739C36.1416 53.4539 37.617 51.9785 39.437 51.9785C41.257 51.9785 42.7324 53.4539 42.7324 55.2739Z" fill="#1E326D"/>
<path d="M41.1811 51.8586C35.968 49.4993 32.4687 58.0069 39.3958 59.1508C31.8259 59.1508 34.3968 48.4984 41.1811 51.8586Z" fill="#1E326D"/>
<path d="M38.5128 48.8969C36.9748 48.9936 35.2464 49.0415 36.2405 52.3662L36.7376 51.7879C36.2405 49.5474 37.5897 49.692 38.6548 49.692C39.7199 49.692 40.6338 49.5997 40.4918 51.5511L41.069 51.788C41.6371 48.8969 39.9322 48.8077 38.5128 48.8969Z" fill="#1E326D"/>
<path d="M257.071 38.3728V44.8619H235.504V39.6815L248.237 11.4619H235.886V5H256.662V10.1804L243.929 38.3728H257.071Z" fill="#1E326D"/>
<path d="M224.956 44.8619H217.977V5H224.956V44.8619Z" fill="#1E326D"/>
<path d="M180.981 5H191.642C196.259 5 199.858 6.70863 202.439 10.1259C205.039 13.5431 206.338 18.4509 206.338 24.8492C206.338 31.2474 204.993 36.1825 202.303 39.6542C199.631 43.126 195.777 44.8619 190.742 44.8619H180.981V5ZM188.398 11.4074V38.3728H190.797C193.487 38.3728 195.478 37.2458 196.768 34.9919C198.077 32.7379 198.731 29.3298 198.731 24.7674C198.731 15.8607 196.277 11.4074 191.37 11.4074H188.398Z" fill="#1E326D"/>
<path d="M145.323 5H155.984C160.601 5 164.2 6.70863 166.781 10.1259C169.38 13.5431 170.68 18.4509 170.68 24.8492C170.68 31.2474 169.335 36.1825 166.645 39.6542C163.973 43.126 160.119 44.8619 155.084 44.8619H145.323V5ZM152.739 11.4074V38.3728H155.139C157.829 38.3728 159.819 37.2458 161.11 34.9919C162.419 32.7379 163.073 29.3298 163.073 24.7674C163.073 15.8607 160.619 11.4074 155.711 11.4074H152.739Z" fill="#1E326D"/>
<path d="M133.958 5V30.793C133.958 35.5372 132.886 39.1635 130.741 41.6719C128.596 44.1621 125.515 45.4072 121.498 45.4072C117.481 45.4072 114.436 44.1621 112.364 41.6719C110.31 39.1816 109.283 35.519 109.283 30.6839V5H116.645V31.2293C116.645 36.3006 118.326 38.8363 121.689 38.8363C123.252 38.8363 124.461 38.191 125.315 36.9004C126.17 35.6099 126.597 33.774 126.597 31.3928V5H133.958Z" fill="#1E326D"/>
<path d="M76.6777 5H86.8477C90.992 5 94.0094 5.80887 95.8998 7.42662C97.7902 9.02618 98.7354 11.58 98.7354 15.0882C98.7354 17.4148 98.2355 19.3507 97.2358 20.8957C96.2361 22.4407 94.8728 23.3768 93.146 23.704V23.9767C95.3636 24.522 96.9813 25.5672 97.9992 27.1122C99.0171 28.639 99.5261 30.7021 99.5261 33.3014C99.5261 36.9186 98.5536 39.7542 96.6087 41.8082C94.6819 43.844 92.0372 44.8619 88.6745 44.8619H76.6777V5ZM83.6577 11.4074V21.032H87.0658C88.5927 21.032 89.6833 20.6321 90.3377 19.8323C90.992 19.0144 91.3192 17.7693 91.3192 16.097C91.3192 14.4247 90.9557 13.225 90.2286 12.498C89.5197 11.7709 88.3746 11.4074 86.7932 11.4074H83.6577ZM83.6577 27.2213V38.3728H87.393C88.938 38.3728 90.0832 37.9002 90.8284 36.955C91.5919 35.9916 91.9736 34.5284 91.9736 32.5653C91.9736 29.0026 90.4104 27.2213 87.284 27.2213H83.6577Z" fill="#1E326D"/>
<path d="M77.6787 61.4072V53.2562H79.3067V56.4792H82.3867V53.2562H84.0037V61.4072H82.3867V57.8872H79.3067V61.4072H77.6787ZM91.3059 61.5612C90.7339 61.5612 90.2169 61.4329 89.7549 61.1762C89.2929 60.9196 88.9226 60.5492 88.6439 60.0652C88.3726 59.5812 88.2369 59.0019 88.2369 58.3272C88.2369 57.8286 88.3139 57.3812 88.4679 56.9852C88.6293 56.5892 88.8456 56.2519 89.1169 55.9732C89.3956 55.6872 89.7036 55.4709 90.0409 55.3242C90.3856 55.1702 90.7413 55.0932 91.1079 55.0932C91.6726 55.0932 92.1456 55.2216 92.5269 55.4782C92.9083 55.7276 93.1943 56.0759 93.3849 56.5232C93.5829 56.9632 93.6819 57.4692 93.6819 58.0412C93.6819 58.1879 93.6746 58.3309 93.6599 58.4702C93.6453 58.6022 93.6269 58.7086 93.6049 58.7892H89.8099C89.8539 59.1192 89.9529 59.3979 90.1069 59.6252C90.2609 59.8526 90.4589 60.0249 90.7009 60.1422C90.9429 60.2522 91.2179 60.3072 91.5259 60.3072C91.7753 60.3072 92.0099 60.2742 92.2299 60.2082C92.4499 60.1349 92.6736 60.0286 92.9009 59.8892L93.4509 60.8792C93.1503 61.0846 92.8129 61.2496 92.4389 61.3742C92.0649 61.4989 91.6873 61.5612 91.3059 61.5612ZM89.7769 57.7002H92.2959C92.2959 57.2896 92.2006 56.9632 92.0099 56.7212C91.8266 56.4719 91.5333 56.3472 91.1299 56.3472C90.9173 56.3472 90.7156 56.3986 90.5249 56.5012C90.3343 56.5966 90.1729 56.7469 90.0409 56.9522C89.9089 57.1502 89.8209 57.3996 89.7769 57.7002ZM99.0557 61.5612C98.6964 61.5612 98.3774 61.4842 98.0987 61.3302C97.8274 61.1689 97.6147 60.9489 97.4607 60.6702C97.314 60.3916 97.2407 60.0762 97.2407 59.7242C97.2407 59.0716 97.523 58.5656 98.0877 58.2062C98.6524 57.8396 99.5507 57.5902 100.783 57.4582C100.775 57.2529 100.739 57.0732 100.673 56.9192C100.607 56.7579 100.497 56.6296 100.343 56.5342C100.196 56.4389 99.9944 56.3912 99.7377 56.3912C99.4517 56.3912 99.1694 56.4462 98.8907 56.5562C98.612 56.6662 98.3297 56.8092 98.0437 56.9852L97.4717 55.9072C97.7137 55.7532 97.9704 55.6176 98.2417 55.5002C98.513 55.3829 98.799 55.2876 99.0997 55.2142C99.4004 55.1336 99.712 55.0932 100.035 55.0932C100.555 55.0932 100.992 55.1959 101.344 55.4012C101.696 55.6066 101.96 55.9109 102.136 56.3142C102.312 56.7176 102.4 57.2162 102.4 57.8102V61.4072H101.08L100.97 60.7472H100.915C100.651 60.9819 100.365 61.1762 100.057 61.3302C99.7487 61.4842 99.415 61.5612 99.0557 61.5612ZM99.5947 60.2962C99.822 60.2962 100.027 60.2449 100.211 60.1422C100.401 60.0322 100.592 59.8819 100.783 59.6912V58.4592C100.284 58.5179 99.888 58.6022 99.5947 58.7122C99.3014 58.8222 99.0924 58.9542 98.9677 59.1082C98.843 59.2549 98.7807 59.4199 98.7807 59.6032C98.7807 59.8452 98.854 60.0212 99.0007 60.1312C99.1547 60.2412 99.3527 60.2962 99.5947 60.2962ZM108.327 61.5612C107.945 61.5612 107.645 61.4842 107.425 61.3302C107.205 61.1689 107.043 60.9489 106.941 60.6702C106.845 60.3842 106.798 60.0542 106.798 59.6802V52.6292H108.415V59.7462C108.415 59.9296 108.448 60.0579 108.514 60.1312C108.587 60.2046 108.66 60.2412 108.734 60.2412C108.77 60.2412 108.803 60.2412 108.833 60.2412C108.862 60.2339 108.902 60.2266 108.954 60.2192L109.152 61.4182C109.056 61.4549 108.939 61.4879 108.8 61.5172C108.668 61.5466 108.51 61.5612 108.327 61.5612ZM115.272 61.5612C114.788 61.5612 114.396 61.4659 114.095 61.2752C113.795 61.0772 113.578 60.8059 113.446 60.4612C113.314 60.1166 113.248 59.7169 113.248 59.2622V56.5232H112.379V55.3242L113.336 55.2472L113.523 53.5862H114.854V55.2472H116.383V56.5232H114.854V59.2512C114.854 59.6032 114.928 59.8636 115.074 60.0322C115.221 60.2009 115.43 60.2852 115.701 60.2852C115.804 60.2852 115.91 60.2706 116.02 60.2412C116.13 60.2119 116.226 60.1826 116.306 60.1532L116.581 61.3302C116.413 61.3816 116.218 61.4329 115.998 61.4842C115.786 61.5356 115.544 61.5612 115.272 61.5612ZM120.397 61.4072V52.6292H122.014V54.8402L121.937 55.9952C122.179 55.7606 122.458 55.5516 122.773 55.3682C123.089 55.1849 123.455 55.0932 123.873 55.0932C124.541 55.0932 125.025 55.3132 125.325 55.7532C125.626 56.1859 125.776 56.7909 125.776 57.5682V61.4072H124.159V57.7662C124.159 57.2896 124.09 56.9559 123.95 56.7652C123.818 56.5746 123.598 56.4792 123.29 56.4792C123.041 56.4792 122.821 56.5379 122.63 56.6552C122.447 56.7726 122.242 56.9449 122.014 57.1722V61.4072H120.397ZM137.549 61.5612C136.984 61.5612 136.5 61.4549 136.097 61.2422C135.701 61.0296 135.4 60.7509 135.195 60.4062C134.989 60.0542 134.887 59.6692 134.887 59.2512C134.887 58.8112 134.978 58.4372 135.162 58.1292C135.345 57.8212 135.58 57.5536 135.866 57.3262C136.152 57.0989 136.456 56.8936 136.779 56.7102C137.101 56.5269 137.406 56.3472 137.692 56.1712C137.985 55.9952 138.22 55.8082 138.396 55.6102C138.579 55.4049 138.671 55.1666 138.671 54.8952C138.671 54.7632 138.649 54.6422 138.605 54.5322C138.561 54.4222 138.495 54.3379 138.407 54.2792C138.319 54.2206 138.205 54.1912 138.066 54.1912C137.824 54.1912 137.626 54.2829 137.472 54.4662C137.318 54.6422 137.241 54.8769 137.241 55.1702C137.241 55.5076 137.34 55.8706 137.538 56.2592C137.736 56.6406 137.996 57.0256 138.319 57.4142C138.641 57.7956 139.001 58.1586 139.397 58.5032C139.8 58.8479 140.207 59.1522 140.618 59.4162C140.955 59.6289 141.281 59.8086 141.597 59.9552C141.912 60.0946 142.202 60.1899 142.466 60.2412L142.081 61.5612C141.692 61.4732 141.289 61.3376 140.871 61.1542C140.46 60.9636 140.049 60.7289 139.639 60.4502C139.147 60.1056 138.678 59.7169 138.231 59.2842C137.791 58.8516 137.395 58.4006 137.043 57.9312C136.691 57.4546 136.412 56.9816 136.207 56.5122C136.009 56.0356 135.91 55.5919 135.91 55.1812C135.91 54.7999 135.998 54.4552 136.174 54.1472C136.35 53.8319 136.595 53.5826 136.911 53.3992C137.226 53.2086 137.6 53.1132 138.033 53.1132C138.612 53.1132 139.07 53.2782 139.408 53.6082C139.752 53.9309 139.925 54.3599 139.925 54.8952C139.925 55.2472 139.84 55.5626 139.672 55.8412C139.503 56.1199 139.283 56.3729 139.012 56.6002C138.748 56.8276 138.469 57.0402 138.176 57.2382C137.882 57.4362 137.6 57.6342 137.329 57.8322C137.065 58.0229 136.848 58.2246 136.68 58.4372C136.511 58.6499 136.427 58.8882 136.427 59.1522C136.427 59.3796 136.482 59.5812 136.592 59.7572C136.709 59.9332 136.867 60.0689 137.065 60.1642C137.263 60.2596 137.49 60.3072 137.747 60.3072C138.047 60.3072 138.344 60.2302 138.638 60.0762C138.931 59.9222 139.213 59.7132 139.485 59.4492C139.815 59.1192 140.101 58.7379 140.343 58.3052C140.592 57.8726 140.786 57.3886 140.926 56.8532H142.411C142.227 57.4692 141.985 58.0559 141.685 58.6132C141.391 59.1706 141.028 59.6912 140.596 60.1752C140.229 60.5932 139.789 60.9306 139.276 61.1872C138.77 61.4366 138.194 61.5612 137.549 61.5612ZM151.692 61.4072V53.2562H154.387C154.945 53.2562 155.443 53.3186 155.883 53.4432C156.331 53.5679 156.683 53.7769 156.939 54.0702C157.203 54.3636 157.335 54.7632 157.335 55.2692C157.335 55.5186 157.288 55.7642 157.192 56.0062C157.104 56.2409 156.98 56.4499 156.818 56.6332C156.657 56.8166 156.459 56.9522 156.224 57.0402V57.0842C156.664 57.1869 157.027 57.3996 157.313 57.7222C157.599 58.0376 157.742 58.4666 157.742 59.0092C157.742 59.5519 157.603 60.0029 157.324 60.3622C157.053 60.7142 156.679 60.9782 156.202 61.1542C155.733 61.3229 155.198 61.4072 154.596 61.4072H151.692ZM153.32 56.5782H154.277C154.791 56.5782 155.165 56.4829 155.399 56.2922C155.634 56.0942 155.751 55.8339 155.751 55.5112C155.751 55.1519 155.63 54.8952 155.388 54.7412C155.146 54.5872 154.78 54.5102 154.288 54.5102H153.32V56.5782ZM153.32 60.1532H154.453C155.011 60.1532 155.432 60.0542 155.718 59.8562C156.012 59.6509 156.158 59.3356 156.158 58.9102C156.158 58.5142 156.012 58.2282 155.718 58.0522C155.432 57.8689 155.011 57.7772 154.453 57.7772H153.32V60.1532ZM163.635 61.5612C162.967 61.5612 162.483 61.3449 162.183 60.9122C161.882 60.4722 161.732 59.8636 161.732 59.0862V55.2472H163.338V58.8882C163.338 59.3649 163.407 59.6986 163.547 59.8892C163.686 60.0799 163.91 60.1752 164.218 60.1752C164.467 60.1752 164.683 60.1166 164.867 59.9992C165.057 59.8746 165.255 59.6766 165.461 59.4052V55.2472H167.078V61.4072H165.758L165.637 60.5162H165.593C165.329 60.8316 165.043 61.0846 164.735 61.2752C164.427 61.4659 164.06 61.5612 163.635 61.5612ZM173.719 61.5612C173.205 61.5612 172.758 61.4329 172.377 61.1762C172.003 60.9196 171.713 60.5492 171.508 60.0652C171.302 59.5812 171.2 59.0019 171.2 58.3272C171.2 57.6599 171.321 57.0879 171.563 56.6112C171.812 56.1272 172.135 55.7532 172.531 55.4892C172.927 55.2252 173.345 55.0932 173.785 55.0932C174.129 55.0932 174.419 55.1556 174.654 55.2802C174.896 55.3976 175.127 55.5589 175.347 55.7642L175.292 54.7962V52.6292H176.909V61.4072H175.589L175.468 60.7692H175.424C175.196 60.9892 174.936 61.1762 174.643 61.3302C174.349 61.4842 174.041 61.5612 173.719 61.5612ZM174.137 60.2302C174.357 60.2302 174.558 60.1826 174.742 60.0872C174.932 59.9846 175.116 59.8196 175.292 59.5922V56.8862C175.108 56.7176 174.918 56.6002 174.72 56.5342C174.529 56.4609 174.335 56.4242 174.137 56.4242C173.909 56.4242 173.697 56.4976 173.499 56.6442C173.308 56.7836 173.154 56.9926 173.037 57.2712C172.919 57.5499 172.861 57.8946 172.861 58.3052C172.861 58.7306 172.908 59.0862 173.004 59.3722C173.106 59.6582 173.253 59.8746 173.444 60.0212C173.634 60.1606 173.865 60.2302 174.137 60.2302ZM183.548 61.5612C183.034 61.5612 182.587 61.4329 182.206 61.1762C181.832 60.9196 181.542 60.5492 181.337 60.0652C181.131 59.5812 181.029 59.0019 181.029 58.3272C181.029 57.6599 181.15 57.0879 181.392 56.6112C181.641 56.1272 181.964 55.7532 182.36 55.4892C182.756 55.2252 183.174 55.0932 183.614 55.0932C183.958 55.0932 184.248 55.1556 184.483 55.2802C184.725 55.3976 184.956 55.5589 185.176 55.7642L185.121 54.7962V52.6292H186.738V61.4072H185.418L185.297 60.7692H185.253C185.025 60.9892 184.765 61.1762 184.472 61.3302C184.178 61.4842 183.87 61.5612 183.548 61.5612ZM183.966 60.2302C184.186 60.2302 184.387 60.1826 184.571 60.0872C184.761 59.9846 184.945 59.8196 185.121 59.5922V56.8862C184.937 56.7176 184.747 56.6002 184.549 56.5342C184.358 56.4609 184.164 56.4242 183.966 56.4242C183.738 56.4242 183.526 56.4976 183.328 56.6442C183.137 56.7836 182.983 56.9926 182.866 57.2712C182.748 57.5499 182.69 57.8946 182.69 58.3052C182.69 58.7306 182.737 59.0862 182.833 59.3722C182.935 59.6582 183.082 59.8746 183.273 60.0212C183.463 60.1606 183.694 60.2302 183.966 60.2302ZM191.749 63.8712C191.565 63.8712 191.408 63.8602 191.276 63.8382C191.144 63.8162 191.019 63.7869 190.902 63.7502L191.199 62.5182C191.257 62.5329 191.323 62.5476 191.397 62.5622C191.477 62.5842 191.554 62.5952 191.628 62.5952C191.943 62.5952 192.192 62.5072 192.376 62.3312C192.559 62.1552 192.695 61.9316 192.783 61.6602L192.893 61.2862L190.495 55.2472H192.123L193.102 58.1072C193.197 58.3859 193.285 58.6719 193.366 58.9652C193.446 59.2586 193.531 59.5519 193.619 59.8452H193.674C193.74 59.5519 193.809 59.2622 193.883 58.9762C193.963 58.6829 194.04 58.3932 194.114 58.1072L194.961 55.2472H196.512L194.323 61.5942C194.147 62.0782 193.945 62.4889 193.718 62.8262C193.49 63.1709 193.219 63.4312 192.904 63.6072C192.596 63.7832 192.211 63.8712 191.749 63.8712ZM205.65 61.4072V53.2562H210.666V54.6202H207.278V56.7432H210.171V58.1072H207.278V61.4072H205.65ZM214.835 61.4072V53.2562H216.463V61.4072H214.835ZM221.216 61.4072V53.2562H222.877L225.242 57.6012L226.067 59.3612H226.122C226.078 58.9359 226.03 58.4702 225.979 57.9642C225.928 57.4582 225.902 56.9742 225.902 56.5122V53.2562H227.442V61.4072H225.781L223.438 57.0512L222.613 55.3022H222.558C222.595 55.7422 222.639 56.2079 222.69 56.6992C222.741 57.1906 222.767 57.6709 222.767 58.1402V61.4072H221.216ZM232.205 61.4072V53.2562H234.438C235.274 53.2562 235.989 53.4029 236.583 53.6962C237.184 53.9896 237.646 54.4332 237.969 55.0272C238.299 55.6212 238.464 56.3766 238.464 57.2932C238.464 58.2099 238.303 58.9726 237.98 59.5812C237.657 60.1899 237.203 60.6482 236.616 60.9562C236.029 61.2569 235.333 61.4072 234.526 61.4072H232.205ZM233.833 60.0872H234.328C234.841 60.0872 235.281 59.9956 235.648 59.8122C236.022 59.6216 236.308 59.3209 236.506 58.9102C236.704 58.4922 236.803 57.9532 236.803 57.2932C236.803 56.6332 236.704 56.1052 236.506 55.7092C236.308 55.3059 236.022 55.0162 235.648 54.8402C235.281 54.6569 234.841 54.5652 234.328 54.5652H233.833V60.0872ZM242.808 61.4072V53.2562H247.802V54.6202H244.436V56.5012H247.285V57.8652H244.436V60.0432H247.923V61.4072H242.808ZM252.325 61.4072V53.2562H255.152C255.732 53.2562 256.252 53.3332 256.714 53.4872C257.176 53.6339 257.543 53.8906 257.814 54.2572C258.086 54.6166 258.221 55.1079 258.221 55.7312C258.221 56.3326 258.086 56.8276 257.814 57.2162C257.543 57.5976 257.176 57.8799 256.714 58.0632C256.252 58.2392 255.732 58.3272 255.152 58.3272H253.953V61.4072H252.325ZM253.953 57.0402H255.009C255.537 57.0402 255.937 56.9302 256.208 56.7102C256.487 56.4902 256.626 56.1639 256.626 55.7312C256.626 55.2912 256.487 54.9869 256.208 54.8182C255.937 54.6422 255.537 54.5542 255.009 54.5542H253.953V57.0402ZM256.747 61.4072L254.855 57.9092L255.999 56.8972L258.573 61.4072H256.747Z" fill="#CECECE"/>
</svg>
