<svg width="600" height="600" viewBox="0 0 600 600" fill="none" xmlns="http://www.w3.org/2000/svg">
<rect width="600" height="600" fill="white"/>
<path d="M323.077 173.077C323.077 160.312 312.764 150 300 150C287.236 150 276.923 160.312 276.923 173.077V276.923H173.077C160.312 276.923 150 287.236 150 300C150 312.764 160.312 323.077 173.077 323.077H276.923V426.923C276.923 439.688 287.236 450 300 450C312.764 450 323.077 439.688 323.077 426.923V323.077H426.923C439.688 323.077 450 312.764 450 300C450 287.236 439.688 276.923 426.923 276.923H323.077V173.077Z" fill="#333333"/>
</svg>
