<svg width="58" height="211" viewBox="0 0 58 211" fill="none" xmlns="http://www.w3.org/2000/svg">
<path d="M25.6191 154.279C-13.9059 159.141 2.34807 34.2007 9.05607 14.6668C12.1701 5.59971 19.6811 -2.45204 30.3551 0.694412C37.9351 2.92884 42.6331 12.3261 45.6411 19.3604C54.0261 38.9756 57.2221 58.8827 57.5001 80.1183C57.6421 90.9272 54.8601 171.581 28.4791 159.068L25.6191 154.279Z" fill="#539B2E"/>
<path d="M38.831 193.732C37.266 188.097 36.697 182.059 35.802 176.283C34.788 169.747 33.864 163.197 33.008 156.638C30.048 133.965 28.108 111.092 28.163 88.2118C28.234 85.4386 28.275 82.6644 28.269 79.8872C28.298 78.7223 27.519 78.1303 26.636 78.0581C25.505 77.9357 24.204 78.6681 24.207 80.1531C24.137 82.9805 24.102 85.8079 24.097 88.6353C23.503 112.141 20.574 135.549 20.775 159.086C20.87 170.155 20.122 181.317 21.094 192.357C21.623 198.355 23.231 210.931 31.59 210.947C35.167 210.954 38.595 208.968 40.042 205.64C41.635 201.974 39.822 197.301 38.831 193.732Z" fill="#492106"/>
</svg>
