<svg width="87" height="203" viewBox="0 0 87 203" fill="none" xmlns="http://www.w3.org/2000/svg">
<path d="M16.3532 135.622C6.56624 127.766 1.25924 105.023 0.289243 95.3512C-1.06476 81.8544 2.44924 69.5535 8.43924 57.7503C18.1752 38.5726 25.4122 20.1123 31.0652 0.349609C34.9502 5.43551 57.8093 27.3744 64.0533 34.3636C78.8802 50.9618 88.3122 75.7471 86.5072 98.1585C85.2712 113.498 82.7112 128.338 66.8742 135.261C54.1632 140.818 43.8192 145.501 31.7532 141.344C27.8712 140.009 22.0592 140.201 16.3532 135.622Z" fill="#8FB539"/>
<path d="M41.1032 136.917C44.9332 148.216 41.1052 164.383 41.1032 176.275C41.1012 184.632 42.0652 185.583 33.7892 186.282C30.1062 186.592 18.8492 185.71 17.9192 188.852C25.5652 189.697 32.9552 190.378 40.8692 190.253C37.4702 193.902 35.7452 198.612 33.3232 202.905C36.8902 202.267 39.2872 198.694 41.9132 196.251C46.0622 192.393 45.3212 193.157 49.7462 192.95C56.8772 192.616 64.3982 193.157 71.6192 192.153C67.3912 186.981 57.3202 190.849 53.5562 185.795C50.4392 181.611 52.1442 166.86 52.3912 161.45C52.6452 155.895 51.1262 144.859 53.2042 139.733C55.8102 133.303 68.4782 127.365 67.5842 119.656C62.2512 121.52 56.9922 127.88 51.8772 130.844C50.7242 124.209 56.0632 116.427 58.1432 110.298C52.4802 112.535 50.3122 120.437 47.7192 125.335C46.8612 113.497 52.6452 101.414 50.9452 89.6182C43.4972 97.6328 43.3952 113.619 42.4682 124.003C40.1382 117.32 34.9872 99.4227 25.9102 99.6595C23.9252 109.644 34.9932 116.509 37.9752 124.805C38.2092 125.056 38.2212 125.05 38.0102 124.786C32.8172 120.407 24.7802 117.111 17.9332 117.669C16.2462 125.87 31.8842 131.768 37.1152 135.58L41.1032 136.917Z" fill="#7E100E"/>
</svg>
