<svg width="80" height="181" viewBox="0 0 80 181" fill="none" xmlns="http://www.w3.org/2000/svg">
<path d="M79.4091 67.8393C78.7951 64.0929 76.6683 60.3335 74.2324 57.4845C71.3719 54.1413 66.9271 52.5087 63.2508 50.2977C59.2366 47.8826 56.7273 43.7725 57.7343 39C58.2828 36.4122 59.3589 33.9462 60.1275 31.4224C60.8568 29.0239 61.2071 26.4422 61.2071 23.9368C61.2088 15.8561 56.432 8.40028 49.9521 3.91083C43.7858 -0.362172 35.2839 -1.10708 29.1603 3.62424C25.561 6.40485 22.6411 10.5946 21.7502 15.1042C20.7117 20.3569 21.9223 25.7665 22.2393 31.0307C22.4874 35.1862 21.7965 39.9158 18.591 42.8673C16.1455 45.1186 12.4055 46.0361 9.59481 47.773C5.13512 50.5282 1.50435 54.8836 0.365409 60.0864C-0.733355 65.1034 0.824813 70.2072 2.66336 74.8412C4.22504 78.7777 6.54224 83.4564 5.91337 87.8416C5.29062 92.1829 3.33851 96.4156 2.2249 100.647C0.359267 107.734 2.73585 116.414 6.76233 122.332C8.78255 125.3 11.4456 127.677 14.8528 128.873C15.0555 128.944 15.2607 129 15.4642 129.057C16.1341 129.483 16.8163 129.878 17.4949 130.246C21.8848 132.623 26.7855 134.181 31.681 135.079C32.8121 135.285 34.0664 135.467 35.3887 135.6C37.0168 136.173 38.6597 136.683 40.3096 137.124C44.0845 138.134 47.8629 138.56 51.726 137.906C56.5727 137.089 61.1005 134.425 64.5723 131.003C71.5527 124.123 73.5433 113.063 67.6189 104.959C65.189 101.631 61.9617 98.914 59.7921 95.3955C58.9352 94.0074 58.4584 92.5212 58.4881 90.8859C58.5038 90.0114 58.7265 89.4365 59.3152 88.5032C59.3615 88.4305 59.3912 88.3814 59.4139 88.3419C59.4375 88.3139 59.4637 88.2832 59.496 88.2438C59.6689 88.0317 59.8602 87.8354 60.0506 87.6383C60.2367 87.4455 61.0577 86.7383 60.9896 86.7786C62.0289 85.9881 63.1696 85.3344 64.3164 84.7148C66.6703 83.4424 69.1299 82.382 71.475 81.0956C76.5522 78.3106 80.4162 73.9964 79.4091 67.8393Z" fill="#3D6922"/>
<path d="M47.8061 85.2409C49.2245 82.8853 45.557 80.7488 44.1464 83.093C41.7035 87.1504 39.0098 90.9379 35.9135 94.4205C36.1703 91.0256 36.4481 87.635 36.6149 84.2331C36.6804 82.8581 36.759 81.428 36.7747 79.9899C40.8571 76.7142 44.3526 72.471 46.1134 67.5048C47.0322 64.9144 42.9341 63.8093 42.0249 66.3743C40.9209 69.4844 38.8404 72.3553 36.4044 74.7222C36.3013 74.143 36.1729 73.5734 36.0131 73.0143C36.6446 70.607 32.7649 69.6483 31.8504 72.1169C28.6746 80.6831 26.4317 89.6742 24.9198 98.8126C23.2856 93.2602 22.6847 87.4133 22.6594 81.6155C22.6471 78.8726 18.4084 78.8708 18.4198 81.6155C18.4591 90.491 19.8443 99.3542 23.7153 107.395C23.4131 109.983 23.1616 112.576 22.9607 115.168C20.2217 111.059 18.3709 106.418 17.4975 101.467C17.0206 98.7697 12.9356 99.9159 13.409 102.598C14.6571 109.665 17.8713 116.228 22.5598 121.607C22.3947 125.075 22.3091 128.533 22.2952 131.963C22.255 142.04 23.014 152.202 25.1495 162.065C26.0928 166.422 27.554 170.557 28.2326 174.969C28.9427 179.596 34.0741 181.312 38.1215 179.908C41.6074 178.698 44.0547 175.464 43.7613 171.783C43.4722 168.161 42.3603 164.585 41.3506 161.117C40.327 157.605 39.1662 154.129 38.2508 150.586C36.835 145.108 36.5127 139.205 36.0908 133.58C35.2838 122.824 34.9353 111.799 35.4829 100.989C40.3365 96.3414 44.3307 91.0159 47.8061 85.2409Z" fill="#492106"/>
</svg>
