<svg width="139" height="183" viewBox="0 0 139 183" fill="none" xmlns="http://www.w3.org/2000/svg">
<path d="M69.7856 123.012C67.8266 128.103 60.6606 131.328 55.1966 129.916C51.7236 129.02 50.4586 125.154 47.4496 124.045C42.5906 122.254 44.0116 124.108 39.7476 124.515C32.1976 125.233 28.1096 126.31 21.9206 119.375C17.3936 114.303 17.2446 108.146 13.9596 103.421C9.35962 96.8032 1.81763 92.3615 0.236632 83.3857C-1.12037 75.6821 3.72463 74.3978 5.49063 68.8142C7.96163 60.9943 3.63662 51.9312 7.12262 43.8272C9.00862 39.4437 16.8266 29.7154 21.5596 36.6343C21.8496 20.9372 36.9416 11.3072 50.9486 14.1868C55.0996 -0.500019 84.0916 -6.06451 91.2216 8.60723C104.353 -0.163907 123.165 14.3262 117.906 29.011C130.401 25.1984 139.192 40.1229 138.432 51.1636C137.893 58.9976 130.795 61.5742 129.794 67.0745C128.859 72.2085 135.706 80.7228 134.164 87.7572C132.649 94.6591 127.437 98.9624 120.353 98.3664C123.151 113.773 113.609 129.527 96.5376 123.957C94.8806 136.405 74.8156 130.35 71.5016 123.874L69.7856 123.012Z" fill="#D3E14E"/>
<path d="M56.5226 110.989C65.4396 128.136 62.7936 147.689 60.0226 166.335C59.5976 169.203 57.2416 176.709 58.1986 179.34C59.7796 183.691 66.2696 182.863 70.0326 182.276C77.7226 181.078 75.9556 178.637 74.3966 172.112C72.9886 166.21 73.1416 159.566 72.8466 153.474C72.2906 142 73.3966 130.343 75.6896 119.488C76.9286 113.627 77.6106 109.301 84.1046 107.601C90.2426 105.995 95.7866 105.887 101.4 101.911C96.5776 101.203 92.2626 101.556 87.6796 102.542C91.4726 100.396 94.3076 97.0268 97.7266 94.2686C102.482 97.3067 111.903 92.7496 115.444 89.0603C111.144 90.481 106.055 90.2121 101.713 91.1633C107.226 85.1864 112.66 79.4835 115.15 71.6073C106.565 84.0737 93.5416 97.7462 80.6456 105.141C85.2426 98.1074 91.0606 92.263 95.7876 85.4614C97.7546 82.631 98.5586 79.03 100.418 76.5217C102.432 73.8036 106.669 73.4133 106.65 68.8271C104.828 70.5929 102.662 71.9976 100.348 72.9337C103.892 68.2773 105.514 59.0697 103.824 53.5925C99.2426 64.3041 97.3076 76.3431 89.8486 86.1045C90.6216 81.0286 92.1956 73.916 89.7886 69.2084C93.4016 66.2465 94.4146 59.6145 93.5506 55.1055C92.6436 57.671 90.6126 62.8793 89.7376 64.7847C90.3096 59.47 86.7796 53.2724 83.6576 49.4678C84.5736 56.0145 88.1586 64.8067 87.3996 71.3645C84.1796 71.3635 81.7166 68.802 80.1376 66.0047C79.7416 69.5706 82.0286 70.4966 83.6836 73.007C85.7446 76.1303 86.7706 76.618 86.9196 81.0527C87.1336 87.3667 85.1676 91.9248 81.2766 96.6686C80.5836 94.3037 80.0566 92.1686 78.4496 90.2884C78.5966 96.8191 79.0646 98.0411 74.9456 102.927C72.5236 105.798 70.2946 110.2 66.7256 111.49C67.5406 107.5 68.0436 102.235 67.8666 98.0813C74.0126 97.5917 80.1836 81.9918 79.6156 76.7063C78.5246 83.4406 74.4796 88.7493 70.0066 93.8583C70.7046 88.2235 68.9096 80.9915 67.9206 75.5765C66.0646 80.6734 67.2486 87.5473 66.6536 92.9131C66.0296 98.5488 64.6456 103.811 63.7576 109.206C52.8786 110.268 57.4076 93.3526 57.0866 86.6985C56.7066 78.8153 58.4116 63.384 51.9916 57.5285C50.7596 62.3265 51.0826 68.8532 52.6386 73.5127C50.2276 70.907 48.2126 66.69 44.2126 67.0201C45.7016 72.8996 51.3836 74.9956 52.0206 81.6186C52.5656 87.2854 52.7056 93.3174 52.6106 98.9582C50.1726 94.2465 45.4606 90.2222 42.6066 85.5406C40.0576 81.3557 37.7386 77.0996 35.2476 72.7541C34.4766 77.3113 36.8676 81.9015 39.4376 85.4965C35.4166 84.0737 31.7026 80.4888 27.3556 79.4153C29.5326 86.1075 37.5466 88.0148 42.3256 92.4907C46.2156 96.1328 49.8956 102.123 53.2156 106.484C45.7786 112.672 34.1096 102.079 26.8606 101.922C31.9656 103.614 36.0436 107.453 41.1276 108.84C38.9916 111.656 35.9776 115.01 35.2326 118.272C36.8656 116.051 39.9926 113.134 42.6076 111.709C44.9906 110.411 49.4406 111.567 51.9766 110.601L56.5226 110.989Z" fill="#4D2408"/>
</svg>
