<svg width="87" height="192" viewBox="0 0 87 192" fill="none" xmlns="http://www.w3.org/2000/svg">
<path d="M32.7021 108.195C31.8241 130.196 30.5921 152.356 28.7581 174.305C28.0621 182.631 26.2041 187.499 33.1571 190.164C36.7571 191.542 53.4461 192.744 57.0531 190.995C64.9751 187.15 58.6291 166.818 57.3281 158.725C55.8081 149.258 54.9511 131.174 51.1101 124.567L32.7021 108.195Z" fill="#391E04"/>
<path d="M39.757 0C27.677 15.8436 9.31102 33.0869 3.59302 52.4212C10.367 54.6305 16.97 52.6238 23.779 52.5425C22.944 59.7374 14.521 67.6778 11.156 74.5637C6.80301 83.4683 3.967 93.0792 0 101.922C6.507 104.616 15.035 101.777 21.343 99.6019C19.458 110.923 8.86803 120.468 5.64603 131.857C0.775027 149.069 8.174 147.755 21.707 145.682C33.973 143.805 46.194 145.664 58.612 145.523C65.928 145.44 79.191 147.493 85.761 144.648C80.523 130.399 63.735 120.451 57.553 106.563C66.223 103.93 96.067 106.364 83.457 91.1127C75.544 81.5439 64.389 73.2233 54.915 64.8745C58.659 61.2415 68.028 62.8518 70.978 58.2495C75.02 51.9425 65.045 42.4561 62.192 37.6451C58.157 30.8405 46.31 8.36178 39.757 0Z" fill="#A2D143"/>
</svg>
