<svg width="118" height="127" viewBox="0 0 118 127" fill="none" xmlns="http://www.w3.org/2000/svg">
<path d="M80.1585 9.67804C84.0675 0.886044 68.0645 -4.15496 63.1295 4.44904C57.6715 6.53204 55.5665 7.63704 50.1085 7.09504C48.1015 6.89604 42.0045 5.19904 39.4865 11.012C25.3165 17.512 37.1265 48.632 37.1265 48.632H80.1965C80.1965 48.632 84.6445 35.161 85.0445 24.533C92.3175 19.928 89.9005 5.67804 80.1585 9.67804Z" fill="#BF504C"/>
<path d="M72.5124 60.4229H44.8154V98.2978H72.5124V60.4229Z" fill="#E7B7B7"/>
<path d="M72.5085 60.4189V69.6479C71.7315 73.4059 64.7875 77.0259 58.6655 77.0259C52.5325 77.0259 45.5995 73.4049 44.8115 69.6479V60.4189H72.5085Z" fill="#7A1F0C"/>
<path d="M41.5576 40.6671C39.1906 37.1061 33.7066 35.0751 31.3736 39.2481C29.0896 43.3341 30.6596 56.1851 38.3676 53.8191C43.5136 52.2391 43.4756 43.5521 41.5576 40.6671Z" fill="#E7B7B7"/>
<path d="M39.4861 48.0787C39.2101 48.0787 38.9861 47.8547 38.9861 47.5787C38.9861 43.4277 36.6861 41.3347 34.7161 40.8047C34.4491 40.7327 34.2911 40.4587 34.3631 40.1917C34.4351 39.9247 34.7101 39.7667 34.9761 39.8387C37.2881 40.4607 39.9861 42.8607 39.9861 47.5787C39.9861 47.8557 39.7621 48.0787 39.4861 48.0787Z" fill="#7A1F0C"/>
<path d="M75.7663 40.6671C78.1333 37.1061 83.6173 35.0751 85.9503 39.2481C88.2343 43.3341 86.6643 56.1851 78.9563 53.8191C73.8093 52.2391 73.8483 43.5521 75.7663 40.6671Z" fill="#E7B7B7"/>
<path d="M77.8379 48.079C77.5619 48.079 77.3379 47.855 77.3379 47.579C77.3379 42.862 80.0369 40.461 82.3479 39.839C82.6139 39.766 82.8889 39.925 82.9609 40.192C83.0329 40.459 82.8749 40.733 82.6079 40.805C80.6379 41.335 78.3379 43.428 78.3379 47.579C78.3379 47.856 78.1139 48.079 77.8379 48.079Z" fill="#7A1F0C"/>
<path d="M58.6612 18.1523C30.9772 18.1523 37.6712 37.1873 37.6712 46.6773C37.6712 56.1673 37.3312 71.8823 58.6612 71.8823C79.9912 71.8823 79.6512 56.1673 79.6512 46.6773C79.6512 37.1873 86.3452 18.1523 58.6612 18.1523Z" fill="#E7B7B7"/>
<path d="M49.2676 40.3218C49.2676 41.8078 49.9746 43.0118 50.8476 43.0118C51.7196 43.0118 52.4266 41.8068 52.4266 40.3218C52.4266 38.8368 51.7196 37.6318 50.8476 37.6318C49.9746 37.6318 49.2676 38.8368 49.2676 40.3218Z" fill="#0F1444"/>
<path d="M54.3763 35.4078C54.0473 36.5278 51.2213 34.5028 49.5643 34.6678C46.7473 34.9478 46.6323 36.3678 45.6113 36.1048C45.4703 34.8108 47.2703 33.1588 49.7153 32.9968C53.3323 32.7568 54.3763 35.4078 54.3763 35.4078Z" fill="#BF504C"/>
<path d="M68.0643 40.3218C68.0643 41.8078 67.3573 43.0118 66.4843 43.0118C65.6123 43.0118 64.9053 41.8068 64.9053 40.3218C64.9053 38.8368 65.6123 37.6318 66.4843 37.6318C67.3563 37.6318 68.0643 38.8368 68.0643 40.3218Z" fill="#0F1444"/>
<path d="M62.9541 35.4078C63.2841 36.5278 66.1081 34.5028 67.7661 34.6678C70.5831 34.9478 70.6981 36.3678 71.7191 36.1048C71.8601 34.8108 70.0601 33.1588 67.6151 32.9968C63.9981 32.7568 62.9541 35.4078 62.9541 35.4078Z" fill="#BF504C"/>
<path d="M59.7651 54.436C58.9211 54.436 57.896 54.195 57.24 53.688C56.809 53.355 56.5621 52.929 56.5261 52.455C56.4851 51.924 56.5601 51.193 56.6641 50.182C56.8161 48.698 57.046 46.454 57.046 43.334C57.046 43.058 57.27 42.834 57.546 42.834C57.822 42.834 58.046 43.058 58.046 43.334C58.046 46.506 57.813 48.779 57.659 50.284C57.56 51.244 57.4891 51.937 57.5231 52.378C57.5381 52.568 57.6451 52.737 57.8511 52.897C58.4291 53.342 59.562 53.52 60.219 53.4C60.493 53.351 60.751 53.531 60.801 53.803C60.85 54.075 60.6701 54.335 60.3981 54.385C60.2071 54.418 59.9921 54.436 59.7651 54.436Z" fill="#7A1F0C"/>
<path d="M39.9374 45.7595C38.7994 47.8995 39.4084 50.4495 41.2994 51.4555C43.1894 52.4605 45.6444 51.5395 46.7824 49.3995C47.9204 47.2585 47.3114 44.7095 45.4204 43.7045C43.5304 42.6985 41.0754 43.6185 39.9374 45.7595Z" fill="#E3A2A2"/>
<path d="M77.3938 45.7595C78.5318 47.8995 77.9228 50.4495 76.0318 51.4555C74.1418 52.4605 71.6868 51.5395 70.5488 49.3995C69.4108 47.2585 70.0198 44.7095 71.9108 43.7045C73.8008 42.6985 76.2558 43.6185 77.3938 45.7595Z" fill="#E3A2A2"/>
<path d="M56.7298 58.9345C59.1808 59.3325 65.1698 57.6235 67.0098 54.2715C68.3868 54.4035 71.3018 58.9025 64.7658 61.9595C58.1008 65.0775 56.1558 59.9725 56.7298 58.9345Z" fill="#FAFAFF"/>
<path d="M58.658 16.9111C31.758 16.9111 36.958 37.9911 36.958 37.9911L38.5379 51.0811C39.9879 34.5611 44.338 35.4011 44.698 25.7611C56.505 35.4491 64.4429 28.5741 64.4429 28.5741C66.3869 31.1681 70.155 31.7491 73.404 31.0161C74.805 35.9121 77.6679 38.2991 78.7879 51.0821L80.368 37.9921C80.368 37.9921 85.568 16.9111 58.658 16.9111Z" fill="#BF504C"/>
<path d="M117.323 126.193H0C0 107.541 6.91002 91.3804 14.757 87.3594C22.558 83.3614 39.188 84.3554 44.819 81.4434C44.819 81.4434 47.275 90.2954 58.662 90.2954C70.049 90.2954 72.505 81.4434 72.505 81.4434C78.136 84.3674 94.766 83.3624 102.567 87.3594C110.413 91.3804 117.323 107.542 117.323 126.193Z" fill="#E58A45"/>
<path d="M58.6657 91.1777H49.1807C49.9307 95.8447 55.8477 103.011 58.6657 103.011C61.4847 103.011 67.4007 95.8437 68.1507 91.1777H58.6657Z" fill="#0F1444"/>
<path d="M66.3176 126.191H51.0176C51.0176 126.191 53.2676 112.141 55.1376 100.301H62.1876C64.0676 112.141 66.3176 126.191 66.3176 126.191Z" fill="#0F1444"/>
<path d="M72.5135 78.1357C72.5135 85.3217 65.1655 90.2937 58.6665 90.2957C52.1675 90.2937 44.8195 85.3217 44.8195 78.1357L40.2715 82.7987C40.2715 87.3857 47.3895 96.0107 49.8895 96.0107C51.9045 96.0107 54.7635 92.1367 58.6665 92.1357C62.5695 92.1367 65.4285 96.0107 67.4435 96.0107C69.9435 96.0107 77.0615 87.3857 77.0615 82.7987L72.5135 78.1357Z" fill="#FAFAFF"/>
<path d="M99.2375 125.742C99.2305 125.742 99.2236 125.742 99.2176 125.742C98.9416 125.731 98.7265 125.499 98.7375 125.223C98.7425 125.079 99.2795 110.714 97.0375 101.374C96.9725 101.105 97.1386 100.835 97.4076 100.771C97.6756 100.708 97.9466 100.872 98.0106 101.141C100.285 110.617 99.7425 125.118 99.7375 125.263C99.7255 125.532 99.5045 125.742 99.2375 125.742Z" fill="#0F1444"/>
<path d="M18.083 125.742C17.816 125.742 17.595 125.531 17.584 125.262C17.578 125.117 17.036 110.616 19.311 101.14C19.375 100.871 19.643 100.705 19.914 100.77C20.182 100.834 20.348 101.104 20.284 101.373C18.041 110.716 18.578 125.078 18.584 125.222C18.595 125.498 18.38 125.73 18.104 125.741C18.096 125.742 18.09 125.742 18.083 125.742Z" fill="#0F1444"/>
<path d="M92.9014 112.011H73.4014C73.1254 112.011 72.9014 111.787 72.9014 111.511C72.9014 111.235 73.1254 111.011 73.4014 111.011H92.9014C93.1774 111.011 93.4014 111.235 93.4014 111.511C93.4014 111.787 93.1774 112.011 92.9014 112.011Z" fill="#0F1444"/>
</svg>
