<svg width="118" height="127" viewBox="0 0 118 127" fill="none" xmlns="http://www.w3.org/2000/svg">
<path d="M45.6053 6.23841C56.8033 -4.59459 79.1483 -0.969587 85.3993 14.4004C90.5343 27.0264 84.0233 33.8904 88.0233 47.7234C92.0233 61.5564 99.7583 80.7994 57.0163 79.0714C14.2743 77.3434 30.6073 58.0124 30.4133 45.1614C30.1993 31.0684 26.8983 2.40541 45.6053 6.23841Z" fill="#2D2D64"/>
<path d="M72.5134 60.5664H44.8164V90.4414H72.5134V60.5664Z" fill="#E7B7B7"/>
<path d="M72.5105 60.5635V69.7925C71.7335 73.5505 64.7895 77.1705 58.6675 77.1705C52.5345 77.1705 45.6015 73.5495 44.8135 69.7925V60.5635H72.5105Z" fill="#7A1F0C"/>
<path d="M75.767 40.8106C78.134 37.2496 83.618 35.2186 85.951 39.3916C88.235 43.4776 86.665 56.3286 78.957 53.9626C73.811 52.3836 73.849 43.6966 75.767 40.8106Z" fill="#E7B7B7"/>
<path d="M77.8389 48.2232C77.5629 48.2232 77.3389 47.9992 77.3389 47.7232C77.3389 43.0062 80.0369 40.6052 82.3489 39.9832C82.6129 39.9112 82.8909 40.0692 82.9609 40.3362C83.0329 40.6032 82.8749 40.8772 82.6079 40.9492C80.6379 41.4792 78.3379 43.5712 78.3379 47.7232C78.3389 48.0002 78.1159 48.2232 77.8389 48.2232Z" fill="#7A1F0C"/>
<path d="M82.9791 53.3748C82.9791 54.8418 82.4791 56.0308 81.8621 56.0308C81.2451 56.0308 80.7451 54.8418 80.7451 53.3748C80.7451 51.9078 81.2451 50.7188 81.8621 50.7188C82.4791 50.7188 82.9791 51.9078 82.9791 53.3748Z" fill="#FAFAFF"/>
<path d="M41.5595 40.8106C39.1925 37.2496 33.7085 35.2186 31.3755 39.3916C29.0915 43.4776 30.6615 56.3286 38.3695 53.9626C43.5155 52.3836 43.4775 43.6966 41.5595 40.8106Z" fill="#E7B7B7"/>
<path d="M39.4871 48.2232C39.7641 48.2232 39.9871 47.9992 39.9871 47.7232C39.9871 43.0062 37.2891 40.6052 34.9771 39.9832C34.7131 39.9112 34.4351 40.0692 34.3651 40.3362C34.2931 40.6032 34.4511 40.8772 34.7181 40.9492C36.6881 41.4792 38.9881 43.5712 38.9881 47.7232C38.9871 48.0002 39.2101 48.2232 39.4871 48.2232Z" fill="#7A1F0C"/>
<path d="M34.3477 53.3748C34.3477 54.8418 34.8476 56.0308 35.4646 56.0308C36.0816 56.0308 36.5816 54.8418 36.5816 53.3748C36.5816 51.9078 36.0816 50.7188 35.4646 50.7188C34.8476 50.7188 34.3477 51.9078 34.3477 53.3748Z" fill="#FAFAFF"/>
<path d="M58.6632 18.2969C30.9792 18.2969 37.6732 37.3319 37.6732 46.8219C37.6732 56.3119 37.3332 72.0269 58.6632 72.0269C79.9932 72.0269 79.6532 56.3119 79.6532 46.8219C79.6532 37.3319 86.3472 18.2969 58.6632 18.2969Z" fill="#E7B7B7"/>
<path d="M59.765 54.5805C58.921 54.5805 57.897 54.3395 57.242 53.8325C56.811 53.4995 56.564 53.0735 56.527 52.5995C56.486 52.0685 56.561 51.3375 56.665 50.3265C56.817 48.8425 57.047 46.5995 57.047 43.4785C57.047 43.2025 57.271 42.9785 57.547 42.9785C57.823 42.9785 58.047 43.2025 58.047 43.4785C58.047 46.6505 57.814 48.9245 57.659 50.4285C57.56 51.3885 57.489 52.0815 57.523 52.5225C57.537 52.7125 57.645 52.8825 57.851 53.0415C58.428 53.4865 59.567 53.6615 60.218 53.5445C60.486 53.4905 60.75 53.6735 60.8 53.9465C60.849 54.2175 60.669 54.4785 60.398 54.5275C60.208 54.5625 59.993 54.5805 59.765 54.5805Z" fill="#7A1F0C"/>
<path d="M39.9394 45.9035C38.8014 48.0435 39.4104 50.5935 41.3014 51.5995C43.1914 52.6045 45.6464 51.6835 46.7844 49.5435C47.9224 47.4025 47.3134 44.8535 45.4234 43.8485C43.5324 42.8435 41.0774 43.7635 39.9394 45.9035Z" fill="#E3A2A2"/>
<path d="M77.3947 45.9035C78.5327 48.0435 77.9237 50.5935 76.0327 51.5995C74.1427 52.6045 71.6877 51.6835 70.5497 49.5435C69.4117 47.4025 70.0207 44.8535 71.9117 43.8485C73.8027 42.8435 76.2577 43.7635 77.3947 45.9035Z" fill="#E3A2A2"/>
<path d="M56.7308 59.079C59.1818 59.476 65.1708 57.768 67.0118 54.416C68.3888 54.548 71.3038 59.047 64.7678 62.104C58.1018 65.221 56.1568 60.117 56.7308 59.079Z" fill="#FAFAFF"/>
<path d="M54.3782 35.5523C54.0492 36.6733 51.2242 34.6473 49.5662 34.8123C46.7492 35.0923 46.6342 36.5123 45.6132 36.2493C45.4722 34.9553 47.2722 33.3033 49.7172 33.1413C53.3342 32.9013 54.3782 35.5523 54.3782 35.5523Z" fill="#2D2D64"/>
<path d="M49.2686 40.4664C49.2686 41.9524 49.9756 43.1564 50.8486 43.1564C51.7206 43.1564 52.4276 41.9514 52.4276 40.4664C52.4276 38.9804 51.7206 37.7764 50.8486 37.7764C49.9766 37.7764 49.2686 38.9804 49.2686 40.4664Z" fill="#0F1444"/>
<path d="M50.8406 37.7763C49.0596 37.5303 47.8096 38.0093 47.8096 38.0093C49.3926 38.1343 49.9836 38.8833 49.9836 38.8833L50.8406 37.7763Z" fill="#0F1444"/>
<path d="M62.9551 35.5523C63.2851 36.6733 66.1101 34.6473 67.7671 34.8123C70.5841 35.0923 70.6991 36.5123 71.7201 36.2493C71.8611 34.9553 70.0611 33.3033 67.6161 33.1413C63.9991 32.9013 62.9551 35.5523 62.9551 35.5523Z" fill="#2D2D64"/>
<path d="M68.0652 40.4664C68.0652 41.9524 67.3582 43.1564 66.4852 43.1564C65.6132 43.1564 64.9062 41.9514 64.9062 40.4664C64.9062 38.9804 65.6132 37.7764 66.4852 37.7764C67.3582 37.7764 68.0652 38.9804 68.0652 40.4664Z" fill="#0F1444"/>
<path d="M66.4854 37.7763C68.2664 37.5303 69.5164 38.0093 69.5164 38.0093C67.9334 38.1343 67.3423 38.8833 67.3423 38.8833L66.4854 37.7763Z" fill="#0F1444"/>
<path d="M58.6635 17.0557C31.7535 17.0557 36.9636 38.1357 36.9636 38.1357L37.5436 65.5307C40.1906 59.8227 38.9406 27.7387 47.8106 23.1557C64.4866 16.3937 68.0365 50.6857 77.4995 41.5637C78.4215 43.9737 78.3985 56.9057 79.7835 65.5307L80.3636 38.1357C80.3636 38.1357 85.5735 17.0557 58.6635 17.0557Z" fill="#2D2D64"/>
<path d="M117.322 126.339H0C0 107.687 6.90999 91.5259 14.757 87.5049C22.558 83.5069 39.188 84.5009 44.819 81.5889C44.819 81.5889 47.275 90.4409 58.662 90.4409C70.049 90.4409 72.505 81.5889 72.505 81.5889C78.136 84.5129 94.766 83.5079 102.567 87.5049C110.412 91.5259 117.322 107.688 117.322 126.339Z" fill="#BF504C"/>
<mask id="mask0_1364_308" style="mask-type:luminance" maskUnits="userSpaceOnUse" x="0" y="81" width="118" height="46">
<path d="M117.322 126.339H0C0 107.687 6.90999 91.5259 14.757 87.5049C22.558 83.5069 39.188 84.5009 44.819 81.5889C44.819 81.5889 47.275 90.4409 58.662 90.4409C70.049 90.4409 72.505 81.5889 72.505 81.5889C78.136 84.5129 94.766 83.5079 102.567 87.5049C110.412 91.5259 117.322 107.688 117.322 126.339Z" fill="white"/>
</mask>
<g mask="url(#mask0_1364_308)">
<path d="M129.76 117.198H-12.4395V119.198H129.76V117.198Z" fill="#E58A45"/>
<path d="M129.76 103.257H-12.4395V105.257H129.76V103.257Z" fill="#E58A45"/>
<path d="M129.76 89.3145H-12.4395V91.3145H129.76V89.3145Z" fill="#E58A45"/>
</g>
<path d="M72.5039 81.5889C72.5039 81.5889 70.0479 90.4409 58.6609 90.4409C47.2739 90.4409 44.8179 81.5889 44.8179 81.5889C43.7219 82.1599 42.2019 82.5709 40.4209 82.9139C41.8599 90.6689 46.2369 96.7179 49.5489 97.8219C52.4649 98.7939 55.5309 94.6439 58.6609 94.6439C61.7899 94.6439 64.8569 98.7939 67.7729 97.8219C71.0859 96.7179 75.4619 90.6689 76.9009 82.9139C75.1189 82.5719 73.5999 82.1599 72.5039 81.5889Z" fill="#2D2D64"/>
<path d="M99.2381 125.886C99.2321 125.886 99.2251 125.886 99.2181 125.886C98.9421 125.875 98.7271 125.643 98.7381 125.367C98.7441 125.223 99.2801 110.858 97.0391 101.518C96.9751 101.249 97.1411 100.979 97.4091 100.915C97.6801 100.851 97.9471 101.016 98.0121 101.285C100.285 110.761 99.7431 125.262 99.7391 125.407C99.7271 125.676 99.5051 125.886 99.2381 125.886Z" fill="#0F1444"/>
<path d="M18.0831 125.886C17.8161 125.886 17.5951 125.675 17.5841 125.406C17.5781 125.261 17.0361 110.76 19.3101 101.284C19.3741 101.015 19.6441 100.849 19.9131 100.914C20.1821 100.978 20.3471 101.248 20.2831 101.517C18.0411 110.86 18.5781 125.222 18.5831 125.366C18.5941 125.642 18.3791 125.874 18.1031 125.885C18.0971 125.886 18.0901 125.886 18.0831 125.886Z" fill="#0F1444"/>
</svg>
